<svg xmlns="http://www.w3.org/2000/svg" viewBox="0 0 203.67 84.69"><title>Logo-2</title><g id="Layer_2" data-name="Layer 2"><g id="Правка_07.02" data-name="Правка 07.02"><path d="M13.43,74.25H10.7c-.43,0-.53,0-2.73-3.16-1.58-2.26-1.83-2.77-3.16-2.77H4.73v4.41c0,1.09.21,1.3,1.51,1.3.06,0,.06.23,0,.23-.68,0-1.51,0-2.5,0s-1.7,0-2.33,0c-.08,0-.08-.23,0-.23,1.3,0,1.53-.21,1.53-1.3V64c0-1.07-.23-1.3-1.51-1.3-.08,0-.08-.23,0-.23.64,0,1.43.06,2.32.06s1.84-.06,2.5-.06c.06,0,.06.23,0,.23C5,62.71,4.73,63,4.73,64v4c.49,0,.9,0,1.26,0h.13l2.07-2.86c1.15-1.56,1-2.41,0-2.41-.06,0-.06-.23,0-.23.6,0,1.26.06,2.28.06s1.64-.06,2.22-.06c.06,0,.06.23,0,.23a4.89,4.89,0,0,0-3.54,2.11L6.59,68c1.3.11,1.73.68,3.18,2.71S12.09,74,13.43,74C13.48,74,13.48,74.25,13.43,74.25Zm.27-4.39a4.82,4.82,0,0,1,5-4.65,4.47,4.47,0,0,1,4.46,4.52,4.87,4.87,0,0,1-5,4.75A4.48,4.48,0,0,1,13.7,69.86Zm7.66.28c0-2.47-1.24-4.48-3.29-4.48-1.62,0-2.52,1.28-2.52,3.65,0,2.67,1.3,4.76,3.16,4.76C20.27,74.08,21.36,72.65,21.36,70.14ZM28.79,74c.08,0,.08.23,0,.23-.72,0-1.56,0-2.52,0-.77,0-1.53,0-2.11,0-.08,0-.08-.23,0-.23,1.05,0,1.26-.21,1.26-1.3V67c0-1.07-.21-1.3-1.26-1.3-.08,0-.08-.23,0-.23.58,0,1.32.06,2.09.06s1.49-.11,2.24-.11c2.05,0,3.16.66,3.24,2.17.11,1.9-1.64,2.86-3.18,2.86a1.91,1.91,0,0,1-.57-.06c-.09,0-.11-.25.08-.25a1.75,1.75,0,0,0,.36,0c.85,0,1.49-.68,1.49-2.17s-.72-2.28-1.85-2.28c-.64,0-1,.11-1,1.3v5.65C27.06,73.78,27.32,74,28.79,74Zm11.53-2.28A19.89,19.89,0,0,0,40.18,74c0,.21-.08.28-.28.28h-7c-.08,0-.08-.23,0-.23,1.09,0,1.26-.21,1.26-1.3V67c0-1.07-.17-1.3-1.26-1.3-.08,0-.08-.23,0-.23h6.68c.13,0,.17.06.17.15,0,.62.06,1.6.06,2.07,0,.08-.23.08-.23,0a2.68,2.68,0,0,0-2.39-2h-.26c-1,0-1.13.23-1.13,1.3v2.56a26.09,26.09,0,0,0,3-.21c.09,0,.11.21.11.41s0,.47-.11.47a20.78,20.78,0,0,0-3-.25v2.67c0,1.05.15,1.3,1.13,1.3h.43a3.15,3.15,0,0,0,2.75-2.2C40.09,71.67,40.31,71.67,40.31,71.75Zm12.09,2.5c-.57,0-1.32,0-2.09,0s-1.51,0-2.11,0c-.06,0-.06-.23,0-.23,1.07,0,1.28-.21,1.28-1.3V70H44.71v2.71c0,1.09.21,1.3,1.28,1.3.06,0,.06.23,0,.23-.57,0-1.28,0-2.09,0s-1.53,0-2.11,0c-.08,0-.08-.23,0-.23,1.09,0,1.3-.21,1.3-1.3V67c0-1.07-.21-1.3-1.28-1.3-.08,0-.08-.23,0-.23.58,0,1.32.06,2.09.06s1.54-.06,2.09-.06c.06,0,.06.23,0,.23-1.07,0-1.28.26-1.28,1.34v2.58h4.78V67c0-1.07-.21-1.34-1.28-1.34-.06,0-.06-.23,0-.23.6,0,1.3.06,2.11.06s1.53-.06,2.09-.06c.08,0,.08.23,0,.23-1.09,0-1.3.23-1.3,1.3v5.76c0,1.09.21,1.3,1.3,1.3C52.48,74,52.48,74.25,52.41,74.25Zm9-8.49c.17.08.23.13.23.32L61.75,68c0,.08-.17.11-.21,0-.77-1.66-1.81-2.47-3.26-2.47-1.88,0-3,1.66-3,4s1,4.59,3.45,4.59c1.38,0,2.28-.77,3-2.5,0-.09.23-.06.23,0l-.19,2c0,.21,0,.24-.26.34a9.28,9.28,0,0,1-3,.51c-3.82,0-5.1-2.71-5.1-4.67,0-2.62,2.22-4.59,5.2-4.59A7.53,7.53,0,0,1,61.43,65.76Zm11.93,8.49H71.27c-.83,0-.92,0-2-2-1.28-2.3-1.41-2.47-2.86-2.43v2.94c0,1.09.21,1.3,1.28,1.3.06,0,.06.23,0,.23-.58,0-1.28,0-2.11,0s-1.51,0-2.09,0c-.08,0-.08-.23,0-.23,1.09,0,1.3-.21,1.3-1.3V67c0-1.07-.21-1.3-1.28-1.3-.06,0-.06-.23,0-.23.58,0,1.32.06,2.07.06s1.54-.06,2.11-.06c.06,0,.06.23,0,.23-1.07,0-1.28.26-1.28,1.34v2.45c.71-.06,1.26-.09,1.69-.09l1.11-1.71c.87-1.34.79-2-.15-2-.06,0-.06-.23,0-.23.6,0,1.15.06,2.17.06.71,0,1.26-.06,1.66-.06.06,0,.06.23,0,.23a4.09,4.09,0,0,0-3.09,2l-1.21,1.71c.9.13,1.24.7,2.24,2.45S72.44,74,73.36,74C73.42,74,73.42,74.25,73.36,74.25Zm11.49,0c-.56,0-1.32,0-2.09,0s-1.53,0-2.11,0c-.06,0-.06-.23,0-.23,1.07,0,1.28-.21,1.28-1.3V67.28l-5.72,7.06a.37.37,0,0,1-.26.08c-.19,0-.41-.08-.41-.17V67c0-1.07-.19-1.3-1.28-1.3-.08,0-.08-.23,0-.23.56,0,1.3.06,2.07.06s1.53-.06,2.11-.06c.06,0,.06.23,0,.23-1.09,0-1.28.23-1.28,1.3V72.4l5.72-7.06a.37.37,0,0,1,.26-.08c.17,0,.41.08.41.17v7.29c0,1.09.21,1.3,1.3,1.3C84.93,74,84.93,74.25,84.86,74.25Zm11.37,0c-.58,0-1.34,0-2.09,0s-1.53,0-2.11,0C92,74.25,92,74,92,74c1.09,0,1.28-.21,1.28-1.3V67.3l-5.72,7c0,.06-.15.06-.26.06s-.41-.06-.41-.15V67c0-1.07-.21-1.3-1.28-1.3-.06,0-.06-.23,0-.23.56,0,1.3.06,2.07.06s1.53-.06,2.09-.06c.08,0,.08.23,0,.23-1.05,0-1.26.23-1.26,1.3v5.42l5.74-7c0-.06.13-.06.23-.06s.45.06.45.15v7.29c0,1.09.19,1.3,1.28,1.3C96.29,74,96.29,74.25,96.23,74.25Zm-8-11.86a.65.65,0,0,1,.73-.7c.68,0,.75.53.88,1.09s.19,1.05,1.05,1.05,1-.55,1.17-1.11.19-1,.81-1a.65.65,0,0,1,.73.7c0,.94-1.3,1.73-2.69,1.73S88.23,63.29,88.23,62.39Zm24,11.86c-.56,0-1.32,0-2.09,0s-1.53,0-2.11,0c-.06,0-.06-.23,0-.23,1.07,0,1.28-.21,1.28-1.3V67.28l-5.72,7.06a.37.37,0,0,1-.26.08c-.19,0-.41-.08-.41-.17V67c0-1.07-.19-1.3-1.28-1.3-.08,0-.08-.23,0-.23.56,0,1.3.06,2.07.06s1.53-.06,2.11-.06c.06,0,.06.23,0,.23-1.09,0-1.28.23-1.28,1.3V72.4l5.72-7.06a.37.37,0,0,1,.26-.08c.17,0,.41.08.41.17v7.29c0,1.09.21,1.3,1.3,1.3C112.34,74,112.34,74.25,112.27,74.25Zm5.51-.23c1.09,0,1.3-.21,1.3-1.3V67c0-1.07-.21-1.3-1.28-1.3-.06,0-.06-.23,0-.23h10.53c.08,0,.08.23,0,.23-1.09,0-1.3.23-1.3,1.3v5.76c0,1.09.21,1.3,1.3,1.3.08,0,.08.23,0,.23-.57,0-1.32,0-2.09,0s-1.52,0-2.11,0c-.06,0-.06-.23,0-.23,1.07,0,1.28-.21,1.28-1.3V67c0-.9-.21-1.13-1.28-1.13H122c-1.07,0-1.28.23-1.28,1.13v5.72c0,1.09.21,1.3,1.28,1.3.06,0,.06.23,0,.23-.58,0-1.28,0-2.11,0s-1.51,0-2.09,0C117.7,74.25,117.7,74,117.78,74Zm21.65.23c-.73,0-1.56-.08-2.32-.08-.6,0-1.21.08-1.77.08-.09,0-.09-.23,0-.23,1,0,1-.42.56-1.36l-1.19-2.54h-2.33l-.75,1.81c-.64,1.56-.3,2.09,1,2.09.11,0,.11.23,0,.23-.6,0-.94-.08-1.73-.08s-1.28.08-2,.08c-.09,0-.09-.23,0-.23,1.13,0,1.53-.34,2.32-2.26L134,65.15a.13.13,0,0,1,.23,0l3,6.51c.9,2,1.24,2.35,2.2,2.35C139.54,74,139.54,74.25,139.43,74.25Zm-4.9-4.56-1-2.22-.92,2.22ZM144.64,74c.08,0,.08.23,0,.23-.72,0-1.56,0-2.52,0-.77,0-1.53,0-2.11,0-.08,0-.08-.23,0-.23,1.05,0,1.26-.21,1.26-1.3V67c0-1.07-.21-1.3-1.26-1.3-.08,0-.08-.23,0-.23.58,0,1.32.06,2.09.06s1.49-.11,2.24-.11c2.05,0,3.16.66,3.24,2.17.11,1.9-1.64,2.86-3.18,2.86a1.91,1.91,0,0,1-.57-.06c-.09,0-.11-.25.08-.25a1.75,1.75,0,0,0,.36,0c.85,0,1.49-.68,1.49-2.17S145,65.7,143.9,65.7c-.64,0-1,.11-1,1.3v5.65C142.91,73.78,143.17,74,144.64,74Zm4.57-6c0,.06-.21.06-.21,0,.08-.55.23-2.24.23-3,0-.11.23-.13.23,0,0,.38.64.38,1,.38.81,0,1.81,0,2.84,0,1.19,0,1.86,0,2.5,0,.88,0,1.39-.06,1.52-.45,0-.08.21-.08.21,0,0,.7-.15,2.54-.15,3.05,0,.06-.23.06-.23,0a2.16,2.16,0,0,0-2.05-2.22c-.81,0-.94.26-.94,1.19v5.76c0,1.09.21,1.3,1.49,1.3.06,0,.06.23,0,.23-.66,0-1.43,0-2.35,0s-1.68,0-2.32,0c-.08,0-.08-.23,0-.23,1.28,0,1.49-.21,1.49-1.3v-5.8c0-.94-.13-1.15-.94-1.15C150.43,65.78,149.62,66.51,149.2,68Zm20.32,6.25c-.57,0-1.32,0-2.09,0s-1.51,0-2.11,0c-.06,0-.06-.23,0-.23,1.07,0,1.28-.21,1.28-1.3V70h-4.78v2.71c0,1.09.21,1.3,1.28,1.3.06,0,.06.23,0,.23-.57,0-1.28,0-2.09,0s-1.53,0-2.11,0c-.08,0-.08-.23,0-.23,1.09,0,1.3-.21,1.3-1.3V67c0-1.07-.21-1.3-1.28-1.3-.08,0-.08-.23,0-.23.58,0,1.32.06,2.09.06s1.54-.06,2.09-.06c.06,0,.06.23,0,.23-1.07,0-1.28.26-1.28,1.34v2.58h4.78V67c0-1.07-.21-1.34-1.28-1.34-.06,0-.06-.23,0-.23.6,0,1.3.06,2.11.06s1.53-.06,2.09-.06c.08,0,.08.23,0,.23-1.09,0-1.3.23-1.3,1.3v5.76c0,1.09.21,1.3,1.3,1.3C169.6,74,169.6,74.25,169.53,74.25Zm9-2.5a19.89,19.89,0,0,0-.13,2.22c0,.21-.08.28-.28.28h-7c-.08,0-.08-.23,0-.23,1.09,0,1.26-.21,1.26-1.3V67c0-1.07-.17-1.3-1.26-1.3-.08,0-.08-.23,0-.23h6.68c.13,0,.17.06.17.15,0,.62.06,1.6.06,2.07,0,.08-.23.08-.23,0a2.68,2.68,0,0,0-2.39-2h-.26c-1,0-1.13.23-1.13,1.3v2.56a26.12,26.12,0,0,0,3-.21c.09,0,.11.21.11.41s0,.47-.11.47a20.81,20.81,0,0,0-3-.25v2.67c0,1.05.15,1.3,1.13,1.3h.43a3.15,3.15,0,0,0,2.75-2.2C178.27,71.67,178.5,71.67,178.5,71.75ZM184.6,74c.08,0,.08.23,0,.23-.71,0-1.56,0-2.52,0-.77,0-1.52,0-2.11,0-.08,0-.08-.23,0-.23,1.05,0,1.26-.21,1.26-1.3V67c0-1.07-.21-1.3-1.26-1.3-.08,0-.08-.23,0-.23.58,0,1.32.06,2.09.06s1.49-.11,2.24-.11c2.05,0,3.16.66,3.24,2.17.11,1.9-1.64,2.86-3.18,2.86a1.91,1.91,0,0,1-.57-.06c-.09,0-.11-.25.08-.25a1.75,1.75,0,0,0,.36,0c.85,0,1.49-.68,1.49-2.17s-.72-2.28-1.85-2.28c-.64,0-1,.11-1,1.3v5.65C182.87,73.78,183.13,74,184.6,74ZM197,71.58c0,1.64-1.53,2.75-3.63,2.75-.64,0-1.85-.11-2.64-.11s-1.51,0-2.09,0c-.08,0-.08-.23,0-.23,1.11,0,1.3-.21,1.3-1.3V67c0-1.07-.21-1.3-1.28-1.3-.08,0-.08-.23,0-.23.58,0,1.32.06,2.09.06s1.54-.06,2.09-.06c.06,0,.06.23,0,.23-1.07,0-1.28.26-1.28,1.34v2.45a15.92,15.92,0,0,1,2-.15C196,69.3,197,70.09,197,71.58Zm-1.73.43c0-1.53-.87-2.33-2.6-2.33a8.24,8.24,0,0,0-1.11.09v3c0,.9.26,1.3,1.47,1.3C194.65,74,195.31,73.25,195.31,72Zm6.82,2.24c-.57,0-1.28,0-2.11,0s-1.52,0-2.11,0c-.08,0-.08-.23,0-.23,1.11,0,1.3-.21,1.3-1.3V67c0-1.07-.19-1.3-1.3-1.3-.08,0-.08-.23,0-.23.58,0,1.34.06,2.11.06s1.56-.06,2.11-.06c.08,0,.08.23,0,.23-1.07,0-1.28.26-1.28,1.34v5.72c0,1.09.19,1.3,1.28,1.3C202.2,74,202.2,74.25,202.13,74.25ZM62.24,81.83l-.74,0-.52,0s0-.08,0-.08c.31,0,.41-.1.24-.46l-.42-.93h-.9l-.27.68c-.22.54-.08.71.36.71,0,0,0,.08,0,.08-.2,0-.32,0-.59,0s-.43,0-.69,0c0,0,0-.08,0-.08.38,0,.5-.11.77-.77l.92-2.24a0,0,0,0,1,.07,0l1,2.21c.31.67.42.8.75.8C62.27,81.75,62.27,81.83,62.24,81.83Zm-1.5-1.59-.42-.93-.38.93Zm6.55,1.57c0,.16,0,.29,0,1,0,0-.07,0-.07,0,0-.76-.31-1-.73-1H64.76c-.38,0-.67.21-.67,1,0,0-.08,0-.08,0,0-.71,0-.81,0-1s0-.12.06-.12h.31l1.18-3a0,0,0,0,1,.08,0l1.34,3h.29C67.29,81.69,67.29,81.74,67.29,81.81Zm-.77-.12-1.07-2.37-.93,2.37Zm5.33-.77c0,.56-.5.93-1.19.93-.21,0-.6,0-.86,0h-.67s0-.08,0-.08c.41,0,.49-.07.49-.44v-2c0-.36-.08-.44-.48-.44,0,0,0-.08,0-.08l.66,0c.22,0,.49,0,.74,0,.61,0,1,.23,1,.63a.79.79,0,0,1-.62.72C71.49,80.22,71.85,80.45,71.85,80.92ZM70,79.37v.81h.31c.5,0,.8-.08.8-.59s-.26-.68-.74-.68C70.07,78.9,70,79,70,79.37Zm1.42,1.7c0-.47-.31-.79-1.09-.79H70v1c0,.31.1.44.54.44C71.16,81.75,71.42,81.5,71.42,81.07Zm1.93-.72a1.65,1.65,0,0,1,1.73-1.58,1.49,1.49,0,0,1,1.5,1.53,1.67,1.67,0,0,1-1.69,1.62A1.51,1.51,0,0,1,73.35,80.34Zm2.78.1c0-.84-.44-1.55-1.26-1.55s-1.08.47-1.08,1.29.47,1.59,1.25,1.59S76.14,81.29,76.14,80.45Zm4.94,1.38h-.75c-.14,0-.1,0-.61-.84-.36-.61-.4-.7-1-.67v1c0,.37.07.44.48.44,0,0,0,.08,0,.08H77.87s0-.08,0-.08c.41,0,.49-.07.49-.44v-2c0-.36-.08-.44-.48-.44,0,0,0-.08,0-.08l.67,0,.68,0s0,.08,0,.08c-.4,0-.48.09-.48.45v.84a5.54,5.54,0,0,1,.6,0l.42-.59c.38-.54.32-.67,0-.67,0,0,0-.08,0-.08l.68,0,.55,0s0,.08,0,.08c-.41,0-.7.22-1,.68l-.45.59c.24.05.35.21.63.67.44.7.62.88,1,.89C81.1,81.75,81.1,81.83,81.08,81.83Zm5.24,0-.74,0-.52,0s0-.08,0-.08c.31,0,.41-.1.24-.46l-.42-.93H84l-.27.68c-.22.54-.08.71.36.71,0,0,0,.08,0,.08-.2,0-.32,0-.59,0s-.43,0-.69,0c0,0,0-.08,0-.08.38,0,.5-.11.77-.77l.92-2.24a0,0,0,0,1,.07,0l1,2.21c.31.67.42.8.75.8C86.35,81.75,86.35,81.83,86.31,81.83Zm-1.5-1.59-.42-.93-.38.93Zm3-.58s-.07,0-.07,0c0-.18.07-.74.07-1,0,0,.08,0,.08,0s.22.13.34.13h1.82c.28,0,.44,0,.49-.15s.08,0,.08,0c0,.23-.05.83-.05,1s-.07,0-.07,0c0-.57-.16-.75-.65-.75s-.45.09-.45.43v2c0,.37.08.44.56.44,0,0,0,.08,0,.08h-1.5s0-.08,0-.08c.47,0,.55-.07.55-.44v-2c0-.34-.06-.42-.45-.42S87.92,79.1,87.83,79.67Zm7.31-.72c.06,0,.07,0,.08.11l.06.66s-.06,0-.07,0A1.1,1.1,0,0,0,94,78.85a1.24,1.24,0,0,0-1.16,1.37,1.44,1.44,0,0,0,1.34,1.59,1,1,0,0,0,1.06-.88s.08,0,.08,0l-.08.68c0,.07,0,.08-.09.12a3.2,3.2,0,0,1-1,.17,1.58,1.58,0,0,1-1.73-1.59,1.63,1.63,0,0,1,1.76-1.56A2.54,2.54,0,0,1,95.14,78.94Zm5.3,2.88h-.75c-.14,0-.1,0-.61-.84-.36-.61-.4-.7-1-.67v1c0,.37.07.44.48.44,0,0,0,.08,0,.08H97.23s0-.08,0-.08c.41,0,.49-.07.49-.44v-2c0-.36-.08-.44-.48-.44,0,0,0-.08,0-.08l.67,0,.68,0s0,.08,0,.08c-.4,0-.48.09-.48.45v.84a5.54,5.54,0,0,1,.6,0l.42-.59c.38-.54.32-.67,0-.67,0,0,0-.08,0-.08l.68,0,.55,0s0,.08,0,.08c-.41,0-.7.22-1,.68l-.45.59c.24.05.35.21.63.67.44.7.62.88,1,.89C100.46,81.75,100.46,81.83,100.44,81.83Zm5,0-.74,0-.52,0s0-.08,0-.08c.31,0,.41-.1.24-.46l-.42-.93H103l-.27.68c-.22.54-.08.71.36.71,0,0,0,.08,0,.08-.2,0-.32,0-.59,0s-.43,0-.69,0c0,0,0-.08,0-.08.38,0,.5-.11.77-.77l.92-2.24a0,0,0,0,1,.07,0l1,2.21c.31.67.42.8.75.8C105.42,81.75,105.42,81.83,105.39,81.83Zm-1.5-1.59-.42-.93-.38.93ZM110,81.83h-1.35s0-.08,0-.08c.41,0,.48-.07.48-.44V80.4c-.56,0-.83.16-1.12.79s-.33.64-.42.64h-.68s0-.08,0-.08c.39,0,.57-.29.74-.64a1.1,1.1,0,0,1,.94-.73c-.7-.06-.93-.36-.93-.79s.42-.78,1.07-.78c.16,0,.39,0,.61,0l.67,0s0,.08,0,.08c-.41,0-.49.08-.49.44v2c0,.37.08.44.49.44C110,81.75,110,81.83,110,81.83Zm-.87-1.54v-.92c0-.35-.12-.47-.42-.47-.45,0-.68.19-.68.56a.77.77,0,0,0,.83.85Zm8.45,1.54h-.75c-.14,0-.1,0-.61-.84-.36-.61-.4-.7-1-.67v1c0,.37.07.44.48.44,0,0,0,.08,0,.08h-1.35s0-.08,0-.08c.41,0,.49-.07.49-.44v-2c0-.36-.08-.44-.48-.44,0,0,0-.08,0-.08l.67,0,.68,0s0,.08,0,.08c-.4,0-.48.09-.48.45v.84a5.54,5.54,0,0,1,.6,0l.42-.59c.38-.54.32-.67,0-.67,0,0,0-.08,0-.08l.68,0,.55,0s0,.08,0,.08c-.41,0-.7.22-1,.68l-.45.59c.24.05.35.21.63.67.44.7.62.88,1,.89C117.57,81.75,117.57,81.83,117.56,81.83Zm1-1.48a1.65,1.65,0,0,1,1.73-1.58,1.49,1.49,0,0,1,1.5,1.53,1.67,1.67,0,0,1-1.69,1.62A1.51,1.51,0,0,1,118.58,80.34Zm2.78.1c0-.84-.44-1.55-1.26-1.55s-1.08.47-1.08,1.29.47,1.59,1.25,1.59S121.36,81.29,121.36,80.45ZM127,81.83H125.7s0-.08,0-.08c.41,0,.47-.07.47-.44v-.93h-1.79v.93c0,.37.06.44.48.44,0,0,0,.08,0,.08h-1.35s0-.08,0-.08c.41,0,.49-.07.49-.44v-2c0-.36-.08-.44-.48-.44,0,0,0-.08,0-.08l.67,0,.68,0s0,.08,0,.08c-.41,0-.48.09-.48.45v.89h1.79v-.89c0-.36-.06-.45-.47-.45,0,0,0-.08,0-.08l.67,0,.67,0s0,.08,0,.08c-.41,0-.49.08-.49.44v2c0,.37.08.44.49.44C127.07,81.75,127.07,81.83,127,81.83ZM129,79.67s-.07,0-.07,0c0-.18.07-.74.07-1,0,0,.08,0,.08,0s.22.13.34.13h1.82c.28,0,.44,0,.49-.15s.08,0,.08,0c0,.23-.05.83-.05,1s-.07,0-.07,0c0-.57-.16-.75-.65-.75s-.45.09-.45.43v2c0,.37.08.44.56.44,0,0,0,.08,0,.08h-1.5s0-.08,0-.08c.47,0,.55-.07.55-.44v-2c0-.34-.06-.42-.45-.42S129,79.1,129,79.67Zm4,.68a1.65,1.65,0,0,1,1.73-1.58,1.49,1.49,0,0,1,1.5,1.53,1.67,1.67,0,0,1-1.69,1.62A1.51,1.51,0,0,1,133,80.34Zm2.78.1c0-.84-.44-1.55-1.26-1.55s-1.08.47-1.08,1.29.47,1.59,1.25,1.59S135.76,81.29,135.76,80.45Zm3.2,1.3s0,.08,0,.08h-1.5s0-.08,0-.08c.4,0,.48-.07.48-.44v-2c0-.36-.08-.44-.48-.44,0,0,0-.08,0-.08l.67,0c.22,0,.54,0,.75,0,.65,0,1,.22,1.05.77a1,1,0,0,1-1,.93,1.23,1.23,0,0,1-.28,0s0-.08,0-.08l.21,0a.65.65,0,0,0,.66-.71.72.72,0,0,0-.76-.82c-.29,0-.4,0-.4.46v1.92C138.33,81.67,138.42,81.75,139,81.75Zm5.89.08-.74,0-.52,0s0-.08,0-.08c.31,0,.41-.1.24-.46l-.42-.93h-.9l-.27.68c-.22.54-.08.71.36.71,0,0,0,.08,0,.08-.2,0-.32,0-.59,0s-.43,0-.69,0c0,0,0-.08,0-.08.38,0,.5-.11.77-.77l.92-2.24a0,0,0,0,1,.07,0l1,2.21c.31.67.42.8.75.8C144.88,81.75,144.88,81.83,144.85,81.83Zm-1.5-1.59-.42-.93-.38.93Zm35.19.1H145.39v.12h33.15Zm-120.42,0H24.88v.12H58.12Z" style="fill:$purple"/><path d="M101.8,56.43c.27,0,.52.07.53-.33.1-3.87,6.27-6.53,5.28-1.14.63.29,3.23-1.77,1.39-3.31a4,4,0,0,0-3-.54,2.5,2.5,0,0,0-1.67-2.94c.9,2.24-.84,3.33-2.52,6.27Z" style="fill:$purple"/><path d="M101.8,56.43c-.27,0-.52.07-.53-.33-.1-3.87-6.27-6.53-5.28-1.14-.63.29-3.23-1.77-1.39-3.31a4,4,0,0,1,3-.54,2.5,2.5,0,0,1,1.67-2.94c-.9,2.24.84,3.33,2.52,6.27Z" style="fill:$purple"/><path d="M106.93,47.9c2.52-.41,7.46-5.53,10.44-5.22,2.6.27,3,3.07,3,3.07a2.1,2.1,0,0,0,0-2.81c1.78.21,2-.29,2.35-1.26a3.1,3.1,0,0,1-2.64-.34c-.73-.42-1.06-1.14-2.58-1.14-2.87,0-8.3,6.65-10.61,7.28C106.79,47.56,106.82,47.77,106.93,47.9Z" style="fill:$purple"/><path d="M96.66,47.9c-2.52-.41-7.46-5.53-10.44-5.22-2.6.27-3,3.07-3,3.07a2.1,2.1,0,0,1,0-2.81c-1.78.21-2-.29-2.35-1.26a3.1,3.1,0,0,0,2.64-.34c.73-.42,1.06-1.14,2.58-1.14,2.87,0,8.3,6.65,10.61,7.28C96.8,47.56,96.77,47.77,96.66,47.9Z" style="fill:$purple"/><path d="M112.06,45.73c2.8-2.13,4.33-2.34,6.57-1A11.83,11.83,0,0,0,112.06,45.73Z" style="fill:$purple"/><path d="M91.53,45.73c-2.8-2.13-4.33-2.34-6.57-1A11.83,11.83,0,0,1,91.53,45.73Z" style="fill:$purple"/><path d="M122.07,30.64a1.57,1.57,0,0,0,3.08,0,1,1,0,0,0-1.87-.86c-.11-1.66,3.56-1.28,2.74,1.76-.1-1.25-.4-2.21-1.2-2.24.77.62.61,1.47.09,2.31-.74,4.07-3.84,5.59-7.08,6l-1.19,1.57a9.77,9.77,0,0,0,6.06-1.14A9.72,9.72,0,0,0,126.07,34l0,0a9.89,9.89,0,0,1-3.25,4.35,9.44,9.44,0,0,1-.9.61c3.22-.92,5.85-3.1,6.09-6.43C128.53,25.87,121.23,27.37,122.07,30.64Z" style="fill:$purple"/><path d="M128.6,31.88c-1-1.6.25-4.14,1.37-4.83.44-.27.2.46.2.46s1.22-1.73,2-1.31c.35.19.13.85-.39,1.4,2.14-1.64,4-.69,4.18.65-6.77-2.52-4.24,8.88-11.3,10.06,4.6-2.55,3.92-8.62,5.67-9.15C129.69,29,128.86,30.08,128.6,31.88Z" style="fill:$purple"/><path d="M81.52,30.64a1.57,1.57,0,0,1-3.08,0,1,1,0,0,1,1.87-.86c.11-1.66-3.56-1.28-2.74,1.76.1-1.25.4-2.21,1.2-2.24-.77.62-.61,1.47-.09,2.31.74,4.07,3.84,5.59,7.08,6L87,39.25a9.77,9.77,0,0,1-6.06-1.14A9.72,9.72,0,0,1,77.52,34l0,0a9.89,9.89,0,0,0,3.25,4.35,9.44,9.44,0,0,0,.9.61c-3.22-.92-5.85-3.1-6.09-6.43C75.06,25.87,82.36,27.37,81.52,30.64Z" style="fill:$purple"/><path d="M75,31.88c1-1.6-.25-4.14-1.37-4.83-.44-.27-.2.46-.2.46s-1.22-1.73-2-1.31c-.35.19-.13.85.39,1.4-2.14-1.64-4-.69-4.18.65,6.77-2.52,4.24,8.88,11.3,10.06-4.6-2.55-3.92-8.62-5.67-9.15C73.9,29,74.73,30.08,75,31.88Z" style="fill:$purple"/><path d="M136.33,38.83a5.78,5.78,0,0,0-1.81,0c-.4,0-.8.07-1.2.1l-1.19.2a12.66,12.66,0,0,0-2.29.75,15.85,15.85,0,0,0-4,2.65A36.24,36.24,0,0,0,122.39,46l-.06-.05a36.38,36.38,0,0,1,3.34-3.58,16.09,16.09,0,0,1,4-2.79,13,13,0,0,1,2.33-.82l1.22-.24c.41,0,.82-.11,1.23-.13l1,0a9.49,9.49,0,0,0-3.48-.79s1.47-.74.65-.78c-9.89-.52-11.12,16.45-21.28,12.4v1.57c8.16,2.48,11.24-3.36,14.36-6,3.62-3.09,8.55-1.15,8.55-1.15A3.14,3.14,0,0,0,133.16,42,7.35,7.35,0,0,1,139,43.53C138.88,41.12,138.2,39.65,136.33,38.83Z" style="fill:$purple"/><path d="M67.27,38.83a5.78,5.78,0,0,1,1.81,0c.4,0,.8.07,1.2.1l1.19.2a12.66,12.66,0,0,1,2.29.75,15.85,15.85,0,0,1,4,2.65A36.24,36.24,0,0,1,81.2,46l.06-.05a36.38,36.38,0,0,0-3.34-3.58,16.09,16.09,0,0,0-4-2.79,13,13,0,0,0-2.33-.82l-1.22-.24c-.41,0-.82-.11-1.23-.13l-1,0a9.49,9.49,0,0,1,3.48-.79s-1.47-.74-.65-.78c9.89-.52,11.12,16.45,21.28,12.4v1.57c-8.16,2.48-11.24-3.36-14.36-6-3.62-3.09-8.55-1.15-8.55-1.15A3.14,3.14,0,0,1,70.43,42a7.35,7.35,0,0,0-5.87,1.57C64.71,41.12,65.39,39.65,67.27,38.83Z" style="fill:$purple"/><path d="M132.41,46.29c.61.44,2.09.61,1.34-.3-1.3-1.57-8.2-1.71-10.32,3l.4-.32a10.6,10.6,0,0,1,2.1-1.28,7.19,7.19,0,0,1,2.37-.62,7.42,7.42,0,0,1,2.42.22l0,.09a7.27,7.27,0,0,0-2.38-.11,7.36,7.36,0,0,0-2.26.7c-1.54.73-3,1.71-3.14,3a5.43,5.43,0,0,1,6.91-.45,1.41,1.41,0,0,0-.17-1.42c1.08,2,3.74,2,5.41,1.81C133.56,49.29,134.15,47.71,132.41,46.29Z" style="fill:$purple"/><path d="M71.18,46.29c-.61.44-2.09.61-1.34-.3,1.3-1.57,8.2-1.71,10.32,3l-.4-.32a10.6,10.6,0,0,0-2.1-1.28,7.19,7.19,0,0,0-2.37-.62,7.42,7.42,0,0,0-2.42.22l0,.09a7.27,7.27,0,0,1,2.38-.11,7.36,7.36,0,0,1,2.26.7c1.54.73,3,1.71,3.14,3a5.43,5.43,0,0,0-6.91-.45,1.41,1.41,0,0,1,.17-1.42c-1.08,2-3.74,2-5.41,1.81C70,49.29,69.44,47.71,71.18,46.29Z" style="fill:$purple"/><path d="M103.34,58.52c8.52.17,12-11.3,23.56-5.85C115.77,52.3,110.58,62.49,103.34,58.52Z" style="fill:$purple"/><path d="M112.83,59.22C126,52.47,135.48,50,149,57.3,129.38,52.14,124.06,58.77,112.83,59.22Z" style="fill:$purple"/><path d="M125.2,58.44c9-3.82,22,.23,38.7,1.9C150.78,63,136.72,58.44,125.2,58.44Z" style="fill:$purple"/><path d="M100.25,58.52c-8.52.17-12-11.3-23.56-5.85C87.82,52.3,93,62.49,100.25,58.52Z" style="fill:$purple"/><path d="M90.76,59.22C77.54,52.47,68.11,50,54.57,57.3,74.21,52.14,79.53,58.77,90.76,59.22Z" style="fill:$purple"/><path d="M78.39,58.44c-9-3.82-22,.23-38.7,1.9C52.81,63,66.87,58.44,78.39,58.44Z" style="fill:$purple"/><path d="M101.3,45.47A29.41,29.41,0,0,1,86.18,32.66a36.9,36.9,0,0,1-4.83-22.4L81.47,9l1.27-.08c7-.42,11.89-2.09,18.46-5l.6-.27V1.21l-1.5.67C94,4.7,89.27,6.3,82.6,6.7l-3.18.19-.28,3.17A39.11,39.11,0,0,0,84.27,33.8a31.63,31.63,0,0,0,16.28,13.76l1.24.44V45.64Z" style="fill:#574d61"/><path d="M124.45,10.07l-.28-3.17L121,6.7c-6.67-.4-11.36-2-17.69-4.82l-1.5-.67V3.64l.6.27c6.57,2.92,11.45,4.59,18.46,5l1.27.08.11,1.27a36.9,36.9,0,0,1-4.83,22.4,29.41,29.41,0,0,1-15.12,12.81l-.5.18V48l1.24-.44A31.63,31.63,0,0,0,119.32,33.8,39.11,39.11,0,0,0,124.45,10.07Z" style="fill:$purple"/><polygon points="97.32 31.45 93.41 14.57 93.41 31.45 97.32 31.45" style="fill:#574d61"/><polygon points="93.27 31.45 93.27 14.59 89.36 31.45 93.27 31.45" style="fill:#574d61"/><polygon points="101.8 12.11 101.8 12.12 101.8 12.12 101.8 12.11" style="fill:$purple"/><polygon points="110.32 14.58 110.32 31.45 114.23 31.45 110.32 14.58" style="fill:$purple"/><polygon points="110.18 14.58 106.27 31.45 110.18 31.45 110.18 14.58" style="fill:$purple"/><path d="M100.24,39.58a.34.34,0,0,0-.1.26c0,.18.11.34.27.34a.2.2,0,0,0,.2-.22C100.61,39.75,100.4,39.68,100.24,39.58Z" style="fill:#574d61"/><path d="M100.45,39.51a.28.28,0,0,0,0-.18c0-.12-.07-.22-.16-.22s-.12.06-.12.15S100.33,39.45,100.45,39.51Z" style="fill:#574d61"/><path d="M101.21,40.48s0,0,0,0a.64.64,0,0,0,.49-.65c0-.23-.1-.45-.24-.45s-.14.08-.14.22,0,.24.14.24a.18.18,0,0,0,.14-.07h0a.28.28,0,0,1-.23.11.23.23,0,0,1-.24-.25.32.32,0,0,1,.36-.31.36.36,0,0,1,.31.17V35.72H94.46a.42.42,0,0,1,0-.83h.29c2,0,3.48-.35,5.75-.45a1.29,1.29,0,0,1,.36-1.1,1.08,1.08,0,0,1,.31-1.43.87.87,0,0,1,.06-1.26l.06-4.63a3.57,3.57,0,0,1,0-2.27v-.07h-.43v-.44h.43v-.06c-1.05-.85-.5-2.58.05-4.26l.06-4.55a1,1,0,0,1-.56-.52l-.06-.05a3.2,3.2,0,0,0-.85-.58,2.07,2.07,0,0,0-1.32-.15,2.26,2.26,0,0,0-.38.12,4.07,4.07,0,0,0-.43.21,9.78,9.78,0,0,1-1.09.48,10.33,10.33,0,0,1-2.24.57,5.87,5.87,0,0,1-1,0l3.93,17h.45a5.26,5.26,0,0,1-9.17,0h.45l3.93-17-.32-.07a1.57,1.57,0,0,1-.58-.29,1.09,1.09,0,0,1-.37-.62,1.2,1.2,0,0,1,0-.16.71.71,0,0,1,0-.08V13a1.33,1.33,0,0,1,0-.13,1.28,1.28,0,0,1,.56-.71A1.33,1.33,0,0,1,93,12h.18a.44.44,0,0,1,0,.88h-.12a.42.42,0,0,0-.16.07.34.34,0,0,0-.13.21v0h0v0h0v0h0v0s0,0,0,0a1.2,1.2,0,0,0,.55.09,4.46,4.46,0,0,0,.87-.12,9.07,9.07,0,0,0,1.9-.67,8.35,8.35,0,0,0,.89-.49,5.93,5.93,0,0,1,.51-.31,3.85,3.85,0,0,1,.6-.26,3.68,3.68,0,0,1,1.27-.18,4,4,0,0,1,1.12.2c.26.09,1.19.56,1.2.56h0c-2-1.1-.13-3.12,0-5.07V4.86l-.15.07C95,7.9,90,9.6,82.8,10l-.32,0,0,.32a35.8,35.8,0,0,0,4.67,21.73,28.3,28.3,0,0,0,14.54,12.33l.12,0V40.09A.75.75,0,0,1,101.21,40.48Zm-3.94-.34s0,0,0,0a.9.9,0,0,1-.29,0,.45.45,0,0,1-.5-.45.47.47,0,0,1,.5-.45.73.73,0,0,1,.28.05s0,0,0,0v.19h0a.34.34,0,0,0-.32-.24c-.18,0-.29.16-.29.38s.1.45.33.45.22-.07.29-.24h0Zm1.34.06h-.46s0,0,0,0,.15,0,.15-.13v-.5c0-.11,0-.13-.15-.08s0,0,0,0l.3-.13s0,0,0,0v.72c0,.11,0,.13.15.13S98.61,40.2,98.6,40.2Zm.35.28s0,0,0,0a.64.64,0,0,0,.49-.65c0-.23-.1-.45-.24-.45s-.14.08-.14.22,0,.24.14.24a.18.18,0,0,0,.14-.07h0a.28.28,0,0,1-.23.11.23.23,0,0,1-.24-.25.32.32,0,0,1,.36-.31.41.41,0,0,1,.39.46A.73.73,0,0,1,99,40.48Zm1.41-.26a.36.36,0,0,1-.39-.33.41.41,0,0,1,.23-.33.26.26,0,0,1-.14-.22c0-.17.17-.25.32-.25s.29.11.29.21a.29.29,0,0,1-.18.23c.15.08.3.16.3.34A.39.39,0,0,1,100.36,40.22Z" style="fill:#574d61"/><polygon points="92.81 13.22 92.81 13.22 92.81 13.22 92.81 13.22" style="fill:#574d61"/><path d="M121.13,10.36l0-.32-.32,0c-7.17-.43-12.16-2.13-18.84-5.1l-.15-.07V7h0c.12,2,2,4,0,5.09,0,0,.86-.45,1.2-.56a4,4,0,0,1,1.12-.2,3.68,3.68,0,0,1,1.27.18,3.84,3.84,0,0,1,.6.26,5.93,5.93,0,0,1,.51.31,8.35,8.35,0,0,0,.89.49,9.06,9.06,0,0,0,1.9.67,4.46,4.46,0,0,0,.87.12,1.2,1.2,0,0,0,.55-.09s0,0,0,0v0h0v0h0v0h0v0a.34.34,0,0,0-.13-.21.42.42,0,0,0-.16-.07h-.12a.44.44,0,0,1,0-.88h.18a1.33,1.33,0,0,1,.54.17,1.27,1.27,0,0,1,.56.71,1.29,1.29,0,0,1,0,.13l0,.09v.15a.73.73,0,0,1,0,.08,1.2,1.2,0,0,1,0,.16,1.09,1.09,0,0,1-.37.62,1.57,1.57,0,0,1-.58.29l-.33.07,3.93,17h.45a5.26,5.26,0,0,1-9.17,0h.45l3.93-17a5.87,5.87,0,0,1-1,0,10.33,10.33,0,0,1-2.24-.57,9.78,9.78,0,0,1-1.09-.48,4.07,4.07,0,0,0-.43-.21,2.26,2.26,0,0,0-.38-.12,2.07,2.07,0,0,0-1.32.15,3.2,3.2,0,0,0-.85.58l-.05.05a1,1,0,0,1-.56.52l.06,4.55c.56,1.68,1.11,3.41.05,4.26v.06h.43v.44h-.43v.07a3.57,3.57,0,0,1,0,2.27l.06,4.63a.87.87,0,0,1,.06,1.26,1.08,1.08,0,0,1,.31,1.43,1.29,1.29,0,0,1,.36,1.1c2.27.1,3.74.45,5.75.45h.29a.42.42,0,1,1,0,.83H101.8v3.77a.51.51,0,0,1,.08.28.68.68,0,0,1-.08.31v4.38l.12,0a28.3,28.3,0,0,0,14.54-12.33A35.8,35.8,0,0,0,121.13,10.36ZM103.37,39.61h0c0-.15-.12-.22-.23-.22h0c-.09,0-.11,0-.11.11V40c0,.11,0,.13.17.13s0,0,0,0h-.45s0,0,0,0,.12,0,.12-.13v-.56c0-.1,0-.13-.12-.13s0,0,0,0h.67s0,0,0,0S103.38,39.5,103.37,39.61Zm.74.61a.43.43,0,0,1-.44-.45.47.47,0,0,1,.49-.45.43.43,0,0,1,.43.44A.47.47,0,0,1,104.11,40.22Zm1.65.26s0,0,0,0c0-.19-.08-.28-.22-.28h-.46c-.14,0-.22.09-.22.28,0,0,0,0,0,0,0-.2,0-.22,0-.29s0,0,0,0h.09l.35-.84h0l.39.85h.08s0,0,0,0S105.76,40.3,105.76,40.48Zm1.31-.28h-.4s0,0,0,0,.1,0,.06-.13l-.12-.25h-.23l-.07.18c-.06.15,0,.2.1.2s0,0,0,0H106s0,0,0,0,.15,0,.22-.22l.27-.64h0l.29.63c.09.19.12.23.21.23S107.08,40.2,107.07,40.2Z" style="fill:$purple"/><polygon points="104.97 40.16 105.5 40.16 105.22 39.54 104.97 40.16" style="fill:$purple"/><path d="M104.09,39.37c-.16,0-.24.12-.24.35s.13.46.31.46.26-.14.26-.38S104.29,39.37,104.09,39.37Z" style="fill:$purple"/><polygon points="106.41 39.76 106.59 39.76 106.5 39.54 106.41 39.76" style="fill:$purple"/><rect width="203.67" height="84.69" style="fill:none"/></g></g></svg>