<svg xmlns="http://www.w3.org/2000/svg" width="16.14" height="16.108" viewBox="0 0 16.14 16.108">
  <g id="f14-worktime" transform="translate(0.091)">
    <g id="Group_394" data-name="Group 394" transform="translate(-0.091 0)">
      <g id="Group_393" data-name="Group 393">
        <path id="Path_190" data-name="Path 190" d="M7.963,0a8.054,8.054,0,1,0,0,16.108,8.14,8.14,0,0,0,8.086-8.086A8.086,8.086,0,0,0,7.963,0Zm0,14.22a6.166,6.166,0,1,1,6.2-6.2,6.252,6.252,0,0,1-6.2,6.2Z" transform="translate(0.091 0)" fill="#dbc29e"/>
      </g>
    </g>
    <g id="Group_396" data-name="Group 396" transform="translate(2.796 2.855)">
      <g id="Group_395" data-name="Group 395" transform="translate(0 0)">
        <path id="Path_191" data-name="Path 191" d="M100.709,96.4a.472.472,0,1,1,0-.944h.448a5.166,5.166,0,0,0-1.18-2.848l-.316.316a.472.472,0,1,1-.667-.667l.316-.316a5.362,5.362,0,0,0-2.91-1.18v.448a.472.472,0,0,1-.944,0V90.76a5.166,5.166,0,0,0-2.848,1.18l.316.316a.472.472,0,1,1-.667.667l-.316-.316a5.166,5.166,0,0,0-1.18,2.848h.448a.472.472,0,0,1,0,.944H90.76a5.362,5.362,0,0,0,1.18,2.91l.316-.316a.472.472,0,1,1,.667.667l-.316.316a5.166,5.166,0,0,0,2.848,1.18v-.448a.472.472,0,0,1,.944,0v.448a5.362,5.362,0,0,0,2.91-1.18l-.316-.316a.472.472,0,1,1,.667-.667l.316.316a5.362,5.362,0,0,0,1.18-2.91Zm-3.165,1.749-1.888-1.888a.472.472,0,0,1,0-.667l1.888-1.888a.472.472,0,1,1,.667.667l-1.553,1.554,1.554,1.554a.472.472,0,1,1-.669.667Z" transform="translate(-90.76 -90.76)" fill="#dbc29e"/>
      </g>
    </g>
  </g>
</svg>
