<svg xmlns="http://www.w3.org/2000/svg" width="50" height="54.062" viewBox="0 0 50 54.062">
  <g id="sec-4-4" transform="translate(-544.53 -988.341)">
    <g id="Group_168" data-name="Group 168" transform="translate(555.448 993.799)">
      <path id="Path_232" data-name="Path 232" d="M562.91,1013.058a.647.647,0,1,1,0-1.295h2.082v-8.451a.65.65,0,0,1,.226-.493l6.369-5.458a.646.646,0,0,1,.843,0l6.369,5.458a.644.644,0,0,1,.226.492v8.451h4.163v-1.513l-.175-.062a2.478,2.478,0,0,1-1.645-2.327v-1.819a2.468,2.468,0,0,1,4.935,0v1.819a2.477,2.477,0,0,1-1.646,2.326l-.174.062v1.513h1.172a.647.647,0,1,1,0,1.295Zm14.819-1.295v-8.153l-5.721-4.9-5.721,4.9v8.153h3.253v-2.992a.649.649,0,0,1,.648-.648h3.639a.649.649,0,0,1,.648.648v2.992Zm-4.549,0v-2.344h-2.344v2.344Zm10.655-6.893a1.173,1.173,0,0,0-1.172,1.172v1.819a1.172,1.172,0,0,0,2.343,0v-1.819A1.173,1.173,0,0,0,583.835,1004.87Z" transform="translate(-562.262 -997.206)" fill="#dbc29e"/>
    </g>
    <g id="Group_169" data-name="Group 169" transform="translate(561.816 1001.078)">
      <rect id="Rectangle_43" data-name="Rectangle 43" width="1.296" height="1.296" transform="translate(0)" fill="#dbc29e"/>
    </g>
    <g id="Group_170" data-name="Group 170" transform="translate(567.275 1001.078)">
      <rect id="Rectangle_44" data-name="Rectangle 44" width="1.296" height="1.296" fill="#dbc29e"/>
    </g>
    <g id="Group_171" data-name="Group 171" transform="translate(561.816 1013.815)">
      <path id="Path_233" data-name="Path 233" d="M573.253,1031.01a.647.647,0,1,1,0-1.295h5.458a.647.647,0,1,1,0,1.295Z" transform="translate(-572.605 -1029.715)" fill="#dbc29e"/>
    </g>
    <g id="Group_172" data-name="Group 172" transform="translate(554.538 1019.273)">
      <path id="Path_234" data-name="Path 234" d="M561.432,1039.876a.648.648,0,0,1,0-1.3h7.279a.648.648,0,0,1,0,1.3Z" transform="translate(-560.784 -1038.58)" fill="#dbc29e"/>
    </g>
    <g id="Group_173" data-name="Group 173" transform="translate(565.455 1019.273)">
      <path id="Path_235" data-name="Path 235" d="M579.164,1039.876a.648.648,0,0,1,0-1.3h10.008a.648.648,0,1,1,0,1.3Z" transform="translate(-578.516 -1038.58)" fill="#dbc29e"/>
    </g>
    <g id="Group_174" data-name="Group 174" transform="translate(554.538 1022.913)">
      <path id="Path_236" data-name="Path 236" d="M561.432,1045.786a.648.648,0,0,1,0-1.3h12.737a.648.648,0,1,1,0,1.3Z" transform="translate(-560.784 -1044.491)" fill="#dbc29e"/>
    </g>
    <g id="Group_175" data-name="Group 175" transform="translate(571.401 1022.913)">
      <path id="Path_237" data-name="Path 237" d="M588.82,1045.786a.648.648,0,1,1,0-1.3h3.835a.648.648,0,0,1,0,1.3Z" transform="translate(-588.172 -1044.491)" fill="#dbc29e"/>
    </g>
    <g id="Group_176" data-name="Group 176" transform="translate(554.538 1026.552)">
      <path id="Path_238" data-name="Path 238" d="M561.432,1051.7a.648.648,0,0,1,0-1.3h8.188a.648.648,0,0,1,0,1.3Z" transform="translate(-560.784 -1050.401)" fill="#dbc29e"/>
    </g>
    <g id="Group_177" data-name="Group 177" transform="translate(566.852 1026.654)">
      <path id="Path_239" data-name="Path 239" d="M581.432,1051.863a.648.648,0,0,1,0-1.3h8.5a.648.648,0,0,1,0,1.3Z" transform="translate(-580.784 -1050.567)" fill="#dbc29e"/>
    </g>
    <g id="Group_178" data-name="Group 178" transform="translate(555.025 1033.83)">
      <path id="Path_240" data-name="Path 240" d="M562.223,1063.518a.647.647,0,1,1,0-1.295H569.5a.647.647,0,1,1,0,1.295Z" transform="translate(-561.575 -1062.223)" fill="#dbc29e"/>
    </g>
    <g id="Group_179" data-name="Group 179" transform="translate(567.279 1030.191)">
      <path id="Path_241" data-name="Path 241" d="M586.669,1061.246a.648.648,0,0,1-.457-1.106l.894-.893a.96.96,0,1,0-1.358-1.358l-3.168,3.168a.648.648,0,0,1-.916-.918l3.167-3.167a2.261,2.261,0,0,1,3.774,2.211l-.146.521.5-.209a5.918,5.918,0,0,0,1.913-1.285l.8-.8a.648.648,0,0,1,1.11.458.642.642,0,0,1-.193.457l-.8.8a7.236,7.236,0,0,1-5.1,2.12Z" transform="translate(-581.478 -1056.312)" fill="#dbc29e"/>
    </g>
    <g id="Group_180" data-name="Group 180" transform="translate(544.53 988.341)">
      <path id="Path_242" data-name="Path 242" d="M545.178,1042.4a.648.648,0,0,1-.648-.647s.009-38.372.017-42.565a.642.642,0,0,1,.185-.452l9.826-10.022a.648.648,0,0,1,.457-.193c3.5-.026,30.2-.184,30.2-.184a.647.647,0,0,1,.646.648v21.8l.526.129,2.931-5.638a2.485,2.485,0,0,1,2.2-1.332,2.415,2.415,0,0,1,.825.146,2.465,2.465,0,0,1,1.542,1.649,2.538,2.538,0,0,1-.212,1.869l-.932,1.791.838.436a1.791,1.791,0,0,1,.76,2.409l-1.574,3.026a.649.649,0,0,1-.905.259.671.671,0,0,1-.23-.886l1.56-3a.489.489,0,0,0-.209-.66l-.837-.435-6.288,12.091.01,19.113a.648.648,0,0,1-.648.647Zm39.382-1.295v-15.882l-2.679,3.027a.647.647,0,0,1-.784.146l-.232-.121-.54,1.04a.656.656,0,0,1-.578.353.648.648,0,0,1-.573-.95l.541-1.041-.233-.121a.648.648,0,0,1-.331-.726s.8-3.328.9-3.716c.249-.489,4.522-8.716,4.522-8.716l-.01-24.765H555.834V999a.648.648,0,0,1-.648.648h-9.359v41.465Zm-3.314-14.093,1.6-1.808-1.756-.914-.562,2.349Zm2.36-2.874,6.118-11.764-2.079-1.081-6.118,11.764Zm6.716-12.914.661-1.272-2.078-1.081-.662,1.272Zm1.259-2.422.96-1.846a1.171,1.171,0,0,0-2.078-1.082l-.961,1.846Zm-37.044-10.457v-7.8l-7.795,7.8Z" transform="translate(-544.53 -988.341)" fill="#dbc29e"/>
    </g>
  </g>
</svg>
