<svg id="sec-8-6" xmlns="http://www.w3.org/2000/svg" width="183.688" height="87.884" viewBox="0 0 183.688 87.884">
  <g id="Group_206" data-name="Group 206" transform="translate(44.47 0)">
    <path id="Path_333" data-name="Path 333" d="M4454.794,855.742c16.493-2.971,30.407.494,33.842,9.489,2.6,6.807-1.388,15.255-9.668,22.766V865.734l-7.615-3.671-.015-.008-8.454,3.871v32.668q-.688.332-1.39.654V885.27l-6.885-3.152-.012.006-6.2,2.991v15.494c.019.035.038,1.449.057,3.339q-.684.183-1.364.351V869.7l-8.454-3.871-.015.007-7.614,3.672v36.837c-11.226-.06-19.869-3.7-22.476-10.529a13.863,13.863,0,0,1,.213-9.751c-2.024,4.316-2.5,8.532-1.069,12.27,4.693,12.29,28.106,14.763,52.294,5.527s39.992-26.687,35.3-38.977C4491.348,854.627,4474.373,851.211,4454.794,855.742Zm21.817,11.57,1.546.671v1.856l-1.546-.672Zm0,3.782,1.546.672v1.856l-1.546-.672Zm0,3.783,1.546.672V877.4l-1.546-.672Zm0,3.783,1.546.672v1.855l-1.546-.671Zm0,3.783,1.546.671v1.856l-1.546-.672Zm-2.436-16.188,2.242.974v1.856l-2.242-.974Zm0,3.783,2.242.974v1.856l-2.242-.975Zm0,3.782,2.242.975v1.856l-2.242-.975Zm0,3.783,2.242.974v1.856l-2.242-.974Zm0,3.783,2.242.974v1.856l-2.242-.974Zm-2.307-16.132,2.113.917v1.856l-2.113-.918Zm0,3.783,2.113.918v1.855l-2.113-.918Zm0,3.782,2.113.919v1.855l-2.113-.918Zm0,3.783,2.113.918v1.856l-2.113-.918Zm0,3.783,2.113.918v1.856l-2.113-.917Zm-19.413,5.087,1.722-.748v1.51l-1.722.748Zm0,3.08,1.722-.748v1.512l-1.722.747Zm0,3.08,1.722-.747v1.51l-1.722.748Zm0,3.081,1.722-.748v1.512l-1.722.748Zm-1.983-8.38,1.826-.794v1.512l-1.826.793Zm0,3.08,1.826-.794v1.511l-1.826.794Zm0,3.081,1.826-.794v1.512l-1.826.794Zm0,3.08,1.826-.794v1.511l-1.826.793Zm-1.417-8.627,1.259-.547v1.511l-1.259.547Zm0,3.081,1.259-.547v1.51l-1.259.547Zm0,3.08,1.259-.547v1.512l-1.259.547Zm0,3.081,1.259-.547v1.511l-1.259.548Zm-13.064-26.241,2.113-.918v1.855l-2.113.918Zm0,3.782,2.113-.918v1.856l-2.113.918Zm0,3.783,2.113-.918v1.856l-2.113.918Zm0,3.783,2.113-.918v1.856l-2.113.918Zm0,3.783,2.113-.918v1.855l-2.113.919Zm-2.436-14.072,2.243-.975v1.856l-2.243.974Zm0,3.782,2.243-.974v1.856l-2.243.975Zm0,3.783,2.243-.975v1.855l-2.243.975Zm0,3.782,2.243-.973v1.856l-2.243.974Zm0,3.783,2.243-.974v1.855l-2.243.974Zm-1.74-14.375,1.547-.672v1.856l-1.547.672Zm0,3.783,1.547-.672v1.856l-1.547.671Zm0,3.783,1.547-.672v1.855l-1.547.672Zm0,3.782,1.547-.671v1.856l-1.547.671Zm0,3.783,1.547-.671v1.855l-1.547.672Z" transform="translate(-4406.85 -848.829)" fill="#dbc29e"/>
    <path id="Path_334" data-name="Path 334" d="M4637.1,847.2c-3.127-11.162-21.356-15.814-40.716-10.391a62.787,62.787,0,0,0-6.455,2.19q1.953-.7,4.009-1.284c19.36-5.423,37.853.167,41.3,12.486a15.917,15.917,0,0,1-.039,8.48C4637.376,854.858,4638.131,850.905,4637.1,847.2Z" transform="translate(-4542.807 -834.549)" fill="#dbc29e"/>
    <path id="Path_335" data-name="Path 335" d="M4434.714,952.266c-5.59-1.576-9.962-4.995-11.8-9.891-3.151-8.41,2.2-18.452,12.243-24.341-11.242,5.631-17.582,16.007-14.408,24.475C4422.74,947.814,4428.039,951.23,4434.714,952.266Z" transform="translate(-4416.566 -896.547)" fill="#dbc29e"/>
  </g>
  <g id="Group_207" data-name="Group 207" transform="translate(0 72.964)">
    <path id="Path_336" data-name="Path 336" d="M4247.6,1138.293c-.017,3.08-.767,4-4.18,4h-5.145c-3.2,0-4.213-.982-4.213-4.079v-3.281c0-3.38,1.082-4.329,4.479-4.329h4.6c2.73,0,4.446.782,4.446,4.029h-2.764c0-1.215-.616-1.732-2.214-1.732h-3.546c-1.849,0-2.231.316-2.231,2.131v2.864c0,1.765.649,2.1,2.231,2.1h3.546c1.648,0,2.214-.3,2.214-1.7Z" transform="translate(-4234.061 -1127.37)" fill="#dbc29e"/>
    <path id="Path_337" data-name="Path 337" d="M4303.833,1131.118v2.3h-4.879v9.258h-2.764v-9.258h-4.829v-2.3Z" transform="translate(-4276.615 -1127.754)" fill="#dbc29e"/>
    <path id="Path_338" data-name="Path 338" d="M4347.176,1142.674h-2.764v-11.556h7.876c2.914,0,4.063,1.132,4.063,4.046,0,2.931-1.182,4.1-4.029,4.1h-5.146Zm0-5.711h4.613c1.4,0,1.8-.549,1.8-1.8,0-1.132-.35-1.748-1.8-1.748h-4.613Z" transform="translate(-4316.012 -1127.754)" fill="#dbc29e"/>
    <path id="Path_339" data-name="Path 339" d="M4405.089,1142.289h-5.079c-3.1,0-4.262-1.149-4.262-3.946v-3.63c0-3.164,1.116-4.113,4.262-4.113h5.079c2.864,0,4.18.865,4.18,4.113v3.63C4409.269,1141.223,4408.319,1142.289,4405.089,1142.289Zm-4.413-2.3h3.663c1.766,0,2.165-.383,2.165-1.948v-3.08c0-1.682-.566-2.065-2.214-2.065h-3.563c-1.732,0-2.215.433-2.215,2.081v3.081C4398.512,1139.575,4398.995,1139.991,4400.676,1139.991Z" transform="translate(-4354.135 -1127.37)" fill="#dbc29e"/>
    <path id="Path_340" data-name="Path 340" d="M4457.676,1130.669h.383l7.043-9.257h4.646v11.555h-2.764v-9.258h-.382l-6.944,9.258h-4.745v-11.555h2.764Zm4.2-10.107c-3.331,0-3.963-.666-3.963-2.365v-.15h2.248c0,1.066.25,1.166,1.715,1.166,1.4,0,1.731-.1,1.731-1.166h2.248C4465.852,1119.663,4465.5,1120.563,4461.873,1120.563Z" transform="translate(-4398.072 -1118.048)" fill="#dbc29e"/>
    <path id="Path_341" data-name="Path 341" d="M4545.791,1135.43h1.632l5.045-4.312h4.146l-6.81,5.411,7.077,6.144h-4.063l-5.345-4.946h-1.682v4.946h-2.764v-11.556h2.764Z" transform="translate(-4463.509 -1127.754)" fill="#dbc29e"/>
    <path id="Path_342" data-name="Path 342" d="M4600.07,1142.674l6.127-11.556h4.1l6.078,11.556h-3.247l-1.481-2.914H4604.8l-1.5,2.914Zm10.457-5.1-2.2-4.3h-.133l-2.281,4.3Z" transform="translate(-4505.871 -1127.754)" fill="#dbc29e"/>
    <path id="Path_343" data-name="Path 343" d="M4680.063,1131.118v11.556H4677.3v-9.258h-7.143v9.258h-2.765v-11.556Z" transform="translate(-4555.866 -1127.754)" fill="#dbc29e"/>
    <path id="Path_344" data-name="Path 344" d="M4726.332,1140.375h.383l7.043-9.258h4.645v11.556h-2.764v-9.258h-.383l-6.943,9.258h-4.746v-11.556h2.764Z" transform="translate(-4597.584 -1127.754)" fill="#dbc29e"/>
    <path id="Path_345" data-name="Path 345" d="M4799.143,1131.118v2.3h-4.878v9.258H4791.5v-9.258h-4.829v-2.3Z" transform="translate(-4644.447 -1127.754)" fill="#dbc29e"/>
    <path id="Path_346" data-name="Path 346" d="M4828.246,1142.674l6.128-11.556h4.1l6.077,11.556H4841.3l-1.482-2.914h-6.843l-1.5,2.914Zm10.457-5.1-2.2-4.3h-.133l-2.281,4.3Z" transform="translate(-4675.322 -1127.754)" fill="#dbc29e"/>
    <path id="Path_347" data-name="Path 347" d="M4908.236,1131.118v11.556h-2.763v-9.258h-6.494v5.062c0,2.964-1.216,4.2-3.281,4.2h-1.165v-2.3c1.416,0,1.681-.533,1.681-2.214v-7.043Z" transform="translate(-4724.549 -1127.754)" fill="#dbc29e"/>
  </g>
</svg>
