<svg xmlns="http://www.w3.org/2000/svg" width="69.855" height="60.519" viewBox="0 0 69.855 60.519">
  <g id="sec-4-6" transform="translate(-797.428 -987.641)">
    <g id="Group_153" data-name="Group 153" transform="translate(802.254 1036.402)">
      <path id="Path_227" data-name="Path 227" d="M817.485,1070.6a.643.643,0,1,1,0-1.285h21.507a.825.825,0,0,0,.823-.824v-2.348a.825.825,0,0,0-.823-.824H806.583a.825.825,0,0,0-.823.824v2.348a.825.825,0,0,0,.823.824h6.154a.643.643,0,1,1,0,1.285h-6.154a2.112,2.112,0,0,1-2.109-2.109v-2.348a2.112,2.112,0,0,1,2.109-2.109h1.379v-3.082a2.112,2.112,0,0,1,2.109-2.109H835.5a2.112,2.112,0,0,1,2.109,2.109v3.082h1.379a2.112,2.112,0,0,1,2.109,2.109v2.348a2.112,2.112,0,0,1-2.109,2.109Zm-7.413-10.473a.825.825,0,0,0-.823.824v3.082h27.077v-3.082a.825.825,0,0,0-.823-.824Z" transform="translate(-804.474 -1058.838)" fill="#dbc29e"/>
    </g>
    <g id="Group_154" data-name="Group 154" transform="translate(806.764 987.641)">
      <path id="Path_228" data-name="Path 228" d="M864.463,1048.158a2.726,2.726,0,0,1-2.136-4.425l.216-.271L833.6,1014.516l-.261.158a1.659,1.659,0,0,1-1.607.065l-.251-.125-5.408,5.408.272.275a1.686,1.686,0,0,1,.525,1.214,1.652,1.652,0,0,1-.487,1.176l-1.846,1.845a1.666,1.666,0,0,1-2.353,0L811.546,1013.9a1.667,1.667,0,0,1,0-2.354l1.846-1.844a1.667,1.667,0,0,1,2.353,0l.275.274.311-.238,5.134-5.134-.125-.251a1.661,1.661,0,0,1,.309-1.922l4.2-4.2a1.652,1.652,0,0,1,1.174-.485,1.681,1.681,0,0,1,.748.176l.25.125,5.408-5.406-.272-.275a1.684,1.684,0,0,1-.525-1.214,1.659,1.659,0,0,1,.487-1.177l1.846-1.844a1.663,1.663,0,0,1,2.353,0l10.635,10.635a1.663,1.663,0,0,1,0,2.353l-1.846,1.844a1.664,1.664,0,0,1-2.353,0l-.274-.275-.312.238-5.134,5.135.125.251a1.68,1.68,0,0,1-.064,1.609l-.158.26,28.945,28.946.271-.216a2.746,2.746,0,0,1,1.7-.59,2.728,2.728,0,0,1,1.928,4.656l-4.387,4.386A2.709,2.709,0,0,1,864.463,1048.158Zm4.386-8.557a1.432,1.432,0,0,0-1.02.422l-4.387,4.388a1.443,1.443,0,0,0,2.042,2.041l4.386-4.386a1.443,1.443,0,0,0-1.021-2.465Zm-34.36-26.01,28.977,28.976,2.52-2.52-28.977-28.976Zm-22.3-.87,11.169,11.169,2.38-2.38-11.169-11.169Zm4.777-1.8,8.194,8.194,5.411-5.411-3.145-3.146a.643.643,0,0,1,.909-.909l4.139,4.139,4.732-4.733-10.182-10.183-4.733,4.733,2.637,2.637a.643.643,0,1,1-.909.908l-1.642-1.642Zm11.962-11.963,8.194,8.194,5.411-5.411-8.194-8.194Zm4.833-7.807,11.169,11.169,2.38-2.381L836.141,988.77Z" transform="translate(-811.06 -987.641)" fill="#dbc29e"/>
    </g>
    <g id="Group_155" data-name="Group 155" transform="translate(801.811 1004.26)">
      <path id="Path_229" data-name="Path 229" d="M807.205,1015.927a.636.636,0,0,1-.455-.188L804.016,1013a.643.643,0,1,1,.909-.91l2.735,2.735a.643.643,0,0,1-.455,1.1Z" transform="translate(-803.828 -1011.907)" fill="#dbc29e"/>
    </g>
    <g id="Group_156" data-name="Group 156" transform="translate(797.428 1010.719)">
      <path id="Path_230" data-name="Path 230" d="M801.861,1023.4a.673.673,0,0,1-.132-.013l-3.787-.777a.643.643,0,0,1,.128-1.273.649.649,0,0,1,.13.014l3.788.777a.643.643,0,0,1-.128,1.272Z" transform="translate(-797.428 -1021.338)" fill="#dbc29e"/>
    </g>
    <g id="Group_157" data-name="Group 157" transform="translate(808.27 999.878)">
      <path id="Path_231" data-name="Path 231" d="M814.679,1010.581a.643.643,0,0,1-.629-.513l-.778-3.789a.643.643,0,0,1,.5-.758.609.609,0,0,1,.132-.014.645.645,0,0,1,.628.514l.777,3.788a.644.644,0,0,1-.5.759A.672.672,0,0,1,814.679,1010.581Z" transform="translate(-813.259 -1005.508)" fill="#dbc29e"/>
    </g>
  </g>
</svg>
