<svg id="sec-8-2" xmlns="http://www.w3.org/2000/svg" width="162.307" height="103.028" viewBox="0 0 162.307 103.028">
  <g id="Group_195" data-name="Group 195" transform="translate(65.692 0)">
    <path id="Path_301" data-name="Path 301" d="M1300.56,792.6l-.007-.007a14.868,14.868,0,0,1,1.826-2.766,15.983,15.983,0,0,1,7.35-5.077,16.209,16.209,0,0,1,1.766-.48,7.12,7.12,0,1,0,6.164-.1,16.063,16.063,0,0,1,12.4,10.722c.153.457.282.916.392,1.376a16.064,16.064,0,0,0-30.6-9.765l-.009.021a13.048,13.048,0,0,0-.835,4.474l-.031-.036a15.975,15.975,0,0,0,.414,4.512l0,.017A16.17,16.17,0,0,1,1300.56,792.6Z" transform="translate(-1298.96 -775.704)" fill="#dbc29e"/>
  </g>
  <g id="Group_201" data-name="Group 201" transform="translate(0 16.827)">
    <g id="Group_196" data-name="Group 196" transform="translate(41.009)">
      <path id="Path_302" data-name="Path 302" d="M1215.434,871.167l-.008,0a14.881,14.881,0,0,1-2.067-2.591,15.986,15.986,0,0,1-2.556-8.56,16.306,16.306,0,0,1,.089-1.828,7.12,7.12,0,1,0,1.811-5.892,16.061,16.061,0,0,1,14.029-8.481c.482,0,.958.015,1.43.052a16.064,16.064,0,0,0-18.742,26.082l.017.014a13.046,13.046,0,0,0,4,2.177l-.043.018a15.975,15.975,0,0,0,4.419,1l.017,0A16.158,16.158,0,0,1,1215.434,871.167Z" transform="translate(-1203.054 -841.087)" fill="#dbc29e"/>
    </g>
    <g id="Group_197" data-name="Group 197" transform="translate(97.022 1.439)">
      <path id="Path_303" data-name="Path 303" d="M1423.8,849.255l0-.009a14.859,14.859,0,0,1,3.195.882,15.983,15.983,0,0,1,7.1,5.422,16.233,16.233,0,0,1,1,1.531,7.12,7.12,0,1,0,2,5.832,16.062,16.062,0,0,1-6.365,15.107c-.387.286-.784.551-1.187.8a16.064,16.064,0,0,0-.168-32.117l-.022,0a13.05,13.05,0,0,0-4.513.588l.024-.04a15.968,15.968,0,0,0-4.163,1.789l-.015.008A16.156,16.156,0,0,1,1423.8,849.255Z" transform="translate(-1420.691 -846.677)" fill="#dbc29e"/>
    </g>
    <g id="Group_198" data-name="Group 198" transform="translate(80.184 33.447)">
      <path id="Path_304" data-name="Path 304" d="M1381.608,974.065h.01a14.884,14.884,0,0,1,.149,3.311,15.986,15.986,0,0,1-2.963,8.428,16.224,16.224,0,0,1-1.146,1.427,7.119,7.119,0,1,0-4.929,3.7,16.061,16.061,0,0,1-16.335-1.385c-.392-.28-.767-.575-1.126-.883a16.064,16.064,0,0,0,30.493-10.084l-.005-.022a13.058,13.058,0,0,0-1.953-4.11l.046.011a15.991,15.991,0,0,0-2.988-3.406l-.013-.011A16.12,16.12,0,0,1,1381.608,974.065Z" transform="translate(-1355.268 -971.043)" fill="#dbc29e"/>
    </g>
    <g id="Group_199" data-name="Group 199" transform="translate(49.376 32.038)">
      <path id="Path_305" data-name="Path 305" d="M1263.824,986.109l0,.009a14.867,14.867,0,0,1-3.1,1.164,15.983,15.983,0,0,1-8.931-.214,16.258,16.258,0,0,1-1.711-.649,7.12,7.12,0,1,0-5.044-3.543,16.062,16.062,0,0,1-3.731-15.963c.145-.459.31-.907.491-1.344a16.064,16.064,0,0,0,19.014,25.885l.019-.012a13.058,13.058,0,0,0,3.305-3.128c0,.016,0,.031,0,.047a15.991,15.991,0,0,0,2.316-3.894l.007-.016A16.145,16.145,0,0,1,1263.824,986.109Z" transform="translate(-1235.563 -965.57)" fill="#dbc29e"/>
    </g>
    <g id="Group_200" data-name="Group 200" transform="translate(0 73.619)">
      <path id="Path_306" data-name="Path 306" d="M1047.76,1138.466c-.244,0-.344-.029-.344-.143,0-.072.086-.129.272-.144.129-.014.215-.029.316-.043.416-.043.531-.244.546-1.09,0-.029-.015-.057-.043-.057-3.457-.344-4.791-2.08-4.791-4.462,0-2.008,1.262-3.7,4.849-3.945.029,0,.029-.015.029-.029,0-.9-.158-1.076-.574-1.1a3.086,3.086,0,0,1-.316-.029c-.187,0-.258-.057-.258-.143s.057-.144.33-.144c.56,0,1.908.043,1.951.043.086,0,1.621-.043,2.123-.043.244,0,.33.057.33.144s-.1.129-.258.143a3.5,3.5,0,0,0-.431.058c-.387.072-.5.272-.516,1.062,0,.029.014.029.043.029,3.457.258,4.777,1.851,4.777,3.917,0,2.8-1.865,4.246-4.777,4.49a.053.053,0,0,0-.057.057c.014.861.172,1.033.588,1.1.172.014.244.029.4.043.258.028.33.072.33.144s-.043.143-.316.143c-.947,0-2.023-.043-2.238-.043C1049.438,1138.423,1048.219,1138.466,1047.76,1138.466Zm.832-9.095c0-.015,0-.029-.029-.029-1.563.172-2.18,1.076-2.18,2.984,0,1.678.488,3.371,2.152,3.8.043.015.057,0,.057-.043Zm2.353,6.728c0,.028,0,.086.057.072,1.636-.2,2.137-1.793,2.137-3.256,0-1.807-.488-3.3-2.152-3.515a.038.038,0,0,0-.043.043Z" transform="translate(-1043.714 -1127.133)" fill="#dbc29e"/>
      <path id="Path_307" data-name="Path 307" d="M1095.82,1132.967c0-2.869,1.922-5.667,6.14-5.667,3.644,0,5.925,2.439,5.925,5.351a5.659,5.659,0,0,1-6.025,5.9C1097.628,1138.547,1095.82,1135.506,1095.82,1132.967Zm9.2.316c0-2.381-.99-5.093-3.529-5.093-1.32,0-2.8.732-2.8,4.132,0,2.711,1.133,5.308,3.6,5.308C1103.179,1137.629,1105.015,1137.242,1105.015,1133.282Z" transform="translate(-1082.41 -1127.257)" fill="#dbc29e"/>
      <path id="Path_308" data-name="Path 308" d="M1154.741,1132.5c.043,0,.086-.029.086-.1v-.3c0-2.224,0-2.467-.028-2.927-.029-.416-.144-.66-.617-.76-.115-.014-.33-.029-.5-.043-.2,0-.272-.086-.272-.144,0-.086.071-.144.287-.144.832,0,2.123.043,2.266.043s1.779-.043,2.4-.043c.215,0,.287.057.287.144s-.072.144-.215.144c-.244.029-.33.029-.5.057-.373.057-.488.3-.531.76s-.029.832-.029,3.056v2.525c0,1.363,0,2.424.072,3.027.043.474.158.717.588.789.2.029.488.043.631.058.172,0,.244.072.244.143,0,.1-.115.143-.287.143-.99,0-2.438-.043-2.7-.043-.229,0-1.348.043-2.051.043-.258,0-.316-.072-.316-.158s.086-.129.273-.129a4.06,4.06,0,0,0,.445-.058c.344-.072.43-.344.473-.8.058-.6.086-1.506.086-2.869v-1.162a.083.083,0,0,0-.086-.086h-4.476a.076.076,0,0,0-.086.086v1.492c0,1.363.014,1.951.072,2.568.043.416.172.689.6.76.3.043.445.057.6.072s.272.043.272.143c0,.072-.072.143-.287.143-.818,0-2.51-.043-2.654-.043s-1.635.043-2.095.043c-.158,0-.315-.029-.315-.129s.057-.158.244-.158.258-.029.445-.058c.344-.043.474-.416.5-.846.043-.6.072-1.607.072-2.969v-2.5c0-2.224-.014-2.553-.043-3.012-.029-.5-.187-.775-.689-.846-.172-.029-.244-.029-.4-.043-.259-.015-.287-.086-.287-.158,0-.1.158-.129.316-.129.832,0,1.937.043,2.267.043.545,0,1.75-.043,2.367-.043.258,0,.3.057.3.144s-.086.144-.258.144a4.877,4.877,0,0,0-.5.057c-.387.086-.459.416-.488.832-.043.459-.043,1.047-.043,2.84v.3c0,.072.043.1.086.1Z" transform="translate(-1119.838 -1127.836)" fill="#dbc29e"/>
      <path id="Path_309" data-name="Path 309" d="M1202.108,1138.3c-.732,0-1.406.029-1.736.043-1.148.043-1.32.416-1.392,1.162-.014.186-.043.33-.158.33-.086,0-.158-.043-.158-.373-.014-1.162-.1-1.994-.1-2.3,0-.144.057-.144.143-.144a7.318,7.318,0,0,0,1.062.072c.115,0,.172-.057.258-.229l3.558-8.693c.316-.718.43-.875.617-.875.158,0,.258.244.387.488.488,1.076,2.668,6.369,3.859,9.066a.335.335,0,0,0,.316.23,7.365,7.365,0,0,0,1.392-.1c.129-.028.172.015.129.215a15.154,15.154,0,0,0-.244,2.3c0,.273-.072.344-.158.344-.115,0-.158-.143-.158-.344-.043-.76-.359-1.061-1.148-1.119-.545-.043-1.076-.072-1.808-.072Zm1.994-1.119a10.743,10.743,0,0,0,1.506-.043c.086-.014.1-.057.043-.186-.6-1.535-1.349-3.515-2.138-5.466q-.043-.086-.086,0c-1.822,4.978-2.052,5.437-2.052,5.552,0,.086.057.086.129.1a14,14,0,0,0,1.578.043Z" transform="translate(-1158.711 -1127.257)" fill="#dbc29e"/>
      <path id="Path_310" data-name="Path 310" d="M1260.685,1138.3c-.732,0-1.406.029-1.736.043-1.148.043-1.32.416-1.392,1.162-.014.186-.043.33-.158.33-.086,0-.158-.043-.158-.373-.014-1.162-.1-1.994-.1-2.3,0-.144.057-.144.143-.144a7.316,7.316,0,0,0,1.062.072c.115,0,.172-.057.258-.229l3.558-8.693c.316-.718.43-.875.617-.875.158,0,.258.244.387.488.488,1.076,2.668,6.369,3.859,9.066a.335.335,0,0,0,.315.23,7.362,7.362,0,0,0,1.392-.1c.129-.028.172.015.129.215a15.154,15.154,0,0,0-.244,2.3c0,.273-.072.344-.158.344-.115,0-.158-.143-.158-.344-.043-.76-.359-1.061-1.148-1.119-.545-.043-1.076-.072-1.807-.072Zm1.994-1.119a10.743,10.743,0,0,0,1.506-.043c.086-.014.1-.057.043-.186-.6-1.535-1.348-3.515-2.137-5.466q-.043-.086-.086,0c-1.822,4.978-2.051,5.437-2.051,5.552,0,.086.057.086.129.1a14,14,0,0,0,1.578.043Z" transform="translate(-1202.212 -1127.257)" fill="#dbc29e"/>
      <path id="Path_311" data-name="Path 311" d="M1302.761,1132.967c0-2.869,1.922-5.667,6.14-5.667,3.644,0,5.925,2.439,5.925,5.351a5.659,5.659,0,0,1-6.025,5.9C1304.568,1138.547,1302.761,1135.506,1302.761,1132.967Zm9.2.316c0-2.381-.99-5.093-3.529-5.093-1.32,0-2.8.732-2.8,4.132,0,2.711,1.133,5.308,3.6,5.308C1310.12,1137.629,1311.957,1137.242,1311.957,1133.282Z" transform="translate(-1236.09 -1127.257)" fill="#dbc29e"/>
      <path id="Path_312" data-name="Path 312" d="M1356.891,1136.969a5.2,5.2,0,0,1-1.808-4.218,5.3,5.3,0,0,1,1.779-3.974,6.787,6.787,0,0,1,4.749-1.478,12.888,12.888,0,0,1,2.037.172,11.7,11.7,0,0,0,1.42.187c.158.014.158.1.158.186,0,.115-.043.459-.072.947s-.014,1.32-.043,1.678c-.014.215-.043.344-.172.344s-.158-.1-.172-.3a2.138,2.138,0,0,0-.545-1.406,4.016,4.016,0,0,0-2.9-.9,3.066,3.066,0,0,0-2.109.689,4.725,4.725,0,0,0-1.262,3.629c0,2.955,1.607,4.935,4.017,4.935,1.177,0,1.908-.1,2.467-.732a2.223,2.223,0,0,0,.474-.961c.072-.3.115-.4.229-.4s.115.144.115.258a20.114,20.114,0,0,1-.316,2.181.467.467,0,0,1-.373.416,7.549,7.549,0,0,1-2.467.33A7.768,7.768,0,0,1,1356.891,1136.969Z" transform="translate(-1274.947 -1127.257)" fill="#dbc29e"/>
      <path id="Path_313" data-name="Path 313" d="M1404.937,1134.269c0,1.119,0,2.453.072,3.056.029.373.129.674.559.746.186.028.359.043.617.072.23.014.287.057.287.158s-.072.129-.33.129c-.975,0-2.367-.043-2.6-.043s-1.635.043-2.109.043c-.23,0-.33-.029-.33-.143s.115-.143.287-.143c.144-.014.3-.029.459-.058.316-.057.416-.373.459-.789.058-.6.086-1.636.086-3.027v-5.624c-.56,0-1.449-.014-2.166.029-.8.043-1.119.229-1.305.732a2.911,2.911,0,0,0-.129.33c-.028.115-.072.229-.172.229-.129,0-.129-.115-.115-.287.057-.589.215-1.363.316-1.908.029-.215.072-.358.158-.358a4.194,4.194,0,0,1,.488.115,11.126,11.126,0,0,0,1.592.1h6.24a5.973,5.973,0,0,0,.9-.057,3.7,3.7,0,0,1,.445-.086c.129,0,.143.086.143.444,0,.2-.086,1.535-.1,1.894-.014.2-.057.287-.144.287-.115,0-.143-.086-.158-.258s-.014-.215-.028-.287c-.057-.445-.273-.789-1.119-.847-.473-.043-1.219-.072-2.31-.072Z" transform="translate(-1307.192 -1127.34)" fill="#dbc29e"/>
      <path id="Path_314" data-name="Path 314" d="M1441.087,1132.967c0-2.869,1.923-5.667,6.14-5.667,3.644,0,5.925,2.439,5.925,5.351a5.659,5.659,0,0,1-6.025,5.9C1442.895,1138.547,1441.087,1135.506,1441.087,1132.967Zm9.2.316c0-2.381-.99-5.093-3.529-5.093-1.32,0-2.8.732-2.8,4.132,0,2.711,1.134,5.308,3.6,5.308C1448.447,1137.629,1450.283,1137.242,1450.283,1133.282Z" transform="translate(-1338.816 -1127.257)" fill="#dbc29e"/>
      <path id="Path_315" data-name="Path 315" d="M1492.711,1134.478c0-.115-.072-.115-.143-.115h-.545c-.33,0-.488.143-.746.488-.2.287-.7,1.133-.918,1.506-.8,1.406-1.076,1.75-1.492,2.037a4.747,4.747,0,0,1-2.711.531h-1.148c-.2,0-.316-.043-.316-.158,0-.057.072-.143.3-.143a2.4,2.4,0,0,0,.43-.043c.473-.057.818-.258,1.492-1.162.517-.689.932-1.363,1.464-2.052a4.875,4.875,0,0,1,1.32-1.377,3,3,0,0,1-2.166-2.854,2.808,2.808,0,0,1,1.55-2.5,6.187,6.187,0,0,1,2.826-.56c1.09,0,1.764.043,2.31.043.129,0,1.277-.043,1.894-.043.272,0,.344.057.344.144s-.057.144-.258.158c-.129.014-.3.014-.459.043-.373.072-.488.287-.531.746s-.043.846-.043,3.07v2.525c0,1.363,0,2.424.072,3.027.057.474.158.674.56.775a4.208,4.208,0,0,0,.631.072c.258,0,.287.072.287.143,0,.1-.086.143-.3.143-.99,0-2.425-.043-2.683-.043-.229,0-1.263.043-1.966.043-.287,0-.33-.072-.33-.158s.043-.129.3-.143a4.2,4.2,0,0,0,.445-.057c.287-.057.4-.33.445-.789.057-.6.086-1.506.086-2.869Zm0-5.308a.126.126,0,0,0-.072-.129,2.531,2.531,0,0,0-.617-.043c-.817,0-1.994.273-1.994,2.281a1.925,1.925,0,0,0,2.08,2.181,2.451,2.451,0,0,0,.474-.029c.086-.029.129-.158.129-.258Z" transform="translate(-1371.198 -1127.836)" fill="#dbc29e"/>
      <path id="Path_316" data-name="Path 316" d="M1544.685,1132.5c.043,0,.086-.029.086-.1v-.3c0-2.224,0-2.467-.028-2.927-.029-.416-.144-.66-.617-.76-.115-.014-.33-.029-.5-.043-.2,0-.273-.086-.273-.144,0-.086.072-.144.287-.144.832,0,2.123.043,2.267.043s1.779-.043,2.4-.043c.215,0,.287.057.287.144s-.072.144-.215.144c-.244.029-.33.029-.5.057-.373.057-.488.3-.531.76s-.029.832-.029,3.056v2.525c0,1.363,0,2.424.072,3.027.043.474.158.717.589.789.2.029.488.043.631.058.172,0,.244.072.244.143,0,.1-.115.143-.287.143-.99,0-2.439-.043-2.7-.043-.229,0-1.349.043-2.051.043-.258,0-.316-.072-.316-.158s.086-.129.273-.129a4.076,4.076,0,0,0,.445-.058c.344-.072.43-.344.473-.8.057-.6.086-1.506.086-2.869v-1.162a.083.083,0,0,0-.086-.086h-4.476a.076.076,0,0,0-.086.086v1.492c0,1.363.015,1.951.072,2.568.043.416.172.689.6.76.3.043.445.057.6.072s.272.043.272.143c0,.072-.072.143-.287.143-.818,0-2.511-.043-2.654-.043s-1.635.043-2.095.043c-.158,0-.316-.029-.316-.129s.057-.158.244-.158.258-.029.445-.058c.344-.043.473-.416.5-.846.043-.6.072-1.607.072-2.969v-2.5c0-2.224-.014-2.553-.043-3.012-.029-.5-.186-.775-.689-.846-.172-.029-.244-.029-.4-.043-.258-.015-.287-.086-.287-.158,0-.1.158-.129.316-.129.832,0,1.937.043,2.267.043.545,0,1.75-.043,2.367-.043.258,0,.3.057.3.144s-.086.144-.258.144a4.874,4.874,0,0,0-.5.057c-.387.086-.459.416-.488.832-.043.459-.043,1.047-.043,2.84v.3c0,.072.043.1.086.1Z" transform="translate(-1409.423 -1127.836)" fill="#dbc29e"/>
      <path id="Path_317" data-name="Path 317" d="M1593.375,1134.889c1.191-1.349,2.654-3.07,3.271-3.787.861-.99,1.463-1.679,2.224-2.539.975-1.09,1.277-1.262,1.506-1.262.172,0,.244.144.244,1.047.043,2.84,0,5.652.1,8.478.043.9.115,1.076.674,1.191.072.015.359.029.459.043.273.043.33.072.33.143,0,.129-.1.143-.33.143-.56,0-2.611-.029-2.955-.043-.6,0-1.277.043-1.808.043-.229,0-.344-.043-.344-.143s.1-.115.344-.143a3.235,3.235,0,0,0,.373-.043c.531-.057.588-.373.631-1.305.072-1.535.043-3.931.086-5.724-.459.545-.975,1.148-1.736,2.037-2.74,3.142-4.074,4.62-4.619,5.122-.445.43-.6.474-.7.474-.186,0-.244-.23-.244-.66,0-1.893.043-5.437-.015-8.349-.043-1.377,0-1.707-.645-1.793a3.269,3.269,0,0,0-.359-.029c-.172-.014-.258-.072-.258-.158s.072-.129.3-.129c.5,0,1.908.043,2.281.043.961-.014,1.923-.043,2.324-.043.244,0,.344.029.344.144,0,.072-.072.129-.3.144-.144,0-.33.014-.474.029-.56.072-.631.459-.66,1.607Z" transform="translate(-1449.108 -1127.257)" fill="#dbc29e"/>
      <path id="Path_318" data-name="Path 318" d="M1644.654,1131.993c0-2.338-.014-2.625-.043-3.085-.028-.416-.158-.66-.516-.746-.129-.029-.33-.029-.473-.043-.187-.014-.258-.072-.258-.158s.086-.129.316-.129c.818,0,1.506.043,2.137.043.3,0,3.816-.014,4.046-.014a5.061,5.061,0,0,0,.775-.057,1.051,1.051,0,0,1,.229-.057c.072,0,.086.057.086.129s-.029.215-.072.632c-.043.286-.072.789-.114,1.535,0,.115-.058.2-.144.2s-.129-.072-.143-.2a1.693,1.693,0,0,0-.072-.5c-.072-.33-.258-.516-.947-.574-.473-.043-1.721-.072-2.152-.072-.086,0-.115.043-.115.144v3.156c0,.1.014.172.115.172.4.014,1.564,0,2.08-.015.7-.029.89-.072,1.047-.33.086-.129.129-.187.2-.187s.086.086.086.172c0,.144-.072.66-.115,1.219-.014.33-.014,1.033-.014,1.19,0,.187-.043.273-.129.273s-.129-.1-.158-.23-.029-.215-.043-.33c-.057-.416-.258-.66-.961-.7-.4-.029-1.578-.058-2.023-.058-.072,0-.086.072-.086.187v.99c0,.488-.014,1.334,0,1.879.014,1,.215,1.234,1.808,1.234a3.97,3.97,0,0,0,1.334-.172c.4-.158.574-.474.7-1.133q.043-.258.172-.258c.115,0,.129.144.129.316a11.742,11.742,0,0,1-.23,1.922c-.1.373-.2.387-.731.387-1.98,0-3.056-.086-4.562-.086-.674,0-1.277.043-2.065.043-.258,0-.344-.043-.344-.143,0-.072.072-.143.287-.143a2.806,2.806,0,0,0,.43-.058c.4-.057.459-.6.487-1.506.029-.574.043-1.42.043-2.31Z" transform="translate(-1489.032 -1127.588)" fill="#dbc29e"/>
    </g>
  </g>
</svg>
