<svg xmlns="http://www.w3.org/2000/svg" width="50" height="59.071" viewBox="0 0 50 59.071">
  <g id="sec-4-3" transform="translate(-404.965 -996.101)">
    <g id="Group_119" data-name="Group 119" transform="translate(416.971 1003.444)">
      <path id="Path_208" data-name="Path 208" d="M432.949,1029.9a2.381,2.381,0,0,1-.648-4.672l.222-.063-.085-.214a2.382,2.382,0,0,1,2.055-3.244l.2-.013v-9.4l-.142-.049a2.527,2.527,0,0,1-1.581-1.59l-.056-.167-.175.027h-.019a2.4,2.4,0,0,0-1.6.54,9.765,9.765,0,0,1-4.589,2.145l-.174.03v.393l2.523,6.019h.316a.929.929,0,0,1,.662.278.948.948,0,0,1,.264.69,2.94,2.94,0,0,1-1.632,2.837,2.256,2.256,0,0,0-.546.359,1.641,1.641,0,0,1-.979.343h-2.538a1.7,1.7,0,0,1-1.092-.427,2.614,2.614,0,0,0-.414-.267,2.791,2.791,0,0,1-1.573-2.059c-.111-.726-.154-1.123.178-1.47a.933.933,0,0,1,.713-.286h.11l.114-.018.1-.111,2.469-5.892v-.245l-.2-.034a.662.662,0,0,1,0-1.323l.2-.005v-.541a.663.663,0,1,1,1.325,0v.418l.252-.052a8.275,8.275,0,0,0,3.653-1.8,3.661,3.661,0,0,1,2.362-.859l.191,0,.123-.02.041-.118a2.53,2.53,0,0,1,1.571-1.561l.142-.049v-.7a.662.662,0,1,1,1.324,0v.7l.142.049a2.529,2.529,0,0,1,1.57,1.56l.049.14h.3a3.761,3.761,0,0,1,2.576,1.027,7.641,7.641,0,0,0,3.508,1.641l.249.05v-.429a.663.663,0,1,1,1.325,0v.547l.511-.01a.662.662,0,1,1,.057,1.324c-.12.006-.24.007-.36.008h-.208v.25l.016.068,2.507,5.982h.316a.926.926,0,0,1,.925.963,2.927,2.927,0,0,1-1.63,2.841,3.8,3.8,0,0,0-.479.3,1.611,1.611,0,0,1-1.048.4h-2.538a1.677,1.677,0,0,1-1.083-.423,2.73,2.73,0,0,0-.424-.271,2.962,2.962,0,0,1-1.651-2.841v-.107a.95.95,0,0,1,.256-.58.936.936,0,0,1,.714-.286h.111l.114-.018.1-.111,2.469-5.892v-.381l-.175-.029a9.771,9.771,0,0,1-4.663-2.158,2.316,2.316,0,0,0-1.521-.543h-.1l-.174-.026-.043.169a2.529,2.529,0,0,1-1.581,1.59l-.142.049v9.4l.2.013a2.383,2.383,0,0,1,2.062,3.227l-.085.219.228.057a2.381,2.381,0,0,1-.586,4.689Zm0-3.437a1.056,1.056,0,1,0,0,2.111h4.879a1.056,1.056,0,0,0,0-2.111Zm1.706-3.437a1.056,1.056,0,1,0,0,2.111h1.392a1.056,1.056,0,1,0,0-2.111Zm9.025-.252a1.484,1.484,0,0,0,.576.064l.464,0c.325,0,.765-.01,1.37-.01h.129l.2.005.059-.051a4.1,4.1,0,0,1,.667-.445,1.568,1.568,0,0,0,.958-1.116l.049-.25H441.99l.05.25a1.58,1.58,0,0,0,.983,1.123l.075.04a2.889,2.889,0,0,1,.37.256.979.979,0,0,0,.2.13l0,.008.012.011Zm-19.358.015a1.719,1.719,0,0,0,.533.046l.46,0c.321,0,.756-.007,1.35-.007l.375.006.06-.05a4.328,4.328,0,0,1,.691-.466,1.536,1.536,0,0,0,.934-1.1l.05-.25h-6.167l.05.25a1.473,1.473,0,0,0,.816,1.036,2.223,2.223,0,0,1,.642.4.7.7,0,0,0,.145.11l.048.041Zm19-3.147h3.5l-1.749-4.172Zm-19.382,0h3.5l-1.748-4.172Zm11.408-10.964a1.187,1.187,0,1,0,1.188,1.188A1.189,1.189,0,0,0,435.351,1008.677Z" transform="translate(-421.263 -1006.069)" fill="#dbc29e"/>
    </g>
    <g id="Group_120" data-name="Group 120" transform="translate(422.189 1031.401)">
      <path id="Path_209" data-name="Path 209" d="M429.01,1045.345a.663.663,0,1,1,0-1.325h16.414a.663.663,0,1,1,0,1.325Z" transform="translate(-428.347 -1044.02)" fill="#dbc29e"/>
    </g>
    <g id="Group_121" data-name="Group 121" transform="translate(422.189 1035.06)">
      <path id="Path_210" data-name="Path 210" d="M429.01,1050.313a.663.663,0,1,1,0-1.325h16.414a.663.663,0,1,1,0,1.325Z" transform="translate(-428.347 -1048.988)" fill="#dbc29e"/>
    </g>
    <g id="Group_122" data-name="Group 122" transform="translate(422.189 1038.72)">
      <path id="Path_211" data-name="Path 211" d="M429.01,1055.282a.663.663,0,1,1,0-1.326h16.414a.663.663,0,0,1,0,1.326Z" transform="translate(-428.347 -1053.956)" fill="#dbc29e"/>
    </g>
    <g id="Group_123" data-name="Group 123" transform="translate(404.965 996.101)">
      <path id="Path_212" data-name="Path 212" d="M441.515,1055.172a.663.663,0,1,1,0-1.325h7.727v-6.791H420.527v3.788a1.037,1.037,0,0,1-1.036,1.033,1.025,1.025,0,0,1-.549-.162l-2.066-1.313-2.1,1.331a.992.992,0,0,1-.539.159,1.017,1.017,0,0,1-1.017-1.014v-3.823h-1.607c-1.961,0-2.038,0-2.063.005a3.452,3.452,0,0,0-2.561,1.356,3.251,3.251,0,0,0-.357,3.477,3.433,3.433,0,0,0,3.091,1.93l27.717.024a.663.663,0,0,1,0,1.325H409.73a4.812,4.812,0,0,1-4.765-4.731v-49.619a4.807,4.807,0,0,1,4.765-4.721h42.532a2.7,2.7,0,0,1,2.7,2.7v38.546a.662.662,0,1,1-1.324,0V998.8a1.379,1.379,0,0,0-1.378-1.377H410.674v5.287a.662.662,0,1,1-1.324,0v-5.274l-.247.047a3.45,3.45,0,0,0-2.312,1.6c-.555.913-.555.913-.517,13.511.021,6.974.053,17.513.016,34.127v.457l.346-.3a4.749,4.749,0,0,1,2.53-1.119l.184-.022v-38.961a.662.662,0,1,1,1.324,0v38.949h.209c.946,0,8.839.009,17.514.009,23.889,0,24.06-.054,24.142-.08a1.558,1.558,0,0,0,1.1-1.495v-2.748a.662.662,0,1,1,1.324,0v10.86a2.9,2.9,0,0,1-2.894,2.9Zm9.636-8.128c-.128,0-.258,0-.39.012l-.195.013v6.778h1.5a1.571,1.571,0,0,0,1.57-1.569v-5.662l-.3.148a3.013,3.013,0,0,1-1.411.294c-.126,0-.252,0-.378-.007S451.285,1047.044,451.151,1047.044Zm-34.274,2.021a1.907,1.907,0,0,1,1.124.484c.234.156.516.345.887.561l.314.183v-3.237h-4.65v3.236l.314-.183c.37-.215.652-.4.885-.56A1.911,1.911,0,0,1,416.877,1049.065Z" transform="translate(-404.965 -996.101)" fill="#dbc29e"/>
    </g>
  </g>
</svg>
