<svg id="sec-8-4" xmlns="http://www.w3.org/2000/svg" width="157.562" height="94.75" viewBox="0 0 157.562 94.75">
  <path id="Path_271" data-name="Path 271" d="M2815.48,817.893l-10.026-10.026-4.6,4.6,32.378,32.427-17.754,17.754-5.4-5.4,12.35-12.35L2785.4,807.867l-37.025,37.028L2785.4,881.92l10.026-10.027,10.027,10.027,4.508-4.509-32.288-32.516,17.753-17.754,5.4,5.4-12.35,12.352,37.026,37.025,37.026-37.027-37.026-37.026Zm-47.052,27L2790.8,867.27l-5.4,5.4-27.779-27.778,27.779-27.781,5.4,5.4Zm29.3,0,7.727-7.725,7.725,7.725-7.726,7.727Zm55.558,0-27.779,27.779-5.4-5.4,22.377-22.377L2820.1,822.516l5.4-5.4Z" transform="translate(-2726.854 -807.867)" fill="#dbc29e"/>
  <g id="Group_191" data-name="Group 191" transform="translate(0 86.494)">
    <path id="Path_272" data-name="Path 272" d="M2674.311,1149.37c-.011,2.176-.541,2.823-2.952,2.823h-3.634c-2.258,0-2.976-.694-2.976-2.881v-2.317c0-2.388.764-3.058,3.164-3.058h3.246c1.929,0,3.141.553,3.141,2.846h-1.953c0-.859-.435-1.223-1.564-1.223h-2.5c-1.306,0-1.576.223-1.576,1.505v2.023c0,1.246.459,1.482,1.576,1.482h2.5c1.165,0,1.564-.212,1.564-1.2Z" transform="translate(-2664.749 -1143.936)" fill="#dbc29e"/>
    <path id="Path_273" data-name="Path 273" d="M2712.714,1152.193h-3.587c-2.187,0-3.011-.812-3.011-2.787v-2.564c0-2.235.788-2.905,3.011-2.905h3.587c2.023,0,2.952.612,2.952,2.905v2.564C2715.666,1151.44,2715,1152.193,2712.714,1152.193Zm-3.117-1.623h2.587c1.247,0,1.529-.27,1.529-1.376v-2.176c0-1.188-.4-1.458-1.564-1.458h-2.517c-1.223,0-1.564.306-1.564,1.47v2.176C2708.068,1150.276,2708.409,1150.57,2709.6,1150.57Z" transform="translate(-2695.469 -1143.936)" fill="#dbc29e"/>
    <path id="Path_274" data-name="Path 274" d="M2751.166,1144.3l4.975,6.539h.271V1144.3h1.952v8.163h-3.352l-4.9-6.539h-.271v6.539h-1.952V1144.3Z" transform="translate(-2726.488 -1144.207)" fill="#dbc29e"/>
    <path id="Path_275" data-name="Path 275" d="M2802.271,1146.606h-1.952c0-.506-.177-.764-1-.764h-3.281c-.553,0-.941.223-.941.847,0,.741.4.835.941.835h3.564c1.8,0,2.67.188,2.67,2.458,0,1.729-.753,2.482-2.682,2.482h-3.94c-2.082,0-2.705-.741-2.705-2.317h1.952a.893.893,0,0,0,.964.776h3.27c.859,0,1.188-.283,1.188-.941,0-.588-.129-.917-1.247-.917h-2.893c-2.223,0-3.035-.388-3.035-2.458,0-1.646.847-2.305,3.023-2.305h3.317C2801.46,1144.3,2802.271,1145.03,2802.271,1146.606Z" transform="translate(-2759.951 -1144.207)" fill="#dbc29e"/>
    <path id="Path_276" data-name="Path 276" d="M2841.937,1144.3v1.623h-3.446v6.539h-1.952v-6.539h-3.411V1144.3Z" transform="translate(-2789.792 -1144.207)" fill="#dbc29e"/>
    <path id="Path_277" data-name="Path 277" d="M2878.212,1152.464v-1.27c0-.8-.423-1.153-1.552-1.153h-3.787v2.423h-1.953V1144.3h6.2c1.694,0,2.905.553,2.905,2.87a2.206,2.206,0,0,1-1.188,2.129c.812.27,1.329.588,1.329,1.47v1.694Zm-5.339-4.046h4.081c.835,0,1.117-.365,1.117-1.247,0-.859-.247-1.247-1.117-1.247h-4.081Z" transform="translate(-2817.858 -1144.207)" fill="#dbc29e"/>
    <path id="Path_278" data-name="Path 278" d="M2912.6,1144.3v5.069c0,1.129.459,1.47,1.506,1.47h2.693c.965,0,1.423-.365,1.423-1.482V1144.3h1.953v5.257c0,2.152-.812,2.905-2.917,2.905h-3.587c-2.059,0-3.023-.929-3.023-2.905V1144.3Z" transform="translate(-2847.363 -1144.207)" fill="#dbc29e"/>
    <path id="Path_279" data-name="Path 279" d="M2961.256,1149.37c-.012,2.176-.541,2.823-2.952,2.823h-3.634c-2.259,0-2.976-.694-2.976-2.881v-2.317c0-2.388.764-3.058,3.163-3.058h3.247c1.929,0,3.14.553,3.14,2.846h-1.952c0-.859-.435-1.223-1.564-1.223h-2.5c-1.306,0-1.577.223-1.577,1.505v2.023c0,1.246.459,1.482,1.577,1.482h2.5c1.165,0,1.564-.212,1.564-1.2Z" transform="translate(-2877.844 -1143.936)" fill="#dbc29e"/>
    <path id="Path_280" data-name="Path 280" d="M3001.244,1144.3v1.623H2997.8v6.539h-1.953v-6.539h-3.411V1144.3Z" transform="translate(-2908.099 -1144.207)" fill="#dbc29e"/>
    <path id="Path_281" data-name="Path 281" d="M3032.8,1152.464h-1.953V1144.3h1.953Z" transform="translate(-2936.626 -1144.207)" fill="#dbc29e"/>
    <path id="Path_282" data-name="Path 282" d="M3049.97,1152.193h-3.587c-2.187,0-3.011-.812-3.011-2.787v-2.564c0-2.235.788-2.905,3.011-2.905h3.587c2.023,0,2.952.612,2.952,2.905v2.564C3052.922,1151.44,3052.252,1152.193,3049.97,1152.193Zm-3.117-1.623h2.587c1.247,0,1.529-.27,1.529-1.376v-2.176c0-1.188-.4-1.458-1.564-1.458h-2.517c-1.223,0-1.564.306-1.564,1.47v2.176C3045.324,1150.276,3045.665,1150.57,3046.853,1150.57Z" transform="translate(-2945.926 -1143.936)" fill="#dbc29e"/>
    <path id="Path_283" data-name="Path 283" d="M3088.423,1144.3l4.975,6.539h.27V1144.3h1.953v8.163h-3.352l-4.9-6.539h-.271v6.539h-1.952V1144.3Z" transform="translate(-2976.946 -1144.207)" fill="#dbc29e"/>
    <path id="Path_284" data-name="Path 284" d="M3155.986,1146.606h-1.952c0-.506-.177-.764-1-.764h-3.281c-.553,0-.941.223-.941.847,0,.741.4.835.941.835h3.564c1.8,0,2.67.188,2.67,2.458,0,1.729-.753,2.482-2.682,2.482h-3.94c-2.082,0-2.705-.741-2.705-2.317h1.953a.893.893,0,0,0,.965.776h3.27c.858,0,1.188-.283,1.188-.941,0-.588-.13-.917-1.247-.917h-2.893c-2.223,0-3.034-.388-3.034-2.458,0-1.646.847-2.305,3.023-2.305h3.317C3155.175,1144.3,3155.986,1145.03,3155.986,1146.606Z" transform="translate(-3022.63 -1144.207)" fill="#dbc29e"/>
    <path id="Path_285" data-name="Path 285" d="M3187.454,1144.3h5.881c1.811,0,2.811.541,2.811,2.047,0,1.317-.353,1.6-1.011,1.811a1.665,1.665,0,0,1,1.329,1.906c0,1.752-.882,2.4-2.729,2.4h-6.281Zm1.952,3.305h3.987c.529,0,.8-.412.8-.953a.737.737,0,0,0-.812-.811h-3.976Zm0,3.317h3.917c1.047,0,1.188-.235,1.188-.953,0-.623-.106-.917-1.117-.917h-3.987Z" transform="translate(-3052.926 -1144.207)" fill="#dbc29e"/>
    <path id="Path_286" data-name="Path 286" d="M3230.865,1144.3l2.705,6.539h.118l2.705-6.539h3.634v8.163h-1.952v-6.539h-.259l-2.8,6.539h-2.776l-2.8-6.539h-.259v6.539h-1.952V1144.3Z" transform="translate(-3082.466 -1144.207)" fill="#dbc29e"/>
  </g>
</svg>
