<svg id="sec-8-3" xmlns="http://www.w3.org/2000/svg" width="134.733" height="98.761" viewBox="0 0 134.733 98.761">
  <g id="Group_203" data-name="Group 203" transform="translate(20.043 27.535)">
    <path id="Path_319" data-name="Path 319" d="M2158.119,938.477a39.154,39.154,0,0,1-18.989-6.971,10.3,10.3,0,1,0-9.638-9.66,39.15,39.15,0,0,1-6.969-18.966,3.967,3.967,0,0,0-3.95-3.608h0a3.972,3.972,0,0,0-3.959,4.323,47.321,47.321,0,0,0,42.791,42.791,3.971,3.971,0,0,0,4.323-3.958h0A3.967,3.967,0,0,0,2158.119,938.477Z" transform="translate(-2067.109 -899.272)" fill="#dbc29e"/>
    <path id="Path_320" data-name="Path 320" d="M1973.24,899.273h0a3.958,3.958,0,0,0-3.949,3.587,39.107,39.107,0,0,1-5.475,16.7,10.3,10.3,0,1,0-10.377,11.394,39.163,39.163,0,0,1-19.761,7.523,3.961,3.961,0,0,0-3.594,3.949h0a3.972,3.972,0,0,0,4.323,3.959A47.322,47.322,0,0,0,1977.2,903.6,3.972,3.972,0,0,0,1973.24,899.273Z" transform="translate(-1930.084 -899.273)" fill="#dbc29e"/>
  </g>
  <path id="Path_321" data-name="Path 321" d="M2080.41,792.284l2.8,8.608h9.051l-7.323,5.32,2.8,8.608-7.323-5.32-7.323,5.32,2.8-8.608-7.323-5.32h9.051Z" transform="translate(-2012.879 -792.284)" fill="#dbc29e"/>
  <g id="Group_204" data-name="Group 204" transform="translate(0 86.194)">
    <path id="Path_322" data-name="Path 322" d="M1863.241,1134.765c0,1.363,0,2.424.072,3.027.057.474.158.717.588.789.2.029.488.043.631.058.187,0,.258.072.258.143,0,.1-.129.143-.3.143-.976,0-2.439-.043-2.682-.043s-1.363.043-2.066.043c-.258,0-.3-.072-.3-.158s.072-.129.258-.129a4.072,4.072,0,0,0,.445-.058c.344-.072.43-.344.473-.8.057-.6.086-1.506.086-2.869v-5.624a.1.1,0,0,0-.086-.1c-.258-.029-1.09-.043-2.267-.043-1.478,0-1.937.014-2.066.029a.123.123,0,0,0-.115.115v5.953c0,1.363.014,1.951.072,2.568.043.416.129.689.56.76.287.043.488.057.646.072s.273.043.273.143c0,.072-.072.143-.287.143-.818,0-2.51-.043-2.654-.043s-1.635.043-2.095.043c-.157,0-.316-.029-.316-.129s.057-.143.244-.158c.143-.014.287-.029.459-.058.344-.043.459-.416.488-.846.043-.6.072-1.607.072-2.969v-2.5c0-2.238-.015-2.654-.043-3.113-.029-.416-.158-.674-.574-.746-.187-.029-.359-.029-.517-.043-.244-.015-.287-.1-.287-.158,0-.1.158-.129.316-.129.818,0,1.936.043,2.238.043h7.044c.072,0,1.807-.043,2.4-.043.273,0,.316.057.316.144s-.014.129-.244.144a4.481,4.481,0,0,0-.474.057c-.373.057-.473.287-.516.818-.043.459-.043.76-.043,3Z" transform="translate(-1852.209 -1127.851)" fill="#dbc29e"/>
    <path id="Path_323" data-name="Path 323" d="M1904.153,1132.967c0-2.869,1.923-5.667,6.14-5.667,3.644,0,5.925,2.439,5.925,5.351a5.659,5.659,0,0,1-6.025,5.9C1905.961,1138.547,1904.153,1135.506,1904.153,1132.967Zm9.2.316c0-2.381-.99-5.093-3.529-5.093-1.32,0-2.8.732-2.8,4.132,0,2.711,1.133,5.308,3.6,5.308C1911.513,1137.629,1913.349,1137.242,1913.349,1133.282Z" transform="translate(-1890.784 -1127.272)" fill="#dbc29e"/>
    <path id="Path_324" data-name="Path 324" d="M1958.757,1129.037v3.156c0,.071.014.086.072.086.272,0,.072-.015.287-.015a8.291,8.291,0,0,1,3.715.617,2.758,2.758,0,0,1,1.578,2.51c0,1.75-1.291,3.314-4.418,3.314-.517,0-2.31-.072-2.64-.072-.215,0-1.535.043-1.98.043-.229,0-.358-.029-.358-.143s.158-.129.315-.143a3.046,3.046,0,0,0,.459-.058c.287-.071.373-.387.416-.8.057-.6.086-1.549.086-3.012v-2.525c0-2.238,0-2.64-.043-3.1-.029-.416-.158-.646-.5-.7a4.609,4.609,0,0,0-.545-.072c-.186,0-.244-.057-.244-.144s.072-.144.33-.144c.818,0,1.549.043,2.109.043l5.093-.014a3.618,3.618,0,0,0,.775-.057,1.141,1.141,0,0,1,.244-.057c.072,0,.086.057.086.129s-.043.287-.086.646c-.043.445-.072.99-.1,1.478-.014.186-.043.244-.129.244s-.143-.1-.158-.229a1.843,1.843,0,0,0-.1-.559c-.1-.316-.3-.445-.961-.5-.545-.029-2.74-.057-3.2-.057C1958.771,1128.894,1958.757,1128.937,1958.757,1129.037Zm0,5.379c0,.789,0,2.095.043,2.712a.676.676,0,0,0,.359.545,2.07,2.07,0,0,0,.861.2c.947,0,1.722-.617,1.722-1.994a2.67,2.67,0,0,0-.789-2.166,2.8,2.8,0,0,0-2.109-.645c-.058,0-.086.029-.086.1Z" transform="translate(-1928.511 -1127.603)" fill="#dbc29e"/>
    <path id="Path_325" data-name="Path 325" d="M1996.826,1131.993c0-2.338-.015-2.625-.043-3.085-.029-.416-.158-.66-.516-.746-.129-.029-.33-.029-.473-.043-.187-.014-.259-.072-.259-.158s.086-.129.316-.129c.818,0,1.506.043,2.137.043.3,0,3.816-.014,4.046-.014a5.054,5.054,0,0,0,.775-.057,1.053,1.053,0,0,1,.23-.057c.071,0,.086.057.086.129s-.029.215-.072.632c-.043.286-.072.789-.115,1.535,0,.115-.057.2-.143.2s-.129-.072-.143-.2a1.693,1.693,0,0,0-.072-.5c-.072-.33-.258-.516-.947-.574-.474-.043-1.722-.072-2.152-.072-.086,0-.115.043-.115.144v3.156c0,.1.014.172.115.172.4.014,1.564,0,2.08-.015.7-.029.889-.072,1.047-.33.086-.129.129-.187.2-.187s.086.086.086.172c0,.144-.072.66-.115,1.219-.014.33-.014,1.033-.014,1.19,0,.187-.043.273-.129.273s-.129-.1-.158-.23-.029-.215-.043-.33c-.057-.416-.258-.66-.961-.7-.4-.029-1.578-.058-2.023-.058-.072,0-.086.072-.086.187v.99c0,.488-.014,1.334,0,1.879.014,1,.215,1.234,1.807,1.234a3.972,3.972,0,0,0,1.334-.172c.4-.158.574-.474.7-1.133q.043-.258.172-.258c.115,0,.129.144.129.316a11.743,11.743,0,0,1-.229,1.922c-.1.373-.2.387-.732.387-1.98,0-3.056-.086-4.562-.086-.674,0-1.277.043-2.066.043-.258,0-.344-.043-.344-.143,0-.072.072-.143.287-.143a2.8,2.8,0,0,0,.43-.058c.4-.057.459-.6.488-1.506.029-.574.043-1.42.043-2.31Z" transform="translate(-1958.647 -1127.603)" fill="#dbc29e"/>
    <path id="Path_326" data-name="Path 326" d="M2033.493,1138.3c-.731,0-1.406.029-1.736.043-1.148.043-1.32.416-1.392,1.162-.015.186-.043.33-.158.33-.086,0-.158-.043-.158-.373-.014-1.162-.1-1.994-.1-2.3,0-.144.057-.144.144-.144a7.318,7.318,0,0,0,1.062.072c.115,0,.172-.057.258-.229l3.558-8.693c.316-.718.43-.875.617-.875.158,0,.259.244.387.488.488,1.076,2.668,6.369,3.859,9.066a.335.335,0,0,0,.316.23,7.366,7.366,0,0,0,1.392-.1c.129-.028.172.015.129.215a15.16,15.16,0,0,0-.244,2.3c0,.273-.072.344-.158.344-.115,0-.158-.143-.158-.344-.043-.76-.359-1.061-1.148-1.119-.545-.043-1.076-.072-1.807-.072Zm1.994-1.119a10.746,10.746,0,0,0,1.506-.043c.086-.014.1-.057.043-.186-.6-1.535-1.348-3.515-2.137-5.466-.029-.057-.057-.057-.086,0-1.822,4.978-2.051,5.437-2.051,5.552,0,.086.057.086.129.1a14,14,0,0,0,1.578.043Z" transform="translate(-1984.205 -1127.272)" fill="#dbc29e"/>
    <path id="Path_327" data-name="Path 327" d="M2079.279,1135.294c-.072,0-.1.029-.129.1l-.445,1.176a3.213,3.213,0,0,0-.229.918c0,.273.129.4.43.43.158.029.387.043.5.058.215,0,.258.072.258.143,0,.115-.115.143-.3.143-.646,0-1.133-.043-1.894-.043-.157,0-1.1.043-1.822.043-.2,0-.287-.057-.287-.143,0-.115.1-.143.273-.143a3.939,3.939,0,0,0,.459-.058c.5-.1.789-.545,1.09-1.234l3.831-8.665c.273-.617.431-.832.588-.832s.273.2.516.717c.373.8,2.783,6.3,3.759,8.478.488,1.119.8,1.463,1.306,1.535a2.847,2.847,0,0,0,.459.058c.187,0,.272.057.272.143s-.1.143-.373.143c-1.406,0-3.041-.028-3.959-.043-.229,0-.316-.043-.316-.129s.072-.143.2-.172c.158-.029.215-.129.172-.258l-.961-2.281a.12.12,0,0,0-.115-.086Zm2.869-1.148c.086,0,.086-.043.072-.072l-1.262-3.07c-.043-.1-.072-.072-.1,0l-1.219,3.07c-.014.043.015.072.057.072Z" transform="translate(-2017.93 -1127.189)" fill="#dbc29e"/>
    <path id="Path_328" data-name="Path 328" d="M2139.913,1135.693a2.2,2.2,0,0,0,.5.961,3.383,3.383,0,0,0,2.568.818c2.525,0,3.759-1.306,3.773-4.131a.116.116,0,0,0-.115-.129c-.5-.043-3.084-.029-3.543.015-.8.043-.976.186-1.076.875-.029.187-.072.258-.158.258s-.129-.1-.129-.3c0-.172.057-1.148.057-1.478v-.875c0-.115.043-.2.129-.2s.1.043.158.187c.086.287.187.444,1.048.474.545.014,3.084.028,3.472.028.086,0,.115-.028.115-.129a4.236,4.236,0,0,0-1.248-3.013,3.64,3.64,0,0,0-2.382-.846,3.144,3.144,0,0,0-2.453.732,2.3,2.3,0,0,0-.559,1.549c-.015.23-.057.316-.172.316s-.143-.129-.158-.316c-.029-.359-.029-1.219-.057-1.693s-.072-.8-.072-.918a.207.207,0,0,1,.215-.2c.431-.057.846-.129,1.349-.2a16.42,16.42,0,0,1,2.18-.172,6.852,6.852,0,0,1,4.62,1.392,4.985,4.985,0,0,1,1.635,3.9,5.454,5.454,0,0,1-1.822,4.375,7.67,7.67,0,0,1-5.179,1.578,6.826,6.826,0,0,1-2.353-.33.483.483,0,0,1-.373-.416c-.143-.89-.315-1.994-.315-2.252,0-.115.029-.23.115-.23S2139.842,1135.391,2139.913,1135.693Z" transform="translate(-2065.612 -1127.272)" fill="#dbc29e"/>
    <path id="Path_329" data-name="Path 329" d="M2185.979,1133.1c.789-.732,1.965-1.965,3.1-3.242.474-.545.746-.947.746-1.177,0-.158-.057-.244-.4-.315-.129-.015-.244-.043-.244-.144,0-.072.072-.129.23-.129.646,0,.7.029,1.521.029s1.879-.029,2.066-.029c.243,0,.3.029.3.129,0,.072-.072.129-.258.144a4.277,4.277,0,0,0-.516.086,3.817,3.817,0,0,0-1.851,1.234c-.66.631-2.281,2.31-2.654,2.711a54.791,54.791,0,0,0,3.887,4.748,6.471,6.471,0,0,0,1.507,1.306,2.092,2.092,0,0,0,.66.187c.2.014.3.043.3.158s-.129.129-.287.129h-1.406c-1.894,0-2.553-.186-3.285-.99a48.51,48.51,0,0,1-3.415-4.433v1.262c0,1.119.014,2.424.072,3.027.029.358.129.717.617.789.2.029.43.043.617.058s.244.072.244.143-.057.143-.273.143c-.946,0-2.482-.043-2.61-.043-.072,0-1.708.043-2.181.043-.187,0-.287-.029-.287-.143s.1-.143.258-.143.287-.014.445-.043c.445-.072.488-.416.531-.832.057-.6.086-1.607.086-3v-2.525c0-2.224,0-2.625-.043-3.085-.029-.4-.186-.66-.531-.732a4.711,4.711,0,0,0-.545-.057c-.187,0-.3-.029-.3-.158,0-.086.115-.129.387-.129.617,0,2.081.043,2.181.043.129,0,1.865-.043,2.381-.043.244,0,.3.057.3.129,0,.1-.072.144-.258.158-.129.014-.215.014-.43.043-.5.071-.588.4-.617.861s-.043.746-.043,2.97Z" transform="translate(-2097.179 -1127.851)" fill="#dbc29e"/>
    <path id="Path_330" data-name="Path 330" d="M2228.26,1136.969a5.194,5.194,0,0,1-1.807-4.218,5.3,5.3,0,0,1,1.779-3.974,6.788,6.788,0,0,1,4.749-1.478,12.885,12.885,0,0,1,2.037.172,11.713,11.713,0,0,0,1.42.187c.157.014.157.1.157.186,0,.115-.043.459-.072.947s-.014,1.32-.043,1.678c-.015.215-.043.344-.172.344s-.158-.1-.172-.3a2.137,2.137,0,0,0-.545-1.406,4.017,4.017,0,0,0-2.9-.9,3.067,3.067,0,0,0-2.109.689,4.725,4.725,0,0,0-1.262,3.629c0,2.955,1.606,4.935,4.017,4.935,1.177,0,1.908-.1,2.468-.732a2.224,2.224,0,0,0,.473-.961c.072-.3.115-.4.229-.4s.115.144.115.258a20.125,20.125,0,0,1-.315,2.181.468.468,0,0,1-.373.416,7.552,7.552,0,0,1-2.468.33A7.767,7.767,0,0,1,2228.26,1136.969Z" transform="translate(-2130.134 -1127.272)" fill="#dbc29e"/>
    <path id="Path_331" data-name="Path 331" d="M2282.612,1136.413c.115.932.258,1.291.731,1.434a4.113,4.113,0,0,0,.818.129c.186,0,.273.043.273.143s-.115.143-.344.143c-1.191,0-2.353,0-3.988-.086-.272-.015-.33-.1-.33-.172s.058-.115.158-.143c.23-.086.244-.172.187-.818l-.516-5.136-2.956,5.537c-.387.732-.473.818-.588.818-.157,0-.243-.143-.645-.775-.5-.8-1.377-2.439-1.923-3.357-.244-.416-.875-1.592-1.148-2.08l-.416,4.046a10.963,10.963,0,0,0-.058,1.148c0,.416.144.588.5.66a3.863,3.863,0,0,0,.53.072c.216,0,.259.043.259.129,0,.115-.057.158-.287.158-.631,0-1.42-.043-1.851-.043s-1.119.043-1.65.043c-.143,0-.315,0-.315-.143,0-.086.086-.143.287-.143.115-.014.273-.014.431-.043.416-.086.559-.416.7-1.363l1.305-8.823c.058-.43.158-.56.3-.56s.258.143.56.588l4.1,6.872,3.931-6.943c.23-.373.344-.516.488-.516s.229.2.272.56Z" transform="translate(-2161.772 -1127.189)" fill="#dbc29e"/>
    <path id="Path_332" data-name="Path 332" d="M2328.836,1132.967c0-2.869,1.922-5.667,6.14-5.667,3.644,0,5.925,2.439,5.925,5.351a5.659,5.659,0,0,1-6.025,5.9C2330.644,1138.547,2328.836,1135.506,2328.836,1132.967Zm9.2.316c0-2.381-.99-5.093-3.529-5.093-1.32,0-2.8.732-2.8,4.132,0,2.711,1.133,5.308,3.6,5.308C2336.2,1137.629,2338.031,1137.242,2338.031,1133.282Z" transform="translate(-2206.167 -1127.272)" fill="#dbc29e"/>
  </g>
</svg>
