<svg xmlns="http://www.w3.org/2000/svg" width="60" height="59.239" viewBox="0 0 60 59.239">
  <g id="sec-4-2" transform="translate(-279.532 -988.849)">
    <g id="Group_116" data-name="Group 116" transform="translate(279.532 1008.646)">
      <path id="Path_206" data-name="Path 206" d="M311.424,1057.513a2.914,2.914,0,0,1-1.484-.407l-2.47-1.463-.1.129a2.922,2.922,0,0,1-5.017-.837l-.07-.2-.189.085a2.956,2.956,0,0,1-1.211.26A2.918,2.918,0,0,1,298,1052.6l-.03-.2-.194.035a2.927,2.927,0,0,1-.516.046,2.919,2.919,0,0,1-2.882-2.482l-.03-.2-.194.035a2.938,2.938,0,0,1-.516.046,2.921,2.921,0,0,1-2.366-4.625l1.021-1.421-.637-.375-.1.156a2.573,2.573,0,0,1-3.487.821l-6.928-4.129a3.314,3.314,0,0,1-1.609-2.833v-17.711a1.7,1.7,0,0,1,1.7-1.7,1.675,1.675,0,0,1,.864.241l15.866,9.458a2.567,2.567,0,0,1,1.224,2.626l-.02.129.72.424a3.161,3.161,0,0,0,2.771.232l1.82-.7a5.283,5.283,0,0,1,1.923-.418,6.1,6.1,0,0,1,3.005,1.046l.077.043.083-.029c.111-.039.226-.073.342-.1l3.144-.8a4.033,4.033,0,0,1,.983-.123,3.955,3.955,0,0,1,1.455.278l2.053.806a3.158,3.158,0,0,0,2.368-.032l.171-.072-.066-.174a2.572,2.572,0,0,1,1.087-3.135l15.866-9.458a1.671,1.671,0,0,1,.865-.242,1.7,1.7,0,0,1,1.7,1.7v17.711a3.314,3.314,0,0,1-1.609,2.833l-1.673,1a.69.69,0,0,1-.353.1h0a.7.7,0,0,1-.6-.338.691.691,0,0,1,.24-.949l1.672-1a1.92,1.92,0,0,0,.934-1.643v-17.711a.311.311,0,0,0-.31-.311h-.052l-.107.044-15.867,9.458a1.193,1.193,0,0,0-.415,1.63c2.52,4.211,7.315,12.234,7.434,12.461l.008.07.035-.012a1.19,1.19,0,0,0,1.413.143l1.675-1a.693.693,0,0,1,.709,1.19l-1.675,1a2.574,2.574,0,0,1-3.147-.4l-.1-.106-1.242.725.154.176a2.92,2.92,0,0,1-2.2,4.853,2.881,2.881,0,0,1-1.131-.229l-.245-.1-.021.266a2.927,2.927,0,0,1-2.19,2.6,2.977,2.977,0,0,1-.73.092,2.846,2.846,0,0,1-.774-.106l-.231-.064-.012.24a2.919,2.919,0,0,1-4.408,2.366l-.353-.209-.026.3a2.9,2.9,0,0,1-.4,1.23A2.936,2.936,0,0,1,311.424,1057.513Zm-7.882-11.968a2.923,2.923,0,0,1,2.707,4.01l-.092.228.243.035a2.888,2.888,0,0,1,1.282.517,2.94,2.94,0,0,1,.714,4.01l-.115.169,2.366,1.4a1.536,1.536,0,0,0,1.568-2.642l-1.832-1.086a.692.692,0,0,1,.354-1.288.684.684,0,0,1,.352.1l4.336,2.569a1.54,1.54,0,0,0,.781.215,1.537,1.537,0,0,0,.785-2.858l-4.668-2.766a.691.691,0,0,1-.243-.948.693.693,0,0,1,.949-.243l4.715,2.791,1.625.965a1.536,1.536,0,0,0,1.567-2.643l-6.337-3.755a.692.692,0,1,1,.706-1.191l8.38,4.965a1.536,1.536,0,0,0,1.566-2.643.733.733,0,0,1-.089-.062c-.087-.045-.119-.06-.15-.079l-12.529-7.419-.073.23a3.939,3.939,0,0,1-3.746,2.732,1.771,1.771,0,0,1-1.769-1.77v-4.2a3.982,3.982,0,0,1,1.063-2.714l.176-.19-.233-.113a3.412,3.412,0,0,0-1.522-.425,3.825,3.825,0,0,0-1.4.324l-1.82.7a4.539,4.539,0,0,1-3.975-.331l-.61-.358-6.213,10.488.894.528.1-.062a2.928,2.928,0,0,1,1.56-.448,2.915,2.915,0,0,1,2.568,1.538l.127.237.183-.2a2.885,2.885,0,0,1,1.656-.884,3.04,3.04,0,0,1,.48-.039,2.921,2.921,0,0,1,2.88,2.485l.03.2.194-.034A2.9,2.9,0,0,1,303.542,1045.545Zm2.438,5.626a1.543,1.543,0,0,0-1.248.637l-.881,1.228a1.535,1.535,0,1,0,2.492,1.794l.883-1.23a1.535,1.535,0,0,0-1.246-2.43Zm-2.44-4.242a1.539,1.539,0,0,0-1.249.64l-2.653,3.694a1.539,1.539,0,0,0,.35,2.146,1.524,1.524,0,0,0,.892.288,1.5,1.5,0,0,0,.252-.021,1.521,1.521,0,0,0,1-.62l2.655-3.7a1.535,1.535,0,0,0-1.246-2.43Zm-3.619-2.6a1.453,1.453,0,0,0-.253.022,1.522,1.522,0,0,0-1,.619l-2.655,3.7a1.535,1.535,0,0,0,2.494,1.79l2.655-3.7a1.536,1.536,0,0,0-1.245-2.432Zm-5.013-.657a1.533,1.533,0,0,0-1.051.414.808.808,0,0,1-.07.072,1.553,1.553,0,0,0-.127.154l-1.261,1.758a1.535,1.535,0,0,0,2.494,1.79l1.259-1.755a1.534,1.534,0,0,0-1.243-2.433Zm16.995-7.621a.689.689,0,0,1,.353.1l13.012,7.706.1-.081a4.416,4.416,0,0,1,.489-.335l1.144-.668-6.219-10.5-.158.075a4.5,4.5,0,0,1-1.934.434,4.573,4.573,0,0,1-1.654-.31l-2.056-.807a2.585,2.585,0,0,0-1.592-.1l-3.145.8a2.608,2.608,0,0,0-.446.157.9.9,0,0,1-.106.052,2.6,2.6,0,0,0-1.415,2.318v4.2a.388.388,0,0,0,.377.385h0a2.548,2.548,0,0,0,2.553-2.547v-.178a.692.692,0,0,1,.35-.6A.7.7,0,0,1,311.9,1036.052ZM281.075,1019.5a.3.3,0,0,0-.159.27v17.711a1.919,1.919,0,0,0,.934,1.643l6.928,4.13a1.192,1.192,0,0,0,1.635-.417l7.255-12.246a1.192,1.192,0,0,0-.415-1.63l-15.911-9.485-.112-.018h-.05Z" transform="translate(-279.532 -1018.07)" fill="#dbc29e"/>
    </g>
    <g id="Group_117" data-name="Group 117" transform="translate(296.255 988.849)">
      <path id="Path_207" data-name="Path 207" d="M307.354,1011.513a3.142,3.142,0,0,1-3.138-3.138v-1.283a.692.692,0,1,1,1.385,0v1.283a1.755,1.755,0,0,0,1.753,1.753h20.278a1.755,1.755,0,0,0,1.753-1.753v-7.492l-.32.286a5.112,5.112,0,0,1-3.419,1.31h-.884v1.165a.692.692,0,0,1-1.385,0v-1.165h-11.77v1.165a.692.692,0,1,1-1.384,0v-1.165h-.885a5.109,5.109,0,0,1-3.418-1.31l-.32-.286v2.073a.692.692,0,1,1-1.385,0V996.31a3.141,3.141,0,0,1,3.137-3.138h5.074v-1.593a2.733,2.733,0,0,1,2.729-2.73h4.673a2.733,2.733,0,0,1,2.73,2.73v1.593h5.074a3.142,3.142,0,0,1,3.137,3.138v12.065a3.142,3.142,0,0,1-3.137,3.138Zm16.716-12.276a.693.693,0,0,1,.692.692v1.165h.885a3.742,3.742,0,0,0,3.738-3.738V996.31a1.754,1.754,0,0,0-1.753-1.753H307.354a1.755,1.755,0,0,0-1.753,1.753v1.047a3.742,3.742,0,0,0,3.739,3.738h.884V999.93a.692.692,0,0,1,1.385,0v1.165h11.769V999.93A.694.694,0,0,1,324.07,999.237Zm-8.914-9a1.346,1.346,0,0,0-1.344,1.344v1.593h7.361v-1.593a1.346,1.346,0,0,0-1.344-1.344Z" transform="translate(-304.216 -988.849)" fill="#dbc29e"/>
    </g>
  </g>
</svg>
