<svg xmlns="http://www.w3.org/2000/svg" width="52.348" height="60.519" viewBox="0 0 52.348 60.519">
  <g id="sec-4-5" transform="translate(-668.734 -987.719)">
    <g id="Group_138" data-name="Group 138" transform="translate(668.734 987.719)">
      <path id="Path_224" data-name="Path 224" d="M681.627,1048.238a4.669,4.669,0,0,1-4.72-4.719v-43.3h-8.173v-7.784a4.67,4.67,0,0,1,4.72-4.72h37.8a4.669,4.669,0,0,1,4.72,4.72V1038.8h5.108v4.718a4.669,4.669,0,0,1-4.72,4.719Zm4.72-4.719a4.431,4.431,0,0,1-.94,2.827l-.487.627h31.443a3.417,3.417,0,0,0,3.453-3.454v-3.453H686.346Zm-9.129-53.93a5.071,5.071,0,0,1,.956,2.85v51.08a3.454,3.454,0,1,0,6.908,0V1038.8h29.627V992.439a3.417,3.417,0,0,0-3.453-3.454H676.814Zm-3.763-.6A3.417,3.417,0,0,0,670,992.439v6.518h6.906v-6.518A3.417,3.417,0,0,0,673.454,988.984Z" transform="translate(-668.734 -987.719)" fill="#dbc29e"/>
    </g>
    <g id="Group_139" data-name="Group 139" transform="translate(704.491 1020.411)">
      <rect id="Rectangle_32" data-name="Rectangle 32" width="7.396" height="1.265" fill="#dbc29e"/>
    </g>
    <g id="Group_140" data-name="Group 140" transform="translate(680.994 1020.411)">
      <rect id="Rectangle_33" data-name="Rectangle 33" width="20.677" height="1.265" fill="#dbc29e"/>
    </g>
    <g id="Group_141" data-name="Group 141" transform="translate(692.232 1024.498)">
      <rect id="Rectangle_34" data-name="Rectangle 34" width="19.655" height="1.265" fill="#dbc29e"/>
    </g>
    <g id="Group_142" data-name="Group 142" transform="translate(680.994 1024.498)">
      <rect id="Rectangle_35" data-name="Rectangle 35" width="8.417" height="1.265" fill="#dbc29e"/>
    </g>
    <g id="Group_143" data-name="Group 143" transform="translate(699.383 1032.671)">
      <rect id="Rectangle_36" data-name="Rectangle 36" width="12.504" height="1.265" transform="translate(0 0)" fill="#dbc29e"/>
    </g>
    <g id="Group_144" data-name="Group 144" transform="translate(680.994 1032.671)">
      <rect id="Rectangle_37" data-name="Rectangle 37" width="15.569" height="1.265" transform="translate(0 0)" fill="#dbc29e"/>
    </g>
    <g id="Group_145" data-name="Group 145" transform="translate(689.167 991.825)">
      <path id="Path_225" data-name="Path 225" d="M704.294,1009.731a13.027,13.027,0,0,1-5.752-10.71v-3.09l6.763-2.222,6.762,2.222v3.09a13.028,13.028,0,0,1-5.752,10.71l-1.01.674Zm.851-.922h.381l.1-.067a11.739,11.739,0,0,0,5.176-9.721V996.8l-5.5-1.869-5.5,1.869v2.117a11.475,11.475,0,0,0,5.149,9.7Z" transform="translate(-698.542 -993.709)" fill="#dbc29e"/>
    </g>
    <g id="Group_146" data-name="Group 146" transform="translate(694.919 997.868)">
      <path id="Path_226" data-name="Path 226" d="M706.934,1006.585a6.682,6.682,0,0,0,2.362-4.061l1.282.128a7.966,7.966,0,0,1-2.945,5.012Z" transform="translate(-706.934 -1002.524)" fill="#dbc29e"/>
    </g>
    <g id="Group_147" data-name="Group 147" transform="translate(687.124 1028.584)">
      <rect id="Rectangle_38" data-name="Rectangle 38" width="24.763" height="1.266" fill="#dbc29e"/>
    </g>
    <g id="Group_148" data-name="Group 148" transform="translate(680.994 1028.584)">
      <rect id="Rectangle_39" data-name="Rectangle 39" width="3.309" height="1.266" fill="#dbc29e"/>
    </g>
    <g id="Group_149" data-name="Group 149" transform="translate(692.232 1016.325)">
      <rect id="Rectangle_40" data-name="Rectangle 40" width="19.655" height="1.265" fill="#dbc29e"/>
    </g>
    <g id="Group_150" data-name="Group 150" transform="translate(680.994 1016.325)">
      <rect id="Rectangle_41" data-name="Rectangle 41" width="8.417" height="1.265" fill="#dbc29e"/>
    </g>
    <g id="Group_151" data-name="Group 151" transform="translate(689.167 1011.216)">
      <rect id="Rectangle_42" data-name="Rectangle 42" width="13.525" height="1.265" fill="#dbc29e"/>
    </g>
  </g>
</svg>
