<svg xmlns="http://www.w3.org/2000/svg" width="42.633" height="42.634" viewBox="0 0 42.633 42.634">
  <path id="sec-3-2" d="M482.538,1382.813a.689.689,0,0,1-.688-.688v-2.75a.688.688,0,0,1,.688-.687h.986l1.863-3.1a.692.692,0,0,1,.589-.333h7.564v-1.375a.657.657,0,0,1-.168-.021.686.686,0,0,1-.5-.833l.688-2.751a.686.686,0,0,1,.667-.521H495.6v-11.69h-.688a.688.688,0,0,1-.688-.688v-2.888a7.545,7.545,0,0,1-3.128-2.981l-4.274,1.036a.7.7,0,0,1-.162.019h-3.14l4.309,11.69h.206a.688.688,0,0,1,.688.688,6.189,6.189,0,0,1-12.377,0,.688.688,0,0,1,.688-.687h.206l4.309-11.69h-1.765a2.063,2.063,0,1,1,0-4.126h6.794l3.529-.855a7.559,7.559,0,0,1,14.2-3.442l4.882-1.184a.7.7,0,0,1,.162-.02h6.189a2.063,2.063,0,0,1,0,4.126H513.78l4.309,11.69h.206a.688.688,0,0,1,.688.688,6.189,6.189,0,1,1-12.378,0,.689.689,0,0,1,.688-.688h.206l4.309-11.69h-2.37l-4.225,1.022a7.579,7.579,0,0,1-4.109,6.4v2.9a.689.689,0,0,1-.688.688h-.688v11.69H501.1a.687.687,0,0,1,.667.521l.688,2.751a.688.688,0,0,1-.667.854v1.375h7.564a.691.691,0,0,1,.589.334l1.863,3.1h.986a.688.688,0,0,1,.688.688v2.75a.688.688,0,0,1-.688.688Zm29.568-1.375v-1.375H483.225v1.375Zm-1.9-2.751-1.238-2.063h-22.6l-1.238,2.063Zm-9.788-3.438v-1.375h-5.5v1.375Zm.494-2.751-.344-1.375h-5.8l-.344,1.375Zm-2.557-2.751v-11.69h-1.375v11.69Zm-20.58-4.126a4.814,4.814,0,0,0,9.529,0Zm30.256-5.5a4.814,4.814,0,0,0,9.529,0Zm-21.664,4.126-3.827-10.389-3.828,10.389Zm30.256-5.5-3.828-10.388-3.827,10.388Zm-16.893-2.063v-1.668a7.46,7.46,0,0,1-4.126,0v1.664Zm-8.207-8.251a6.179,6.179,0,0,0,4.218,5.191,8.949,8.949,0,0,1-2.166-5.191Zm10.236,0a8.952,8.952,0,0,1-2.167,5.189,6.217,6.217,0,0,0,4.223-5.189Zm-6.809,0a7.577,7.577,0,0,0,2.029,4.512v-4.512Zm3.4,4.512a7.576,7.576,0,0,0,2.029-4.512h-2.029Zm-18.566-3.137a.688.688,0,1,0,0,1.375h6.794l3.937-.955a7.538,7.538,0,0,1-.314-1.26l-3.38.82a.705.705,0,0,1-.162.019Zm24.027-2.751a6.218,6.218,0,0,0-4.223-5.19,8.954,8.954,0,0,1,2.167,5.19h2.056Zm-3.432,0a7.575,7.575,0,0,0-2.029-4.512v4.512Zm-3.4,0v-4.512a7.575,7.575,0,0,0-2.029,4.512h2.029Zm-3.4,0a8.954,8.954,0,0,1,2.166-5.19,6.219,6.219,0,0,0-4.222,5.19h2.056Zm11.285-1.64a7.476,7.476,0,0,1,.288,1.266l4.047-.981a.708.708,0,0,1,.162-.019h6.189a.688.688,0,1,0,0-1.375h-6.107Z" transform="translate(-476.349 -1340.179)" fill="#e8e8e8"/>
</svg>
