<svg xmlns="http://www.w3.org/2000/svg" width="36.307" height="31.365" viewBox="0 0 36.307 31.365">
  <g id="sec-11-Quote" transform="translate(0 -34.571)">
    <g id="Group_228" data-name="Group 228" transform="translate(0 34.571)">
      <path id="Path_379" data-name="Path 379" d="M.008,57.294a8.666,8.666,0,1,0,5.844-8.17C7.8,37.969,16.5,30.775,8.431,36.7-.51,43.261,0,57.03.008,57.282.008,57.286.008,57.29.008,57.294Z" transform="translate(0 -34.571)" fill="#dbc29e"/>
      <path id="Path_380" data-name="Path 380" d="M266.068,57.294a8.666,8.666,0,1,0,5.844-8.17c1.945-11.155,10.644-18.349,2.58-12.428-8.941,6.565-8.433,20.334-8.423,20.587C266.069,57.286,266.068,57.29,266.068,57.294Z" transform="translate(-247.047 -34.571)" fill="#dbc29e"/>
    </g>
  </g>
</svg>
