<svg xmlns="http://www.w3.org/2000/svg" width="43.332" height="41.943" viewBox="0 0 43.332 41.943">
  <g id="sec-3-1" transform="translate(0)">
    <g id="Group_100" data-name="Group 100" transform="translate(0)">
      <path id="Path_194" data-name="Path 194" d="M656.955,1384.01a.635.635,0,0,1-.634-.635v-8.433a6.115,6.115,0,0,0-3.595-5.558l-4.83,9.2v4.786a.635.635,0,1,1-1.27,0v-4.786l-4.829-9.2a6.125,6.125,0,0,0-3.595,5.515.635.635,0,0,1-1.086.442.63.63,0,0,1-.183-.451,7.271,7.271,0,0,1,.7-3.068h0a4.124,4.124,0,0,0-2.392-.76h-.2a4.533,4.533,0,0,1-.428.173l1.27,4.958a1.134,1.134,0,0,1-.352,1.139l-1.647,1.448a1.143,1.143,0,0,1-1.505,0l-1.648-1.448a1.136,1.136,0,0,1-.352-1.139l1.27-4.958h0a4.615,4.615,0,0,1-.428-.173h-.2a4.161,4.161,0,0,0-4.156,4.156v5.489a.635.635,0,0,1-1.27,0v-5.489a5.414,5.414,0,0,1,4.134-5.269h0a4.533,4.533,0,0,1-1.141-3.005v-1.409a4.541,4.541,0,1,1,9.081,0v1.409a4.531,4.531,0,0,1-1.141,3.005h0a5.366,5.366,0,0,1,1.739.774h0a7.475,7.475,0,0,1,3.563-2.722.631.631,0,0,1,.1-.037,7.3,7.3,0,0,1,1.051-.273h0a6.079,6.079,0,0,1-1.759-3.344h0a2.713,2.713,0,0,1-2.536-4.671,1.441,1.441,0,0,1-.054-.389v-.558a8.491,8.491,0,0,1-1.191.085,8.374,8.374,0,1,1,8.374-8.374c0,.141,0,.282-.012.423h.776a2.891,2.891,0,0,1,2.259,1.084h0c.068-.005.135-.009.2-.009h1.446a5.4,5.4,0,0,1,5.392,5.392v1.744a1.42,1.42,0,0,1-.113.555h0a2.713,2.713,0,0,1-1.689,4.836,2.733,2.733,0,0,1-.788-.117h0a6.079,6.079,0,0,1-1.758,3.343h0a7.421,7.421,0,0,1,1.068.278l.069.025a7.45,7.45,0,0,1,3.583,2.725h0a5.406,5.406,0,0,1,1.737-.769,4.531,4.531,0,0,1-1.141-3.006v-1.41a4.541,4.541,0,1,1,9.081,0v1.41a4.53,4.53,0,0,1-1.141,3h0a5.414,5.414,0,0,1,4.134,5.269v5.489a.635.635,0,0,1-1.27,0v-5.489a4.16,4.16,0,0,0-4.156-4.156h-.189l-.026.008a4.416,4.416,0,0,1-.411.165l.3,1.187a.634.634,0,0,1-.459.772.616.616,0,0,1-.157.02.634.634,0,0,1-.614-.477l-.323-1.259c-.076,0-.155.006-.233.006s-.156,0-.234-.006l-1.269,4.953,1.5,1.321,1.5-1.321-.183-.715a.634.634,0,0,1,.458-.772.624.624,0,0,1,.157-.02.635.635,0,0,1,.615.477l.2.792a1.134,1.134,0,0,1-.352,1.139l-1.647,1.448a1.143,1.143,0,0,1-1.505,0l-1.648-1.448a1.135,1.135,0,0,1-.352-1.139l1.27-4.958h0q-.219-.076-.428-.173h-.2a4.13,4.13,0,0,0-2.391.756,7.286,7.286,0,0,1,.695,3.121v8.433A.635.635,0,0,1,656.955,1384.01Zm-23.826-6.256,1.5-1.321-1.269-4.953c-.076,0-.155.006-.233.006s-.156,0-.234-.006l-1.268,4.953Zm14.132-.692,1.946-3.706-1.442-3.939c-.166.014-.334.022-.5.022s-.337-.009-.5-.022l-1.442,3.939Zm-2.743-5.223.975-2.662a6,6,0,0,1-.86-.333H644.3a6.082,6.082,0,0,0-1.281.137h0Zm5.485,0,1.5-2.857a6.081,6.081,0,0,0-1.281-.137h-.332l-.015.007a5.972,5.972,0,0,1-.846.326Zm11.39-9.574a3.275,3.275,0,0,0-3.271,3.271v1.409a3.271,3.271,0,1,0,6.542,0v-1.409A3.275,3.275,0,0,0,661.394,1362.265Zm-28.264,0a3.275,3.275,0,0,0-3.271,3.271v1.41a3.271,3.271,0,1,0,6.542,0v-1.41A3.275,3.275,0,0,0,633.13,1362.265Zm9.307-1.438a4.8,4.8,0,0,0-.028.507v1.981a4.854,4.854,0,0,0,9.707,0v-1.981a4.908,4.908,0,0,0-.061-.76h0a12.559,12.559,0,0,1-2.845-.392,3.653,3.653,0,0,1-1.277-.639h0a4.171,4.171,0,0,1-1.568.814,15.369,15.369,0,0,1-3.928.47Zm10.949,2.189a1.444,1.444,0,1,0,1.354-2.55h0q-.064.012-.13.019c-.4.04-.843.069-1.271.085h0a6.121,6.121,0,0,1,.049.763Zm-13.832-2.4a1.443,1.443,0,0,0,1.585,2.4v-1.683c0-.178.009-.357.025-.537h0c-.414-.021-.838-.054-1.259-.1a1.437,1.437,0,0,1-.35-.084Zm.353-1.325a.145.145,0,0,0,.13.146,22.318,22.318,0,0,0,2.3.121,14.253,14.253,0,0,0,3.7-.424,3,3,0,0,0,2.187-2.9v-2.469a1.634,1.634,0,0,0-1.632-1.632h-.937a8.29,8.29,0,0,1-1.2,2.907.634.634,0,1,1-1.06-.7,7.1,7.1,0,1,0-1.986,2,.635.635,0,0,1,.708,1.054,8.337,8.337,0,0,1-2.2,1.048h0Zm8.875-.7a2.387,2.387,0,0,0,.761.363,11.947,11.947,0,0,0,3.1.357c.749,0,1.415-.05,1.843-.092a.145.145,0,0,0,.132-.146v-1.744a4.127,4.127,0,0,0-4.122-4.123h-1.061a2.932,2.932,0,0,1,.054.558v2.469A4.288,4.288,0,0,1,648.782,1358.594Z" transform="translate(-625.596 -1342.067)" fill="#e8e8e8"/>
    </g>
    <g id="Group_101" data-name="Group 101" transform="translate(11.337 35.266)">
      <path id="Path_195" data-name="Path 195" d="M657.18,1445.017a.636.636,0,0,1-.635-.635v-5.407a.635.635,0,0,1,1.27,0v5.407A.635.635,0,0,1,657.18,1445.017Z" transform="translate(-656.545 -1438.341)" fill="#e8e8e8"/>
    </g>
    <g id="Group_102" data-name="Group 102" transform="translate(23.404 36.987)">
      <path id="Path_196" data-name="Path 196" d="M690.133,1444.309a.638.638,0,0,1-.463-.188.628.628,0,0,1-.184-.449.642.642,0,1,1,.649.637Z" transform="translate(-689.486 -1443.039)" fill="#e8e8e8"/>
    </g>
    <g id="Group_103" data-name="Group 103" transform="translate(6.254 3.91)">
      <path id="Path_197" data-name="Path 197" d="M646.759,1361.859a1.421,1.421,0,0,1-1.012-.419l-2.777-2.777a1.034,1.034,0,0,1,0-1.461l1.147-1.147a1.033,1.033,0,0,1,1.461,0l1.182,1.182,4.194-4.194a1.032,1.032,0,0,1,1.461,0l1.147,1.147a1.034,1.034,0,0,1,0,1.461l-5.79,5.79A1.422,1.422,0,0,1,646.759,1361.859Zm-.114-1.317a.161.161,0,0,0,.229,0l5.623-5.623-.813-.812-4.476,4.475a.634.634,0,0,1-.9,0l-1.463-1.463-.812.813Z" transform="translate(-642.668 -1352.74)" fill="#e8e8e8"/>
    </g>
  </g>
</svg>
