<svg id="sec-8-1" xmlns="http://www.w3.org/2000/svg" width="157.573" height="86.282" viewBox="0 0 157.573 86.282">
  <path id="Path_287" data-name="Path 287" d="M566.173,865.075q-1.363,1.139-2.638,2.414a39.352,39.352,0,0,0-11.087,21.6,39.427,39.427,0,0,0-11.087-21.6q-1.274-1.274-2.638-2.414a36.7,36.7,0,0,1,13.725-24.308A36.716,36.716,0,0,1,566.173,865.075Z" transform="translate(-473.474 -840.767)" fill="#dbc29e"/>
  <path id="Path_288" data-name="Path 288" d="M633.089,940.292a36.757,36.757,0,0,1-29.9,10.668,40,40,0,0,0,9.453-12.032,39.236,39.236,0,0,0,4.318-18.016q0-1.8-.154-3.572v0a36.7,36.7,0,0,1,26.893-7.482A36.77,36.77,0,0,1,633.089,940.292Z" transform="translate(-521.351 -891.889)" fill="#dbc29e"/>
  <path id="Path_289" data-name="Path 289" d="M612.073,949.341a36.72,36.72,0,0,1-11.906,27.217A36.7,36.7,0,0,1,610.994,948.9q.518-.517,1.05-1.009C612.062,948.371,612.073,948.855,612.073,949.341Z" transform="translate(-519.081 -920.318)" fill="#dbc29e"/>
  <path id="Path_290" data-name="Path 290" d="M549.484,976.555a36.711,36.711,0,0,1-11.9-27.214c0-.487.01-.97.028-1.454q.533.49,1.05,1.009A36.7,36.7,0,0,1,549.484,976.555Z" transform="translate(-472.627 -920.318)" fill="#dbc29e"/>
  <path id="Path_291" data-name="Path 291" d="M463.3,950.96a37.052,37.052,0,0,1-40.507-41.1,36.7,36.7,0,0,1,26.89,7.482q-.154,1.772-.154,3.575a39.265,39.265,0,0,0,4.319,18.016A40.073,40.073,0,0,0,463.3,950.96Z" transform="translate(-387.193 -891.889)" fill="#dbc29e"/>
  <g id="Group_193" data-name="Group 193" transform="translate(0 68.525)">
    <path id="Path_292" data-name="Path 292" d="M293.409,1125.106h-3.432V1110.93H285.2V1107.7h12.983v3.233h-4.775Z" transform="translate(-285.202 -1107.523)" fill="#dbc29e"/>
    <path id="Path_293" data-name="Path 293" d="M337.12,1125.106h-3.805l7.163-17.409h2.014l7.063,17.409H345.75l-1.244-3.183h-6.143Zm2.437-6.441h3.756l-1.865-4.75Z" transform="translate(-320.932 -1107.523)" fill="#dbc29e"/>
    <path id="Path_294" data-name="Path 294" d="M401.181,1125.106l3.581-6.292-6.317-11.117h3.9l4.377,7.585,4.352-7.585h3.9l-9.923,17.409Z" transform="translate(-369.3 -1107.523)" fill="#dbc29e"/>
    <path id="Path_295" data-name="Path 295" d="M478.94,1107.7a8.258,8.258,0,0,1,5.721,1.915,6.64,6.64,0,0,1,0,9.575,8.257,8.257,0,0,1-5.721,1.915h-2.288v4H473.22V1107.7Zm.274,10.172a4.846,4.846,0,0,0,2.934-.821,3.333,3.333,0,0,0,0-5.273,4.81,4.81,0,0,0-2.934-.846h-2.562v6.939Z" transform="translate(-424.83 -1107.523)" fill="#dbc29e"/>
    <path id="Path_296" data-name="Path 296" d="M531.549,1125.106l3.581-6.292-6.317-11.117h3.9l4.377,7.585,4.352-7.585h3.9l-9.923,17.409Z" transform="translate(-466.115 -1107.523)" fill="#dbc29e"/>
    <path id="Path_297" data-name="Path 297" d="M609.952,1109.9l-2.238,2.064a5.974,5.974,0,0,0-4.327-1.716,5.188,5.188,0,0,0-3.855,1.567,6.093,6.093,0,0,0,0,8.158,5.188,5.188,0,0,0,3.855,1.567,5.866,5.866,0,0,0,4.327-1.716l2.238,2.064a8.626,8.626,0,0,1-6.566,2.885,8.879,8.879,0,0,1,0-17.758A8.628,8.628,0,0,1,609.952,1109.9Z" transform="translate(-514.92 -1107.02)" fill="#dbc29e"/>
    <path id="Path_298" data-name="Path 298" d="M708,1107.7a8.259,8.259,0,0,1,5.72,1.915,6.64,6.64,0,0,1,0,9.575A8.257,8.257,0,0,1,708,1121.1h-2.288v4h-3.432V1107.7Zm.273,10.172a4.848,4.848,0,0,0,2.935-.821,3.334,3.334,0,0,0,0-5.273,4.811,4.811,0,0,0-2.935-.846h-2.562v6.939Z" transform="translate(-594.935 -1107.523)" fill="#dbc29e"/>
    <path id="Path_299" data-name="Path 299" d="M773.152,1107.7a8.007,8.007,0,0,1,5.621,1.89,6.118,6.118,0,0,1,1.94,4.676,5.425,5.425,0,0,1-3.755,5.471,10.129,10.129,0,0,1,2.586,3.059l1.492,2.313h-3.855l-1.119-1.74a9.377,9.377,0,0,0-1.592-2.015,3.224,3.224,0,0,0-1.89-.5h-1.915v4.253h-3.432V1107.7Zm-2.487,9.923h2.81a4.569,4.569,0,0,0,2.836-.8,3.062,3.062,0,0,0,1.144-2.562,2.981,2.981,0,0,0-1.144-2.487,4.444,4.444,0,0,0-2.836-.846h-2.81Z" transform="translate(-643.173 -1107.523)" fill="#dbc29e"/>
    <path id="Path_300" data-name="Path 300" d="M843.668,1109.631a8.872,8.872,0,0,1-12.535,12.56,8.916,8.916,0,0,1,0-12.56,8.827,8.827,0,0,1,12.535,0Zm-10.122,2.189a6.093,6.093,0,0,0,0,8.158,5.556,5.556,0,0,0,7.735,0,6.093,6.093,0,0,0,0-8.158,5.27,5.27,0,0,0-3.88-1.567A5.187,5.187,0,0,0,833.546,1111.82Z" transform="translate(-688.707 -1107.02)" fill="#dbc29e"/>
  </g>
</svg>
