<svg id="sec-3-3" xmlns="http://www.w3.org/2000/svg" width="52.344" height="35.74" viewBox="0 0 52.344 35.74">
  <g id="Group_86" data-name="Group 86" transform="translate(12.347 7.401)">
    <path id="Path_180" data-name="Path 180" d="M317.061,1372.128a.727.727,0,0,1-.012-1.455,73.2,73.2,0,0,0,10.65-.9.708.708,0,0,1,.143-.015,5.3,5.3,0,0,1,2.538.787.729.729,0,0,1,.29.474.727.727,0,0,1-.714.841.747.747,0,0,1-.47-.166,3.641,3.641,0,0,0-1.6-.474,75.921,75.921,0,0,1-10.79.909Z" transform="translate(-316.335 -1369.757)" fill="#e8e8e8"/>
  </g>
  <g id="Group_87" data-name="Group 87" transform="translate(19.46 7.036)">
    <path id="Path_181" data-name="Path 181" d="M355.975,1388.791a2.92,2.92,0,0,1-1.728-.56l-.156-.109a.647.647,0,0,1-.087-.073l-8.557-6.162a.727.727,0,0,1,.41-1.328.723.723,0,0,1,.41.127l.6.431,8.008,5.775c.014.01.045.036.064.052l.144.1a1.5,1.5,0,0,0,2.326-1.635,1.452,1.452,0,0,0-.483-.735l-11.446-9.325a10.492,10.492,0,0,1-4.9,1.347,7.514,7.514,0,0,1-4.068-1.164,1.672,1.672,0,0,1,.142-2.885l6.552-3.479a3.572,3.572,0,0,1,2.739-.24l3.876,1.257a5.04,5.04,0,0,0,3.489-.126l1.688-.691a.727.727,0,0,1,.947.953.721.721,0,0,1-.4.393l-1.686.69a6.478,6.478,0,0,1-4.494.163l-3.872-1.257a2.109,2.109,0,0,0-1.613.146l-6.553,3.48a.215.215,0,0,0-.125.191.2.2,0,0,0,.093.186,5.977,5.977,0,0,0,3.272.943,9.387,9.387,0,0,0,4.627-1.408.727.727,0,0,1,.822.067l11.821,9.632a2.886,2.886,0,0,1,.965,1.454,2.961,2.961,0,0,1-2.829,3.789Z" transform="translate(-335.754 -1368.76)" fill="#e8e8e8"/>
  </g>
  <g id="Group_88" data-name="Group 88" transform="translate(26.797 19.283)">
    <path id="Path_182" data-name="Path 182" d="M365.657,1413.347a2.951,2.951,0,0,1-1.719-.548l-7.859-5.576a.727.727,0,0,1,.841-1.186l7.858,5.575a1.506,1.506,0,0,0,.833.249,1.527,1.527,0,0,0,.941-2.731l-7.833-5.645a.727.727,0,0,1,.848-1.179l7.835,5.646a2.984,2.984,0,0,1,.667,4.162,3,3,0,0,1-2.314,1.231h-.1Z" transform="translate(-355.783 -1402.193)" fill="#e8e8e8"/>
  </g>
  <g id="Group_89" data-name="Group 89" transform="translate(24.287 22.996)">
    <path id="Path_183" data-name="Path 183" d="M357.923,1422.684a2.852,2.852,0,0,1-1.637-.514l-7.043-4.878a.727.727,0,1,1,.829-1.2l7.042,4.878a1.432,1.432,0,0,0,1.992-.363,1.444,1.444,0,0,0-.349-1.982l-7.008-4.972a.727.727,0,1,1,.821-1.2l7.029,4.985a2.886,2.886,0,0,1-1.67,5.24Z" transform="translate(-348.931 -1412.331)" fill="#e8e8e8"/>
  </g>
  <g id="Group_90" data-name="Group 90" transform="translate(23.409 26.876)">
    <path id="Path_184" data-name="Path 184" d="M352.249,1431.786a2.919,2.919,0,0,1-1.446-.394l-3.909-2.254a.727.727,0,0,1,.368-1.354.719.719,0,0,1,.359.1l3.908,2.253a1.453,1.453,0,0,0,1.963-.52,1.428,1.428,0,0,0-.426-1.906l-4.995-3.46a.727.727,0,0,1-.184-1.011.727.727,0,0,1,1.011-.184l4.994,3.46a2.895,2.895,0,0,1-1.641,5.275h0Z" transform="translate(-346.534 -1422.922)" fill="#e8e8e8"/>
  </g>
  <g id="Group_91" data-name="Group 91" transform="translate(17.966 27.757)">
    <path id="Path_185" data-name="Path 185" d="M334.6,1432.877a2.922,2.922,0,0,1-1.931-5.12l1.941-1.7a2.924,2.924,0,1,1,3.858,4.395l-1.942,1.7a2.912,2.912,0,0,1-1.919.722Zm1.936-6.095a1.464,1.464,0,0,0-.966.363l-1.943,1.7a1.47,1.47,0,0,0,1.939,2.21l1.941-1.7a1.469,1.469,0,0,0-.969-2.572l0-.312Z" transform="translate(-331.675 -1425.328)" fill="#e8e8e8"/>
  </g>
  <g id="Group_92" data-name="Group 92" transform="translate(13.548 24.606)">
    <path id="Path_186" data-name="Path 186" d="M322.534,1425.445c-.056,0-.112,0-.169-.005a2.942,2.942,0,0,1-1.768-5.132l3.252-2.856a2.924,2.924,0,0,1,3.892.031l.248.224-.319.306.009.01.333-.292.2.289a2.911,2.911,0,0,1-.387,3.763l-.09.087h-.006l-3.246,2.847a2.9,2.9,0,0,1-1.92.726Zm3.237-7.266a1.456,1.456,0,0,0-.964.364l-3.244,2.847a1.492,1.492,0,0,0,.895,2.6c.033,0,.067,0,.1,0a1.452,1.452,0,0,0,.965-.367l3.244-2.848a1.479,1.479,0,0,0,.158-2.048l-.027-.032a1.542,1.542,0,0,0-.6-.421l-.246-.094Z" transform="translate(-319.613 -1416.726)" fill="#e8e8e8"/>
  </g>
  <g id="Group_93" data-name="Group 93" transform="translate(9.819 21.414)">
    <path id="Path_187" data-name="Path 187" d="M312.416,1417.254c-.056,0-.113,0-.17-.006a2.932,2.932,0,0,1-2.008-.989l-.079-.094a2.93,2.93,0,0,1,.27-4.125l3.761-3.3a2.923,2.923,0,0,1,4.125.267l.083.094a2.928,2.928,0,0,1-.269,4.126l-3.761,3.3a2.9,2.9,0,0,1-1.921.727Zm3.692-7.788a1.459,1.459,0,0,0-.963.364l-3.761,3.3a1.474,1.474,0,0,0-.136,2.077l.082.094a1.471,1.471,0,0,0,2.074.133l3.761-3.3a1.472,1.472,0,0,0,.136-2.074l-.081-.093a1.47,1.47,0,0,0-1.008-.5c-.036,0-.067,0-.1,0Z" transform="translate(-309.434 -1408.012)" fill="#e8e8e8"/>
  </g>
  <g id="Group_94" data-name="Group 94" transform="translate(6.711 19.477)">
    <path id="Path_188" data-name="Path 188" d="M303.877,1410.667c-.056,0-.113,0-.17-.007a2.943,2.943,0,0,1-1.762-5.143l2.355-2.067a2.924,2.924,0,0,1,4.125.268l.026.029a2.923,2.923,0,0,1-.266,4.126l-2.356,2.068a2.9,2.9,0,0,1-1.92.726Zm2.344-6.49a1.457,1.457,0,0,0-.96.364l-2.354,2.067a1.47,1.47,0,0,0-.136,2.074,1.48,1.48,0,0,0,2.086.177l2.369-2.079a1.472,1.472,0,0,0,.136-2.074l-.027-.031a1.469,1.469,0,0,0-1.008-.5Z" transform="translate(-300.95 -1402.723)" fill="#e8e8e8"/>
  </g>
  <g id="Group_95" data-name="Group 95" transform="translate(5.138 20.062)">
    <path id="Path_189" data-name="Path 189" d="M299.849,1407.662a.711.711,0,0,1-.424-.144l-2.485-1.891a.727.727,0,0,1,.441-1.306.721.721,0,0,1,.44.149l2.484,1.89a.727.727,0,0,1,.146,1.017.732.732,0,0,1-.481.284l-.027,0Z" transform="translate(-296.654 -1404.321)" fill="#e8e8e8"/>
  </g>
  <g id="Group_96" data-name="Group 96" transform="translate(41.09 18.684)">
    <path id="Path_190" data-name="Path 190" d="M395.528,1406.084a.726.726,0,0,1-.726-.728.731.731,0,0,1,.213-.513l4.079-4.081a.73.73,0,0,1,.5-.2.727.727,0,0,1,.523,1.232l-4.08,4.079A.729.729,0,0,1,395.528,1406.084Z" transform="translate(-394.802 -1400.558)" fill="#e8e8e8"/>
  </g>
  <g id="Group_97" data-name="Group 97" transform="translate(37.774)">
    <path id="Path_191" data-name="Path 191" d="M395.357,1372.254a.725.725,0,0,1-.622-.345l-8.876-14.439a.726.726,0,0,1,.174-.955l8.791-6.809a.727.727,0,0,1,1.02.129.735.735,0,0,1,.134.282l4.324,18.864a.73.73,0,0,1-.352.8l-4.239,2.382a.726.726,0,0,1-.351.091Zm.251-1.7,3.156-1.774-3.947-17.224-7.377,5.712Z" transform="translate(-385.75 -1349.553)" fill="#e8e8e8"/>
  </g>
  <g id="Group_98" data-name="Group 98" transform="translate(0 0.262)">
    <path id="Path_192" data-name="Path 192" d="M287.6,1372.964a.73.73,0,0,1-.357-.093L283,1370.493a.731.731,0,0,1-.353-.8l4.324-18.861a.727.727,0,0,1,.872-.546.724.724,0,0,1,.282.135l8.792,6.808a.725.725,0,0,1,.174.955l-8.877,14.438a.723.723,0,0,1-.618.343Zm-.253-1.7,8.169-13.287-7.377-5.712-3.947,17.225Z" transform="translate(-282.629 -1350.267)" fill="#e8e8e8"/>
  </g>
</svg>
