<svg xmlns="http://www.w3.org/2000/svg" width="117.452" height="95" viewBox="0 0 117.452 95">
  <path id="sec-8-5" d="M3621.854-494.009a49.229,49.229,0,0,1,42.479,24.521L3667.5-464l5.053-5.053-2.243-3.885a56.256,56.256,0,0,0-20.086-20.252,55.893,55.893,0,0,0-28.369-7.718,55.557,55.557,0,0,0-22.252,4.6,55.74,55.74,0,0,0-18.019,12.512l-2.352,2.439,12.573,12.584a41.732,41.732,0,0,0,8.993,7.138,41.487,41.487,0,0,0,21.058,5.723,41.489,41.489,0,0,0,21.058-5.723,41.7,41.7,0,0,0,6.5-4.744l5.314,5.313a48.578,48.578,0,0,1-32.875,12.648,49.229,49.229,0,0,1-42.479-24.521l-3.15-5.457-5.053,5.053,2.227,3.857a56.256,56.256,0,0,0,20.086,20.252,55.9,55.9,0,0,0,28.369,7.717,55.561,55.561,0,0,0,22.256-4.6,55.747,55.747,0,0,0,18.021-12.516l2.352-2.44-12.58-12.579a41.739,41.739,0,0,0-8.991-7.137,41.486,41.486,0,0,0-21.058-5.723,41.487,41.487,0,0,0-21.058,5.723,41.686,41.686,0,0,0-6.5,4.743l-5.312-5.316A48.582,48.582,0,0,1,3621.854-494.009Zm-8.4,22.795a8.407,8.407,0,0,1,8.4-8.4,8.407,8.407,0,0,1,8.4,8.4,8.407,8.407,0,0,1-8.4,8.4A8.407,8.407,0,0,1,3613.456-471.214Zm31.01,0a34.727,34.727,0,0,1-5.06,3.631,34.143,34.143,0,0,1-3.2,1.661,15.235,15.235,0,0,0,.944-5.292,15.233,15.233,0,0,0-.944-5.292,34.1,34.1,0,0,1,3.2,1.661A34.752,34.752,0,0,1,3644.466-471.214Zm-40.165-3.631a34.093,34.093,0,0,1,3.2-1.661,15.222,15.222,0,0,0-.944,5.292,15.211,15.211,0,0,0,.945,5.292,34.042,34.042,0,0,1-3.2-1.661,34.73,34.73,0,0,1-5.06-3.631A34.727,34.727,0,0,1,3604.3-474.845Zm-37.078,66.834.755.191a2.542,2.542,0,0,1-.854,1.419,2.358,2.358,0,0,1-1.509.489,2.709,2.709,0,0,1-1.5-.376,2.34,2.34,0,0,1-.88-1.088,3.883,3.883,0,0,1-.3-1.53,3.36,3.36,0,0,1,.341-1.556,2.33,2.33,0,0,1,.969-1.008,2.832,2.832,0,0,1,1.384-.345,2.342,2.342,0,0,1,1.441.436,2.268,2.268,0,0,1,.814,1.227l-.744.175a1.765,1.765,0,0,0-.576-.907,1.535,1.535,0,0,0-.95-.284,1.848,1.848,0,0,0-1.1.315,1.668,1.668,0,0,0-.621.847,3.418,3.418,0,0,0-.179,1.1,3.493,3.493,0,0,0,.212,1.272,1.582,1.582,0,0,0,.66.812,1.852,1.852,0,0,0,.969.269,1.624,1.624,0,0,0,1.075-.366A1.872,1.872,0,0,0,3567.223-408.011Zm2.008-.779a3.1,3.1,0,0,1,.763-2.225,2.6,2.6,0,0,1,1.971-.8,2.731,2.731,0,0,1,1.425.378,2.465,2.465,0,0,1,.968,1.053,3.419,3.419,0,0,1,.333,1.532,3.361,3.361,0,0,1-.351,1.554,2.385,2.385,0,0,1-.993,1.038,2.833,2.833,0,0,1-1.386.353,2.7,2.7,0,0,1-1.441-.39,2.5,2.5,0,0,1-.961-1.063A3.218,3.218,0,0,1,3569.231-408.79Zm.779.012a2.285,2.285,0,0,0,.555,1.626,1.826,1.826,0,0,0,1.392.594,1.823,1.823,0,0,0,1.4-.6,2.426,2.426,0,0,0,.551-1.7,2.921,2.921,0,0,0-.236-1.217,1.813,1.813,0,0,0-.689-.806,1.872,1.872,0,0,0-1.019-.286,1.932,1.932,0,0,0-1.38.551A2.463,2.463,0,0,0,3570.01-408.778Zm6.268,2.768v-5.709h.775l3,4.482v-4.482h.725v5.709H3580l-3-4.486v4.486Zm6.081-1.834.713-.062a1.571,1.571,0,0,0,.235.7,1.29,1.29,0,0,0,.575.444,2.174,2.174,0,0,0,.876.169,2.1,2.1,0,0,0,.763-.129,1.059,1.059,0,0,0,.493-.352.818.818,0,0,0,.161-.489.741.741,0,0,0-.155-.469,1.158,1.158,0,0,0-.514-.337,10.046,10.046,0,0,0-1.016-.279,5.184,5.184,0,0,1-1.1-.356,1.545,1.545,0,0,1-.609-.532,1.3,1.3,0,0,1-.2-.711,1.45,1.45,0,0,1,.245-.808,1.52,1.52,0,0,1,.716-.57,2.72,2.72,0,0,1,1.048-.2,2.864,2.864,0,0,1,1.12.2,1.613,1.613,0,0,1,.746.6,1.731,1.731,0,0,1,.28.9l-.724.055a1.17,1.17,0,0,0-.4-.818,1.54,1.54,0,0,0-1-.276,1.6,1.6,0,0,0-1,.251.754.754,0,0,0-.313.606.65.65,0,0,0,.222.506,3.005,3.005,0,0,0,1.139.407,7.55,7.55,0,0,1,1.264.364,1.735,1.735,0,0,1,.736.582,1.42,1.42,0,0,1,.237.812,1.55,1.55,0,0,1-.261.859,1.715,1.715,0,0,1-.749.627,2.612,2.612,0,0,1-1.1.224,3.282,3.282,0,0,1-1.3-.226,1.815,1.815,0,0,1-.821-.68A1.928,1.928,0,0,1,3582.358-407.844Zm9.856-3.874h.755v3.3a3.9,3.9,0,0,1-.194,1.367,1.668,1.668,0,0,1-.7.824,2.491,2.491,0,0,1-1.334.317,2.744,2.744,0,0,1-1.312-.276,1.578,1.578,0,0,1-.729-.8,3.819,3.819,0,0,1-.218-1.431v-3.3h.755v3.294a3.21,3.21,0,0,0,.138,1.1,1.05,1.05,0,0,0,.475.543,1.647,1.647,0,0,0,.824.191,1.574,1.574,0,0,0,1.188-.378,2.178,2.178,0,0,0,.354-1.453Zm2.6,5.709v-5.709h.755v5.035h2.812v.674Zm5.675,0v-5.035h-1.88v-.674h4.525v.674h-1.889v5.035Zm4.051,0v-5.709h.755v5.709Zm2.662,0v-5.709h.775l3,4.482v-4.482h.724v5.709h-.775l-3-4.486v4.486Zm9-2.239v-.67l2.418,0v2.118a4.28,4.28,0,0,1-1.149.668,3.408,3.408,0,0,1-1.215.224,3.243,3.243,0,0,1-1.528-.36,2.389,2.389,0,0,1-1.038-1.042,3.283,3.283,0,0,1-.35-1.523,3.532,3.532,0,0,1,.349-1.556,2.315,2.315,0,0,1,1-1.073,3.141,3.141,0,0,1,1.507-.351,2.989,2.989,0,0,1,1.12.2,1.862,1.862,0,0,1,.784.559,2.482,2.482,0,0,1,.432.935l-.681.187a2.121,2.121,0,0,0-.319-.685,1.311,1.311,0,0,0-.545-.4,1.994,1.994,0,0,0-.787-.15,2.321,2.321,0,0,0-.9.158,1.669,1.669,0,0,0-.609.415,1.981,1.981,0,0,0-.36.564,2.994,2.994,0,0,0-.218,1.149,2.785,2.785,0,0,0,.263,1.277,1.683,1.683,0,0,0,.765.763,2.37,2.37,0,0,0,1.067.249,2.535,2.535,0,0,0,.958-.189,2.464,2.464,0,0,0,.708-.4v-1.063Zm7.023,2.239v-5.709h2.153a5.17,5.17,0,0,1,.868.055,1.712,1.712,0,0,1,.705.267,1.392,1.392,0,0,1,.458.551,1.753,1.753,0,0,1,.173.779,1.754,1.754,0,0,1-.463,1.232,2.224,2.224,0,0,1-1.674.5h-1.464v2.321Zm.756-2.994h1.476a1.565,1.565,0,0,0,1.04-.273.971.971,0,0,0,.308-.767,1.029,1.029,0,0,0-.181-.613.845.845,0,0,0-.477-.337,3.246,3.246,0,0,0-.7-.05h-1.46Zm5.045,2.994v-5.709h2.531a3.373,3.373,0,0,1,1.16.154,1.266,1.266,0,0,1,.634.543,1.618,1.618,0,0,1,.238.861,1.434,1.434,0,0,1-.394,1.024,1.988,1.988,0,0,1-1.215.529,1.954,1.954,0,0,1,.456.284,3.917,3.917,0,0,1,.627.759l.993,1.554h-.95l-.755-1.188q-.331-.514-.545-.786a1.708,1.708,0,0,0-.384-.382,1.136,1.136,0,0,0-.344-.152,2.292,2.292,0,0,0-.421-.027h-.876v2.535Zm.755-3.189h1.624a2.432,2.432,0,0,0,.81-.107.861.861,0,0,0,.444-.343.928.928,0,0,0,.152-.512.851.851,0,0,0-.294-.666,1.374,1.374,0,0,0-.928-.261h-1.807Zm5.218.409a3.1,3.1,0,0,1,.763-2.225,2.594,2.594,0,0,1,1.97-.8,2.733,2.733,0,0,1,1.425.378,2.468,2.468,0,0,1,.968,1.053,3.425,3.425,0,0,1,.333,1.532,3.367,3.367,0,0,1-.351,1.554,2.393,2.393,0,0,1-.993,1.038,2.837,2.837,0,0,1-1.387.353,2.7,2.7,0,0,1-1.44-.39,2.5,2.5,0,0,1-.962-1.063A3.218,3.218,0,0,1,3635.009-408.79Zm.779.012a2.287,2.287,0,0,0,.555,1.626,1.827,1.827,0,0,0,1.393.594,1.821,1.821,0,0,0,1.4-.6,2.423,2.423,0,0,0,.551-1.7,2.921,2.921,0,0,0-.235-1.217,1.81,1.81,0,0,0-.689-.806,1.87,1.87,0,0,0-1.018-.286,1.933,1.933,0,0,0-1.381.551A2.461,2.461,0,0,0,3635.788-408.778Zm6.271,2.768v-5.709h1.966a4.765,4.765,0,0,1,1.016.082,1.933,1.933,0,0,1,.837.409,2.322,2.322,0,0,1,.675.975,3.828,3.828,0,0,1,.224,1.357,3.993,3.993,0,0,1-.152,1.153,2.809,2.809,0,0,1-.389.831,2.076,2.076,0,0,1-.52.518,2.116,2.116,0,0,1-.682.286,3.887,3.887,0,0,1-.917.1Zm.755-.674h1.219a2.95,2.95,0,0,0,.886-.105,1.272,1.272,0,0,0,.512-.3,1.809,1.809,0,0,0,.418-.722,3.528,3.528,0,0,0,.15-1.1,2.658,2.658,0,0,0-.294-1.377,1.479,1.479,0,0,0-.715-.645,2.959,2.959,0,0,0-.977-.117h-1.2Zm9.313-5.035h.755v3.3a3.9,3.9,0,0,1-.195,1.367,1.668,1.668,0,0,1-.7.824,2.491,2.491,0,0,1-1.334.317,2.739,2.739,0,0,1-1.312-.276,1.574,1.574,0,0,1-.729-.8,3.809,3.809,0,0,1-.218-1.431v-3.3h.755v3.294a3.223,3.223,0,0,0,.138,1.1,1.05,1.05,0,0,0,.475.543,1.647,1.647,0,0,0,.824.191,1.573,1.573,0,0,0,1.188-.378,2.175,2.175,0,0,0,.354-1.453Zm6.641,3.707.755.191a2.543,2.543,0,0,1-.855,1.419,2.355,2.355,0,0,1-1.509.489,2.713,2.713,0,0,1-1.5-.376,2.345,2.345,0,0,1-.88-1.088,3.875,3.875,0,0,1-.3-1.53,3.366,3.366,0,0,1,.34-1.556,2.339,2.339,0,0,1,.97-1.008,2.83,2.83,0,0,1,1.384-.345,2.338,2.338,0,0,1,1.44.436,2.265,2.265,0,0,1,.814,1.227l-.743.175a1.765,1.765,0,0,0-.577-.907,1.535,1.535,0,0,0-.95-.284,1.845,1.845,0,0,0-1.1.315,1.663,1.663,0,0,0-.621.847,3.4,3.4,0,0,0-.179,1.1,3.472,3.472,0,0,0,.212,1.272,1.579,1.579,0,0,0,.66.812,1.852,1.852,0,0,0,.969.269,1.626,1.626,0,0,0,1.075-.366A1.875,1.875,0,0,0,3658.769-408.011Zm3.6,2v-5.035h-1.881v-.674h4.524v.674h-1.888v5.035Zm4.05,0v-5.709h.755v5.709Zm2.42-2.78a3.1,3.1,0,0,1,.763-2.225,2.594,2.594,0,0,1,1.97-.8,2.732,2.732,0,0,1,1.425.378,2.465,2.465,0,0,1,.968,1.053,3.425,3.425,0,0,1,.333,1.532,3.367,3.367,0,0,1-.35,1.554,2.39,2.39,0,0,1-.993,1.038,2.836,2.836,0,0,1-1.386.353,2.7,2.7,0,0,1-1.441-.39,2.5,2.5,0,0,1-.962-1.063A3.218,3.218,0,0,1,3668.839-408.79Zm.779.012a2.287,2.287,0,0,0,.555,1.626,1.827,1.827,0,0,0,1.393.594,1.821,1.821,0,0,0,1.4-.6,2.423,2.423,0,0,0,.551-1.7,2.921,2.921,0,0,0-.236-1.217,1.81,1.81,0,0,0-.689-.806,1.87,1.87,0,0,0-1.018-.286,1.933,1.933,0,0,0-1.381.551A2.461,2.461,0,0,0,3669.618-408.778Zm6.269,2.768v-5.709h.775l3,4.482v-4.482h.725v5.709h-.775l-3-4.486v4.486Zm-111.516-27.815h11.495c3.541,0,5.494,1.057,5.494,4,0,2.575-.689,3.127-1.977,3.54,1.586.529,2.6,1.218,2.6,3.724,0,3.425-1.724,4.69-5.333,4.69h-12.276Zm3.816,6.46h7.793c1.035,0,1.563-.8,1.563-1.862a1.441,1.441,0,0,0-1.586-1.586h-7.77Zm0,6.483h7.655c2.046,0,2.322-.46,2.322-1.862,0-1.218-.207-1.793-2.184-1.793h-7.793Zm15.729-1.517h3.816a1.746,1.746,0,0,0,1.885,1.517h6.391c1.679,0,2.46-.506,2.46-1.793,0-1.149-.391-1.839-2.575-1.839h-7.011V-427.3h7.448c1.058,0,1.839-.414,1.839-1.862,0-1.219-.759-1.655-1.839-1.655h-6.414c-1.609,0-1.885.529-1.954,1.494h-3.816c0-3.081,1.586-4.506,5.448-4.506h6.483c4.253,0,5.908,1.265,5.908,4.506a3.153,3.153,0,0,1-2.138,3.379,3.168,3.168,0,0,1,2.437,3.218c0,3.4-1.609,4.851-5.38,4.851h-7.7C3585.134-417.87,3583.916-419.273,3583.916-422.4Zm34.134-11.426v3.173h-9.862v12.782h-3.816v-15.954Zm19.164,0v15.954H3633.4v-12.782h-8.965v6.989c0,4.092-1.678,5.793-4.529,5.793h-1.609v-3.172c1.954,0,2.322-.736,2.322-3.058v-9.725Zm10.375,10.9-3.816,5.057h-4.965l4.667-5.563a4.9,4.9,0,0,1-3.518-4.782c0-4.529,2.368-5.609,5.679-5.609h12.115v15.954h-3.816v-5.057Zm-1.632-7.885c-1.7,0-2.184.758-2.184,2.437,0,1.7.69,2.437,2.3,2.437h7.862v-4.874Zm16.407,4.621v-7.632h15.955v12.782h1.77v6.988h-3.471v-3.816h-13.748v3.816h-3.495v-6.988h1.081A6.443,6.443,0,0,0,3662.363-426.192Zm12.138-4.46h-8.46v5.241a7.074,7.074,0,0,1-1.311,4.368h9.771Z" transform="translate(-3562.932 500.912)" fill="#dbc29e"/>
</svg>
