<svg xmlns="http://www.w3.org/2000/svg" width="60.519" height="60.519" viewBox="0 0 60.519 60.519">
  <g id="sec-4-1" transform="translate(-360 -2660.997)">
    <g id="Group_115" data-name="Group 115" transform="translate(191.999 1668.006)">
      <g id="Group_112" data-name="Group 112" transform="translate(185.242 992.991)">
        <path id="Path_203" data-name="Path 203" d="M204.427,1026.364a.777.777,0,0,1-.225-.034,17.947,17.947,0,0,1-12.792-17.192V998.672a.791.791,0,0,1,.79-.79,7.086,7.086,0,0,0,6.372-3.938l.258-.516a.786.786,0,0,1,.707-.437h9.782a.786.786,0,0,1,.707.437l.259.516a7.083,7.083,0,0,0,6.371,3.938.791.791,0,0,1,.79.79v10.466a17.948,17.948,0,0,1-12.791,17.192A.8.8,0,0,1,204.427,1026.364ZM199.746,995.1a8.652,8.652,0,0,1-5.906,4.214l-.85.16v9.669a16.347,16.347,0,0,0,11.1,15.5l.334.113.335-.113a16.347,16.347,0,0,0,11.1-15.5V999.47l-.85-.16a8.653,8.653,0,0,1-5.906-4.213l-.3-.525h-8.761Z" transform="translate(-191.409 -992.991)" fill="#dbc29e"/>
      </g>
      <g id="Group_113" data-name="Group 113" transform="translate(192.282 1005.428)">
        <path id="Path_204" data-name="Path 204" d="M205.216,1018.375a.787.787,0,0,1-.559-.231l-3.459-3.458a.79.79,0,0,1,1.117-1.118l2.9,2.9,6.359-6.358a.79.79,0,0,1,1.118,1.117l-6.917,6.917A.789.789,0,0,1,205.216,1018.375Z" transform="translate(-200.967 -1009.877)" fill="#dbc29e"/>
      </g>
      <g id="Group_114" data-name="Group 114" transform="translate(168.001 1022.582)">
        <path id="Path_205" data-name="Path 205" d="M168.791,1064.094a.792.792,0,0,1-.79-.791v-6.113a11.732,11.732,0,0,1,6.611-10.592l1.3-.64-1.021-1.032a6.9,6.9,0,1,1,9.812-.007l-1.02,1.034,1.3.638a11.718,11.718,0,0,1,5.864,6.473l.5,1.346,1.126-.891a9.342,9.342,0,0,1,1.206-.81l1.112-.627-.835-.966a5.681,5.681,0,1,1,8.593,0l-.835.966,1.112.627a9.343,9.343,0,0,1,1.206.81l1.126.891.5-1.346a11.718,11.718,0,0,1,5.864-6.473l1.3-.638-1.02-1.034a6.9,6.9,0,1,1,9.812.007l-1.021,1.032,1.3.64a11.732,11.732,0,0,1,6.611,10.592v6.113a.792.792,0,0,1-.79.791Zm47.933-17.12a10.165,10.165,0,0,0-10.167,9.222l-.028.294.13.266a9.236,9.236,0,0,1,.95,4.1v1.655h19.33v-5.323A10.227,10.227,0,0,0,216.724,1046.975Zm-18.465,6.114a7.778,7.778,0,0,0-7.769,7.769v1.655H206.03v-1.655A7.778,7.778,0,0,0,198.26,1053.089Zm-18.464-6.114a10.227,10.227,0,0,0-10.215,10.215v5.323h19.33v-1.655a9.237,9.237,0,0,1,.95-4.1l.13-.266-.028-.294A10.165,10.165,0,0,0,179.8,1046.975Zm18.464-3.668a4.1,4.1,0,1,0,4.1,4.1A4.105,4.105,0,0,0,198.26,1043.307Zm18.465-8.559a5.323,5.323,0,1,0,5.324,5.323A5.33,5.33,0,0,0,216.724,1034.747Zm-36.928,0a5.323,5.323,0,1,0,5.324,5.323A5.33,5.33,0,0,0,179.8,1034.747Z" transform="translate(-168.001 -1033.166)" fill="#dbc29e"/>
      </g>
    </g>
  </g>
</svg>
