<svg xmlns="http://www.w3.org/2000/svg" width="40.652" height="45.516" viewBox="0 0 40.652 45.516">
  <g id="sec-3-4" transform="translate(-801.881 -1339.719)">
    <g id="Group_110" data-name="Group 110" transform="translate(801.881 1339.719)">
      <g id="Group_109" data-name="Group 109">
        <path id="Path_199" data-name="Path 199" d="M842.072,1417.3a2.7,2.7,0,0,0-3.627-.772l-10.259,4.517v-.031a.689.689,0,0,0,0-.074,3.914,3.914,0,0,0-3.354-3.5l-.017,0-6.821-.785a8.439,8.439,0,0,1-3.485-1.469,12.922,12.922,0,0,0-6.517-1.766h-.425v-.691a1.844,1.844,0,0,0-1.843-1.842h-2a1.845,1.845,0,0,0-1.843,1.842v12.754a1.845,1.845,0,0,0,1.843,1.843h2a1.843,1.843,0,0,0,1.837-1.735l6.677,2.485a7.437,7.437,0,0,0,2.6.469h9.2a7.448,7.448,0,0,0,3.978-1.149l11.5-6.491a2.67,2.67,0,0,0,.553-3.6Zm-1.276,2.482-11.451,6.46-.029.017a6.117,6.117,0,0,1-3.279.951h-9.2a6.1,6.1,0,0,1-2.137-.385l-7.136-2.656v-4.837a.667.667,0,1,0-1.334,0v6.151a.509.509,0,0,1-.509.509h-2a.509.509,0,0,1-.509-.509v-12.753a.51.51,0,0,1,.509-.509h2a.51.51,0,0,1,.509.509v3.485a.667.667,0,0,0,1.333,0v-1.461h.425a11.585,11.585,0,0,1,5.844,1.584,9.591,9.591,0,0,0,3.979,1.639l.017,0,6.82.785a2.584,2.584,0,0,1,2.2,2.272l0,.37c-3.962-.046-5.47.132-8.006-.238l-1.181-.172a.667.667,0,0,0-.193,1.319l1.181.173c2.694.393,4.248.2,8.857.252a.682.682,0,0,0,.269-.057l11.215-4.938.016-.007a1.44,1.44,0,0,1,1.963.313,1.36,1.36,0,0,1-.174,1.732Z" transform="translate(-801.881 -1383.028)" fill="#e8e8e8"/>
        <path id="Path_200" data-name="Path 200" d="M821.286,1355.146a1.574,1.574,0,0,1,.482,1.8,2.913,2.913,0,0,0,2.269,3.93,1.572,1.572,0,0,1,1.071.684l-3.122,6.054a1.035,1.035,0,0,0,1.158,1.482l3.405-.8,1.321,3.239a1.025,1.025,0,0,0,.913.644h.048a1.024,1.024,0,0,0,.918-.561l2.922-5.666a2.916,2.916,0,0,0,1.371,0l2.922,5.666a1.024,1.024,0,0,0,.918.561h.048a1.025,1.025,0,0,0,.913-.644l1.321-3.239,3.405.8a1.035,1.035,0,0,0,1.158-1.482l-3.122-6.054a1.572,1.572,0,0,1,1.071-.684,2.913,2.913,0,0,0,2.269-3.93,1.575,1.575,0,0,1,.483-1.8,2.913,2.913,0,0,0,0-4.539,1.575,1.575,0,0,1-.483-1.8,2.912,2.912,0,0,0-2.269-3.93,1.574,1.574,0,0,1-1.318-1.318,2.913,2.913,0,0,0-3.931-2.269,1.575,1.575,0,0,1-1.8-.483,2.913,2.913,0,0,0-4.539,0,1.575,1.575,0,0,1-1.8.483,2.913,2.913,0,0,0-3.931,2.269,1.574,1.574,0,0,1-1.318,1.318,2.913,2.913,0,0,0-2.269,3.93,1.575,1.575,0,0,1-.482,1.8,2.913,2.913,0,0,0,0,4.539Zm7.575,15.286-1.173-2.876a1.03,1.03,0,0,0-1.2-.617l-3.024.713,2.269-4.4a2.914,2.914,0,0,0,3.549,1.214,1.574,1.574,0,0,1,1.8.483,2.924,2.924,0,0,0,.394.4Zm11.361-3.493a1.031,1.031,0,0,0-1.2.617l-1.173,2.876-2.621-5.082a2.907,2.907,0,0,0,.394-.4,1.575,1.575,0,0,1,1.8-.483,2.914,2.914,0,0,0,3.549-1.214l2.269,4.4Zm-18.1-15.292a2.9,2.9,0,0,0,.89-3.322,1.579,1.579,0,0,1,1.23-2.131,2.9,2.9,0,0,0,2.431-2.431,1.58,1.58,0,0,1,2.132-1.231,2.9,2.9,0,0,0,3.321-.89,1.579,1.579,0,0,1,2.461,0,2.9,2.9,0,0,0,3.321.89,1.58,1.58,0,0,1,2.132,1.231,2.9,2.9,0,0,0,2.431,2.431,1.579,1.579,0,0,1,1.23,2.131,2.9,2.9,0,0,0,.89,3.322,1.579,1.579,0,0,1,0,2.461,2.9,2.9,0,0,0-.89,3.321,1.58,1.58,0,0,1-1.231,2.131,2.9,2.9,0,0,0-2.431,2.431,1.58,1.58,0,0,1-2.132,1.23,2.9,2.9,0,0,0-3.321.89,1.579,1.579,0,0,1-2.461,0,2.9,2.9,0,0,0-3.321-.89,1.58,1.58,0,0,1-2.132-1.23,2.9,2.9,0,0,0-2.431-2.431,1.579,1.579,0,0,1-1.23-2.131,2.9,2.9,0,0,0-.89-3.321,1.58,1.58,0,0,1,0-2.461Z" transform="translate(-813.029 -1339.719)" fill="#e8e8e8"/>
        <path id="Path_201" data-name="Path 201" d="M831.5,1360.1a.667.667,0,0,0-.533.778,9.09,9.09,0,1,0,0-3.364.667.667,0,1,0,1.311.246,7.758,7.758,0,1,1,0,2.873.667.667,0,0,0-.778-.533Z" transform="translate(-819.573 -1346.041)" fill="#e8e8e8"/>
        <path id="Path_202" data-name="Path 202" d="M849.654,1361.5l-2.966-.131-1.041-2.78a.964.964,0,0,0-1.805,0l-1.041,2.78-2.966.131a.964.964,0,0,0-.558,1.717l2.322,1.849-.792,2.861a.964.964,0,0,0,1.461,1.061l2.476-1.637,2.477,1.637a.964.964,0,0,0,1.46-1.061l-.792-2.861,2.322-1.849a.964.964,0,0,0-.558-1.717Zm-2.786,2.675a.964.964,0,0,0-.328,1.011l.594,2.146-1.857-1.228h0a.963.963,0,0,0-1.063,0l-1.857,1.228.593-2.146a.962.962,0,0,0-.328-1.011l-1.741-1.387,2.224-.1a.963.963,0,0,0,.86-.625l.781-2.085.781,2.085a.963.963,0,0,0,.86.625l2.224.1Z" transform="translate(-824.416 -1350.823)" fill="#e8e8e8"/>
      </g>
    </g>
  </g>
</svg>
