<?xml version="1.0" standalone="no"?>
<!DOCTYPE svg PUBLIC "-//W3C//DTD SVG 20010904//EN"
 "http://www.w3.org/TR/2001/REC-SVG-20010904/DTD/svg10.dtd">
<svg version="1.0" xmlns="http://www.w3.org/2000/svg"
 width="308.000000pt" height="308.000000pt" viewBox="0 0 308.000000 308.000000"
 preserveAspectRatio="xMidYMid meet">
<metadata>
Created by potrace 1.14, written by Peter Selinger 2001-2017
</metadata>
<g transform="translate(0.000000,308.000000) scale(0.100000,-0.100000)"
fill="#000000" stroke="none">
<path d="M1440 3034 c-118 -54 -328 -138 -440 -176 -90 -31 -331 -93 -390
-102 -19 -2 -69 -9 -110 -15 -114 -16 -159 -20 -292 -27 -68 -3 -126 -9 -129
-12 -26 -27 -43 -505 -26 -702 60 -687 378 -1289 889 -1683 143 -111 329 -215
476 -268 31 -11 67 -25 79 -31 34 -17 62 -12 159 25 496 191 900 578 1148
1098 48 100 146 369 160 439 3 14 12 56 21 93 16 73 20 95 31 172 3 28 8 59
10 70 16 86 22 413 10 550 -22 266 -16 245 -69 246 -107 1 -301 16 -382 29
-33 5 -78 12 -100 15 -195 29 -505 131 -821 271 -67 30 -124 54 -125 53 -2 -1
-47 -21 -99 -45z m455 -264 c203 -78 438 -144 580 -164 22 -4 51 -8 65 -11 14
-2 52 -7 85 -10 33 -3 80 -8 105 -10 25 -3 66 -5 93 -6 26 -1 50 -5 52 -10 24
-37 23 -520 0 -652 -3 -15 -9 -55 -15 -90 -125 -745 -595 -1369 -1223 -1621
-88 -35 -88 -35 -135 -20 -185 63 -425 208 -586 355 -211 192 -358 390 -486
653 -126 259 -198 514 -227 806 -14 134 -7 561 9 575 2 1 53 5 113 9 61 3 121
8 135 10 34 6 106 16 155 22 70 9 322 73 438 113 106 36 318 120 436 173 l54
25 101 -45 c56 -25 169 -70 251 -102z"/>
<path d="M1499 2821 c-61 -31 -329 -137 -429 -171 -95 -32 -324 -93 -390 -104
-31 -5 -133 -20 -215 -31 -16 -2 -66 -7 -110 -10 -44 -4 -82 -9 -84 -11 -8 -7
-6 -426 1 -499 86 -809 557 -1483 1215 -1739 l58 -22 60 24 c106 42 267 131
365 200 105 74 308 269 393 377 248 316 407 726 452 1170 14 136 10 474 -6
489 -2 2 -38 7 -79 10 -71 7 -98 10 -195 22 -235 29 -529 117 -862 258 -73 31
-134 56 -135 56 -2 -1 -19 -9 -39 -19z m75 -250 c31 -101 33 -140 6 -174 l-20
-25 50 19 c87 33 130 27 255 -36 103 -52 222 -89 253 -77 16 6 15 32 -2 32
-23 0 -40 28 -27 44 16 19 58 13 81 -10 43 -43 23 -114 -35 -128 -18 -5 -25
-12 -21 -24 13 -51 16 -76 6 -62 -5 8 -10 25 -10 38 0 12 -5 22 -11 22 -5 0
-7 -4 -4 -10 3 -5 1 -10 -5 -10 -6 0 -10 8 -8 17 2 15 -8 19 -57 24 -63 8
-164 39 -227 70 -71 36 -144 22 -202 -40 l-29 -31 1 -144 c1 -111 6 -161 22
-217 26 -96 26 -158 -1 -193 -17 -21 -18 -26 -5 -26 9 0 16 -7 16 -15 0 -8 -6
-14 -12 -12 -8 1 -11 -6 -9 -18 2 -11 4 -36 3 -55 -6 -162 -6 -313 1 -355 9
-59 16 -114 21 -170 2 -23 8 -51 15 -62 6 -12 11 -29 11 -37 0 -12 11 -16 48
-17 26 0 56 -2 67 -4 35 -7 168 -18 229 -19 45 -1 62 -6 70 -19 8 -13 8 -20
-4 -27 -8 -5 -224 -8 -505 -7 l-490 2 0 25 c0 23 3 24 71 26 39 1 98 5 130 9
80 10 101 12 160 13 50 2 52 3 58 35 4 17 8 49 9 69 1 20 7 42 14 49 6 6 9 25
6 45 -3 19 -1 40 6 48 13 15 12 478 -1 470 -3 -2 -9 0 -13 6 -3 6 1 13 10 16
14 6 14 9 -2 33 -22 34 -20 117 5 196 15 47 20 93 21 207 2 146 2 148 -25 177
-60 67 -130 77 -234 31 -82 -36 -171 -60 -223 -60 -32 0 -38 -3 -33 -16 5 -14
4 -15 -9 -4 -13 11 -14 10 -10 -2 4 -9 0 -18 -8 -21 -10 -4 -13 1 -10 16 3 17
-4 26 -31 41 -45 24 -57 67 -29 105 26 34 66 49 87 32 19 -16 11 -35 -21 -50
-19 -9 -23 -15 -15 -23 27 -27 168 6 253 60 115 73 180 79 303 27 17 -8 17 -6
-2 13 -34 34 -33 72 5 195 15 49 28 85 30 80 1 -4 13 -46 27 -92z m-564 -409
c0 -5 -7 -9 -15 -9 -8 0 -12 4 -9 9 3 4 9 8 15 8 5 0 9 -4 9 -8z m-43 -34 c-3
-8 -6 -5 -6 6 -1 11 2 17 5 13 3 -3 4 -12 1 -19z m50 -10 c-3 -8 -6 -5 -6 6
-1 11 2 17 5 13 3 -3 4 -12 1 -19z m1087 -4 c3 -8 2 -12 -4 -9 -6 3 -10 10
-10 16 0 14 7 11 14 -7z m-1147 -26 c-3 -8 -6 -5 -6 6 -1 11 2 17 5 13 3 -3 4
-12 1 -19z m1110 -10 c-3 -7 -5 -2 -5 12 0 14 2 19 5 13 2 -7 2 -19 0 -25z
m70 0 c-3 -7 -5 -2 -5 12 0 14 2 19 5 13 2 -7 2 -19 0 -25z m-1110 -10 c-3 -7
-5 -2 -5 12 0 14 2 19 5 13 2 -7 2 -19 0 -25z m-31 7 c-1 -8 -5 -17 -8 -21 -5
-4 -4 16 1 34 3 9 9 -1 7 -13z m1054 -52 c-11 -17 -11 -17 -6 0 3 10 6 24 7
30 0 9 2 9 5 0 3 -7 0 -20 -6 -30z m52 1 c-9 -16 -10 -14 -9 8 1 15 6 23 11
18 4 -4 4 -16 -2 -26z m45 14 c-3 -8 -6 -5 -6 6 -1 11 2 17 5 13 3 -3 4 -12 1
-19z m-1104 -8 c3 -11 1 -18 -4 -14 -5 3 -9 12 -9 20 0 20 7 17 13 -6z m-106
-32 c-3 -7 -5 -2 -5 12 0 14 2 19 5 13 2 -7 2 -19 0 -25z m1220 0 c-3 -8 -6
-5 -6 6 -1 11 2 17 5 13 3 -3 4 -12 1 -19z m-1165 -35 c-3 -16 -7 -22 -10 -15
-4 13 4 42 11 42 2 0 2 -12 -1 -27z m1113 17 c3 -5 1 -10 -4 -10 -6 0 -11 5
-11 10 0 6 2 10 4 10 3 0 8 -4 11 -10z m-1178 -22 c-3 -8 -6 -5 -6 6 -1 11 2
17 5 13 3 -3 4 -12 1 -19z m1105 -20 c-6 -6 -7 0 -4 19 5 21 7 23 10 9 2 -10
0 -22 -6 -28z m-975 10 c-3 -8 -6 -5 -6 6 -1 11 2 17 5 13 3 -3 4 -12 1 -19z
m-62 -27 c3 -5 2 -12 -3 -15 -5 -3 -9 1 -9 9 0 17 3 19 12 6z m72 -23 c-3 -7
-5 -2 -5 12 0 14 2 19 5 13 2 -7 2 -19 0 -25z m1110 0 c-3 -7 -5 -2 -5 12 0
14 2 19 5 13 2 -7 2 -19 0 -25z m-1264 -8 c-3 -12 -8 -19 -11 -16 -5 6 5 36
12 36 2 0 2 -9 -1 -20z m1104 -12 c-3 -8 -6 -5 -6 6 -1 11 2 17 5 13 3 -3 4
-12 1 -19z m-940 -20 c-3 -8 -6 -5 -6 6 -1 11 2 17 5 13 3 -3 4 -12 1 -19z
m-85 -15 c-3 -16 -7 -22 -10 -15 -4 13 4 42 11 42 2 0 2 -12 -1 -27z m-95 -5
c-3 -8 -6 -5 -6 6 -1 11 2 17 5 13 3 -3 4 -12 1 -19z m1110 0 c-3 -8 -6 -5 -6
6 -1 11 2 17 5 13 3 -3 4 -12 1 -19z m191 -13 c-3 -3 -9 2 -12 12 -6 14 -5 15
5 6 7 -7 10 -15 7 -18z m-1111 -7 c-3 -8 -6 -5 -6 6 -1 11 2 17 5 13 3 -3 4
-12 1 -19z m-200 -20 c-3 -8 -6 -5 -6 6 -1 11 2 17 5 13 3 -3 4 -12 1 -19z
m1110 -10 c-3 -7 -5 -2 -5 12 0 14 2 19 5 13 2 -7 2 -19 0 -25z m-1002 13 c3
-5 2 -12 -3 -15 -5 -3 -9 1 -9 9 0 17 3 19 12 6z m114 -61 c0 -9 -4 -8 -9 5
-5 11 -9 27 -9 35 0 9 4 8 9 -5 5 -11 9 -27 9 -35z m1110 0 c0 -9 -4 -8 -9 5
-5 11 -9 27 -9 35 0 9 4 8 9 -5 5 -11 9 -27 9 -35z m-232 -2 c-3 -7 -5 -2 -5
12 0 14 2 19 5 13 2 -7 2 -19 0 -25z m-1113 -12 c-3 -15 -8 -25 -11 -23 -2 3
-1 17 3 31 3 15 8 25 11 23 2 -3 1 -17 -3 -31z m118 -3 c-3 -16 -7 -22 -10
-15 -4 13 4 42 11 42 2 0 2 -12 -1 -27z m985 -25 c-3 -8 -6 -5 -6 6 -1 11 2
17 5 13 3 -3 4 -12 1 -19z m250 -10 c-3 -8 -6 -5 -6 6 -1 11 2 17 5 13 3 -3 4
-12 1 -19z m-1099 -43 c0 -16 -2 -15 -8 5 -11 34 -11 60 0 35 5 -11 8 -29 8
-40z m-271 13 c-3 -7 -5 -2 -5 12 0 14 2 19 5 13 2 -7 2 -19 0 -25z m138 23
c3 -5 2 -12 -3 -15 -5 -3 -9 1 -9 9 0 17 3 19 12 6z m1242 -33 c-3 -8 -6 -5
-6 6 -1 11 2 17 5 13 3 -3 4 -12 1 -19z m-134 -23 c-7 -21 -12 -19 -10 4 0 11
5 18 9 15 4 -3 5 -11 1 -19z m-1111 -22 c-3 -16 -7 -22 -10 -15 -4 13 4 42 11
42 2 0 2 -12 -1 -27z m965 5 c-3 -8 -6 -5 -6 6 -1 11 2 17 5 13 3 -3 4 -12 1
-19z m290 0 c-3 -8 -6 -5 -6 6 -1 11 2 17 5 13 3 -3 4 -12 1 -19z m-1105 -13
c3 -13 1 -22 -3 -19 -9 5 -13 44 -5 44 2 0 6 -11 8 -25z m-299 0 c-3 -9 -8
-14 -10 -11 -3 3 -2 9 2 15 9 16 15 13 8 -4z m1104 -27 c-3 -8 -6 -5 -6 6 -1
11 2 17 5 13 3 -3 4 -12 1 -19z m310 -10 c-3 -7 -5 -2 -5 12 0 14 2 19 5 13 2
-7 2 -19 0 -25z m-1424 -8 c-3 -12 -8 -19 -11 -16 -5 6 5 36 12 36 2 0 2 -9
-1 -20z m162 11 c3 -5 2 -12 -3 -15 -5 -3 -9 1 -9 9 0 17 3 19 12 6z m942 -43
c-3 -7 -5 -2 -5 12 0 14 2 19 5 13 2 -7 2 -19 0 -25z m165 -14 c-9 -16 -10
-14 -9 8 1 15 6 23 11 18 4 -4 4 -16 -2 -26z m165 14 c-3 -8 -6 -5 -6 6 -1 11
2 17 5 13 3 -3 4 -12 1 -19z m-1274 -23 c-3 -9 -8 -14 -10 -11 -3 3 -2 9 2 15
9 16 15 13 8 -4z m174 -17 c-3 -8 -6 -5 -6 6 -1 11 2 17 5 13 3 -3 4 -12 1
-19z m1110 -10 c-3 -7 -5 -2 -5 12 0 14 2 19 5 13 2 -7 2 -19 0 -25z m-1470
-20 c-3 -8 -6 -5 -6 6 -1 11 2 17 5 13 3 -3 4 -12 1 -19z m188 13 c3 -5 2 -12
-3 -15 -5 -3 -9 1 -9 9 0 17 3 19 12 6z m922 -23 c-3 -8 -6 -5 -6 6 -1 11 2
17 5 13 3 -3 4 -12 1 -19z m-740 -10 c-3 -8 -6 -5 -6 6 -1 11 2 17 5 13 3 -3
4 -12 1 -19z m-190 -30 c-3 -7 -5 -2 -5 12 0 14 2 19 5 13 2 -7 2 -19 0 -25z
m920 0 c-3 -8 -6 -5 -6 6 -1 11 2 17 5 13 3 -3 4 -12 1 -19z m195 -14 c-9 -16
-10 -14 -9 8 1 15 6 23 11 18 4 -4 4 -16 -2 -26z m196 5 c-3 -8 -7 -3 -11 10
-4 17 -3 21 5 13 5 -5 8 -16 6 -23z m-1111 -11 c-3 -7 -5 -2 -5 12 0 14 2 19
5 13 2 -7 2 -19 0 -25z m-394 -8 c-3 -12 -8 -19 -11 -16 -5 6 5 36 12 36 2 0
2 -9 -1 -20z m1104 -22 c-3 -7 -5 -2 -5 12 0 14 2 19 5 13 2 -7 2 -19 0 -25z
m410 0 c-3 -8 -6 -5 -6 6 -1 11 2 17 5 13 3 -3 4 -12 1 -19z m-1110 -10 c-3
-8 -6 -5 -6 6 -1 11 2 17 5 13 3 -3 4 -12 1 -19z m-420 -20 c-3 -8 -6 -5 -6 6
-1 11 2 17 5 13 3 -3 4 -12 1 -19z m1105 -20 c-8 -8 -9 -4 -5 13 4 13 8 18 11
10 2 -7 -1 -18 -6 -23z m435 0 c-3 -7 -5 -2 -5 12 0 14 2 19 5 13 2 -7 2 -19
0 -25z m-1322 3 c3 -5 2 -12 -3 -15 -5 -3 -9 1 -9 9 0 17 3 19 12 6z m-228
-33 c-3 -7 -5 -2 -5 12 0 14 2 19 5 13 2 -7 2 -19 0 -25z m1104 -11 c-10 -9
-11 -8 -5 6 3 10 9 15 12 12 3 -3 0 -11 -7 -18z m456 1 c-3 -8 -6 -5 -6 6 -1
11 2 17 5 13 3 -3 4 -12 1 -19z m-1340 -20 c-3 -7 -5 -2 -5 12 0 14 2 19 5 13
2 -7 2 -19 0 -25z m241 -23 c0 -16 -2 -15 -8 5 -11 34 -11 60 0 35 5 -11 8
-29 8 -40z m-476 3 c-8 -8 -9 -4 -5 13 4 13 8 18 11 10 2 -7 -1 -18 -6 -23z
m1597 -38 c0 -10 -3 -8 -9 5 -12 27 -12 43 0 25 5 -8 9 -22 9 -30z m-492 -2
c-3 -7 -5 -2 -5 12 0 14 2 19 5 13 2 -7 2 -19 0 -25z m-614 -8 c3 -11 1 -18
-4 -14 -5 3 -9 12 -9 20 0 20 7 17 13 -6z m-506 -32 c-3 -7 -5 -2 -5 12 0 14
2 19 5 13 2 -7 2 -19 0 -25z m255 -15 c-3 -16 -7 -22 -10 -15 -4 13 4 42 11
42 2 0 2 -12 -1 -27z m1365 5 c-3 -8 -6 -5 -6 6 -1 11 2 17 5 13 3 -3 4 -12 1
-19z m-1090 -71 c-65 -99 -197 -153 -329 -135 -97 13 -200 75 -233 139 l-16
29 281 0 c192 0 280 3 280 11 0 6 7 3 16 -6 14 -14 14 -18 1 -38z m697 33 c84
0 126 4 135 13 11 10 13 10 7 0 -6 -10 22 -13 123 -13 98 0 131 3 132 13 0 10
2 10 6 0 2 -7 11 -13 20 -13 31 0 -53 -95 -111 -126 -77 -42 -172 -56 -259
-39 -73 14 -167 77 -200 134 -16 27 -16 31 -3 31 9 0 16 6 17 13 0 10 2 10 6
0 3 -10 38 -13 127 -13z"/>
</g>
</svg>
